M48
; DRILL file {KiCad 5.1.9+dfsg1-1} date Fri Apr 23 10:17:38 2021
; FORMAT={-:-/ absolute / metric / decimal}
; #@! TF.CreationDate,2021-04-23T10:17:38+02:00
; #@! TF.GenerationSoftware,Kicad,Pcbnew,5.1.9+dfsg1-1
; #@! TF.FileFunction,Plated,1,2,PTH
FMAT,2
METRIC
T1C0.400
T2C0.700
T3C0.750
T4C0.800
T5C0.900
T6C1.000
T7C1.100
T8C1.400
%
G90
G05
T1
X196.0Y-52.0
X196.0Y-58.0
X247.0Y-43.9
X261.5Y-43.9
T2
X184.15Y-55.88
X184.15Y-60.96
X186.69Y-55.88
X186.69Y-60.96
X250.2Y-65.4
X250.2Y-70.48
X253.2Y-65.4
X253.2Y-70.48
X256.1Y-65.4
X256.1Y-70.48
X259.1Y-65.4
X259.1Y-70.48
T3
X250.19Y-61.595
X251.46Y-62.865
X252.73Y-61.595
X256.54Y-61.595
X257.81Y-62.865
X259.08Y-61.595
T4
X178.435Y-57.15
X178.435Y-60.325
X180.935Y-57.15
X180.935Y-60.325
X250.825Y-38.1
X250.825Y-40.64
X250.825Y-43.18
X250.825Y-45.72
X250.825Y-48.26
X250.825Y-50.8
X250.825Y-53.34
X250.825Y-55.88
X258.445Y-38.1
X258.445Y-40.64
X258.445Y-43.18
X258.445Y-45.72
X258.445Y-48.26
X258.445Y-50.8
X258.445Y-53.34
X258.445Y-55.88
T5
X183.89Y-52.196
X186.43Y-52.196
T6
X191.9Y-73.4
X194.44Y-73.4
X196.98Y-73.4
X199.52Y-73.4
X207.5Y-73.4
X210.04Y-73.4
X211.6Y-37.9
X211.6Y-40.44
X211.6Y-42.98
X211.6Y-45.52
X211.6Y-48.06
X211.6Y-50.6
X211.6Y-53.14
X212.58Y-73.4
X215.12Y-73.4
X215.4Y-48.7
X215.4Y-51.24
X215.4Y-53.78
X219.2Y-73.4
X221.74Y-73.4
X224.28Y-73.4
X226.82Y-73.4
X230.9Y-38.1
X230.9Y-40.64
X230.9Y-43.18
X230.9Y-45.72
X230.9Y-48.26
X230.9Y-50.8
X230.9Y-56.2
X230.9Y-58.74
X230.9Y-61.28
X230.9Y-63.82
X230.9Y-73.4
X233.44Y-73.4
X234.7Y-48.25
X234.7Y-50.79
X235.98Y-73.4
X238.52Y-73.4
X243.5Y-73.4
X246.04Y-73.4
T7
X175.26Y-53.34
X175.26Y-55.88
X175.26Y-58.42
T8
X174.625Y-45.085
X179.625Y-45.085
X184.625Y-45.085
T6
G00X173.3Y-69.75
M15
G01X173.3Y-71.25
M16
G05
G00X176.8Y-63.5
M15
G01X178.8Y-63.5
M16
G05
G00X177.15Y-69.5
M15
G01X178.45Y-69.5
M16
G05
G00X182.3Y-69.75
M15
G01X182.3Y-71.25
M16
G05
T0
M30
