  0
SECTION
  2
HEADER
  9
$ANGBASE
  50
0.0
  9
$ANGDIR
  70
1
  9
$MEASUREMENT
  70
1
  0
ENDSEC
  0
SECTION
  2
TABLES
  0
TABLE
  2
LTYPE
  70
4
  0
LTYPE
  5
40F
  2
CONTINUOUS
  70
0
  3
Solid line
  72
65
  73
0
  40
0.0
  0
LTYPE
  5
410
  2
DASHDOT
 70
0
  3
Dash Dot ____ _ ____ _
 72
65
 73
4
 40
2.0
 49
1.25
 49
-0.25
 49
0.25
 49
-0.25
  0
LTYPE
  5
411
  2
DASHED
 70
0
  3
Dashed __ __ __ __ __
 72
65
 73
2
 40
0.75
 49
0.5
 49
-0.25
  0
LTYPE
  5
43B
  2
DOTTED
 70
0
  3
Dotted .  .  .  .
 72
65
 73
2
 40
0.2
 49
0.0
 49
-0.2
  0
ENDTAB
  0
TABLE
  2
STYLE
  70
4
  0
STYLE
  2
KICAD
  70
0
  40
0
  41
1
  42
1
  50
0
  71
0
  3
isocp.shx
  0
STYLE
  2
KICADB
  70
0
  40
0
  41
1
  42
1
  50
0
  71
0
  3
isocp.shx
  0
STYLE
  2
KICADI
  70
0
  40
0
  41
1
  42
1
  50
15
  71
0
  3
isocp.shx
  0
STYLE
  2
KICADBI
  70
0
  40
0
  41
1
  42
1
  50
15
  71
0
  3
isocp.shx
  0
ENDTAB
  0
TABLE
  2
LAYER
  70
1
  0
LAYER
  2
BLACK
  70
0
  62
7
  6
CONTINUOUS
  0
ENDTAB
  0
ENDSEC
  0
SECTION
  2
ENTITIES
0
LINE
8
BLACK
6
CONTINUOUS
10
190
20
-33.9
11
263.8
21
-33.9
0
LINE
8
BLACK
6
CONTINUOUS
10
190
20
-39
11
190
21
-33.9
0
LINE
8
BLACK
6
CONTINUOUS
10
188
20
-39
11
190
21
-39
0
LINE
8
BLACK
6
CONTINUOUS
10
188
20
-38
11
188
21
-39
0
LINE
8
BLACK
6
CONTINUOUS
10
171.5
20
-38
11
188
21
-38
0
LINE
8
BLACK
6
CONTINUOUS
10
171.5
20
-76
11
171.5
21
-38
0
LINE
8
BLACK
6
CONTINUOUS
10
188
20
-76
11
171.5
21
-76
0
LINE
8
BLACK
6
CONTINUOUS
10
188
20
-75
11
188
21
-76
0
LINE
8
BLACK
6
CONTINUOUS
10
190
20
-75
11
188
21
-75
0
LINE
8
BLACK
6
CONTINUOUS
10
190
20
-76.5
11
190
21
-75
0
LINE
8
BLACK
6
CONTINUOUS
10
264.7
20
-76.5
11
190
21
-76.5
0
LINE
8
BLACK
6
CONTINUOUS
10
264.7
20
-33.9
11
264.7
21
-76.5
0
LINE
8
BLACK
6
CONTINUOUS
10
263.8
20
-33.9
11
264.7
21
-33.9
0
LINE
8
BLACK
6
CONTINUOUS
10
190
20
-40
11
188
21
-40
0
LINE
8
BLACK
6
CONTINUOUS
10
190
20
-74
11
190
21
-40
0
LINE
8
BLACK
6
CONTINUOUS
10
188
20
-74
11
190
21
-74
0
LINE
8
BLACK
6
CONTINUOUS
10
188
20
-40
11
188
21
-74
0
LINE
8
BLACK
6
CONTINUOUS
10
195.8
20
-51.8
11
196.2
21
-52.2
0
LINE
8
BLACK
6
CONTINUOUS
10
196.2
20
-51.8
11
195.8
21
-52.2
0
LINE
8
BLACK
6
CONTINUOUS
10
195.8
20
-57.8
11
196.2
21
-58.2
0
LINE
8
BLACK
6
CONTINUOUS
10
196.2
20
-57.8
11
195.8
21
-58.2
0
LINE
8
BLACK
6
CONTINUOUS
10
246.8
20
-43.7
11
247.2
21
-44.1
0
LINE
8
BLACK
6
CONTINUOUS
10
247.2
20
-43.7
11
246.8
21
-44.1
0
LINE
8
BLACK
6
CONTINUOUS
10
261.3
20
-43.7
11
261.7
21
-44.1
0
LINE
8
BLACK
6
CONTINUOUS
10
261.7
20
-43.7
11
261.3
21
-44.1
0
CIRCLE
8
BLACK
10
184.15
20
-55.88
40
0.35
0
CIRCLE
8
BLACK
10
184.15
20
-60.96
40
0.35
0
CIRCLE
8
BLACK
10
186.69
20
-55.88
40
0.35
0
CIRCLE
8
BLACK
10
186.69
20
-60.96
40
0.35
0
CIRCLE
8
BLACK
10
250.2
20
-65.4
40
0.35
0
CIRCLE
8
BLACK
10
250.2
20
-70.48
40
0.35
0
CIRCLE
8
BLACK
10
253.2
20
-65.4
40
0.35
0
CIRCLE
8
BLACK
10
253.2
20
-70.48
40
0.35
0
CIRCLE
8
BLACK
10
256.1
20
-65.4
40
0.35
0
CIRCLE
8
BLACK
10
256.1
20
-70.48
40
0.35
0
CIRCLE
8
BLACK
10
259.1
20
-65.4
40
0.35
0
CIRCLE
8
BLACK
10
259.1
20
-70.48
40
0.35
0
LINE
8
BLACK
6
CONTINUOUS
10
250.19
20
-61.22
11
250.19
21
-61.97
0
LINE
8
BLACK
6
CONTINUOUS
10
249.815
20
-61.595
11
250.565
21
-61.595
0
LINE
8
BLACK
6
CONTINUOUS
10
251.46
20
-62.49
11
251.46
21
-63.24
0
LINE
8
BLACK
6
CONTINUOUS
10
251.085
20
-62.865
11
251.835
21
-62.865
0
LINE
8
BLACK
6
CONTINUOUS
10
252.73
20
-61.22
11
252.73
21
-61.97
0
LINE
8
BLACK
6
CONTINUOUS
10
252.355
20
-61.595
11
253.105
21
-61.595
0
LINE
8
BLACK
6
CONTINUOUS
10
256.54
20
-61.22
11
256.54
21
-61.97
0
LINE
8
BLACK
6
CONTINUOUS
10
256.165
20
-61.595
11
256.915
21
-61.595
0
LINE
8
BLACK
6
CONTINUOUS
10
257.81
20
-62.49
11
257.81
21
-63.24
0
LINE
8
BLACK
6
CONTINUOUS
10
257.435
20
-62.865
11
258.185
21
-62.865
0
LINE
8
BLACK
6
CONTINUOUS
10
259.08
20
-61.22
11
259.08
21
-61.97
0
LINE
8
BLACK
6
CONTINUOUS
10
258.705
20
-61.595
11
259.455
21
-61.595
0
LINE
8
BLACK
6
CONTINUOUS
10
178.718
20
-57.4328
11
178.718
21
-56.8672
0
LINE
8
BLACK
6
CONTINUOUS
10
178.718
20
-56.8672
11
178.152
21
-56.8672
0
LINE
8
BLACK
6
CONTINUOUS
10
178.152
20
-56.8672
11
178.152
21
-57.4328
0
LINE
8
BLACK
6
CONTINUOUS
10
178.152
20
-57.4328
11
178.718
21
-57.4328
0
LINE
8
BLACK
6
CONTINUOUS
10
178.718
20
-60.6078
11
178.718
21
-60.0422
0
LINE
8
BLACK
6
CONTINUOUS
10
178.718
20
-60.0422
11
178.152
21
-60.0422
0
LINE
8
BLACK
6
CONTINUOUS
10
178.152
20
-60.0422
11
178.152
21
-60.6078
0
LINE
8
BLACK
6
CONTINUOUS
10
178.152
20
-60.6078
11
178.718
21
-60.6078
0
LINE
8
BLACK
6
CONTINUOUS
10
181.218
20
-57.4328
11
181.218
21
-56.8672
0
LINE
8
BLACK
6
CONTINUOUS
10
181.218
20
-56.8672
11
180.652
21
-56.8672
0
LINE
8
BLACK
6
CONTINUOUS
10
180.652
20
-56.8672
11
180.652
21
-57.4328
0
LINE
8
BLACK
6
CONTINUOUS
10
180.652
20
-57.4328
11
181.218
21
-57.4328
0
LINE
8
BLACK
6
CONTINUOUS
10
181.218
20
-60.6078
11
181.218
21
-60.0422
0
LINE
8
BLACK
6
CONTINUOUS
10
181.218
20
-60.0422
11
180.652
21
-60.0422
0
LINE
8
BLACK
6
CONTINUOUS
10
180.652
20
-60.0422
11
180.652
21
-60.6078
0
LINE
8
BLACK
6
CONTINUOUS
10
180.652
20
-60.6078
11
181.218
21
-60.6078
0
LINE
8
BLACK
6
CONTINUOUS
10
251.108
20
-38.3828
11
251.108
21
-37.8172
0
LINE
8
BLACK
6
CONTINUOUS
10
251.108
20
-37.8172
11
250.542
21
-37.8172
0
LINE
8
BLACK
6
CONTINUOUS
10
250.542
20
-37.8172
11
250.542
21
-38.3828
0
LINE
8
BLACK
6
CONTINUOUS
10
250.542
20
-38.3828
11
251.108
21
-38.3828
0
LINE
8
BLACK
6
CONTINUOUS
10
251.108
20
-40.9228
11
251.108
21
-40.3572
0
LINE
8
BLACK
6
CONTINUOUS
10
251.108
20
-40.3572
11
250.542
21
-40.3572
0
LINE
8
BLACK
6
CONTINUOUS
10
250.542
20
-40.3572
11
250.542
21
-40.9228
0
LINE
8
BLACK
6
CONTINUOUS
10
250.542
20
-40.9228
11
251.108
21
-40.9228
0
LINE
8
BLACK
6
CONTINUOUS
10
251.108
20
-43.4628
11
251.108
21
-42.8972
0
LINE
8
BLACK
6
CONTINUOUS
10
251.108
20
-42.8972
11
250.542
21
-42.8972
0
LINE
8
BLACK
6
CONTINUOUS
10
250.542
20
-42.8972
11
250.542
21
-43.4628
0
LINE
8
BLACK
6
CONTINUOUS
10
250.542
20
-43.4628
11
251.108
21
-43.4628
0
LINE
8
BLACK
6
CONTINUOUS
10
251.108
20
-46.0028
11
251.108
21
-45.4372
0
LINE
8
BLACK
6
CONTINUOUS
10
251.108
20
-45.4372
11
250.542
21
-45.4372
0
LINE
8
BLACK
6
CONTINUOUS
10
250.542
20
-45.4372
11
250.542
21
-46.0028
0
LINE
8
BLACK
6
CONTINUOUS
10
250.542
20
-46.0028
11
251.108
21
-46.0028
0
LINE
8
BLACK
6
CONTINUOUS
10
251.108
20
-48.5428
11
251.108
21
-47.9772
0
LINE
8
BLACK
6
CONTINUOUS
10
251.108
20
-47.9772
11
250.542
21
-47.9772
0
LINE
8
BLACK
6
CONTINUOUS
10
250.542
20
-47.9772
11
250.542
21
-48.5428
0
LINE
8
BLACK
6
CONTINUOUS
10
250.542
20
-48.5428
11
251.108
21
-48.5428
0
LINE
8
BLACK
6
CONTINUOUS
10
251.108
20
-51.0828
11
251.108
21
-50.5172
0
LINE
8
BLACK
6
CONTINUOUS
10
251.108
20
-50.5172
11
250.542
21
-50.5172
0
LINE
8
BLACK
6
CONTINUOUS
10
250.542
20
-50.5172
11
250.542
21
-51.0828
0
LINE
8
BLACK
6
CONTINUOUS
10
250.542
20
-51.0828
11
251.108
21
-51.0828
0
LINE
8
BLACK
6
CONTINUOUS
10
251.108
20
-53.6228
11
251.108
21
-53.0572
0
LINE
8
BLACK
6
CONTINUOUS
10
251.108
20
-53.0572
11
250.542
21
-53.0572
0
LINE
8
BLACK
6
CONTINUOUS
10
250.542
20
-53.0572
11
250.542
21
-53.6228
0
LINE
8
BLACK
6
CONTINUOUS
10
250.542
20
-53.6228
11
251.108
21
-53.6228
0
LINE
8
BLACK
6
CONTINUOUS
10
251.108
20
-56.1628
11
251.108
21
-55.5972
0
LINE
8
BLACK
6
CONTINUOUS
10
251.108
20
-55.5972
11
250.542
21
-55.5972
0
LINE
8
BLACK
6
CONTINUOUS
10
250.542
20
-55.5972
11
250.542
21
-56.1628
0
LINE
8
BLACK
6
CONTINUOUS
10
250.542
20
-56.1628
11
251.108
21
-56.1628
0
LINE
8
BLACK
6
CONTINUOUS
10
258.728
20
-38.3828
11
258.728
21
-37.8172
0
LINE
8
BLACK
6
CONTINUOUS
10
258.728
20
-37.8172
11
258.162
21
-37.8172
0
LINE
8
BLACK
6
CONTINUOUS
10
258.162
20
-37.8172
11
258.162
21
-38.3828
0
LINE
8
BLACK
6
CONTINUOUS
10
258.162
20
-38.3828
11
258.728
21
-38.3828
0
LINE
8
BLACK
6
CONTINUOUS
10
258.728
20
-40.9228
11
258.728
21
-40.3572
0
LINE
8
BLACK
6
CONTINUOUS
10
258.728
20
-40.3572
11
258.162
21
-40.3572
0
LINE
8
BLACK
6
CONTINUOUS
10
258.162
20
-40.3572
11
258.162
21
-40.9228
0
LINE
8
BLACK
6
CONTINUOUS
10
258.162
20
-40.9228
11
258.728
21
-40.9228
0
LINE
8
BLACK
6
CONTINUOUS
10
258.728
20
-43.4628
11
258.728
21
-42.8972
0
LINE
8
BLACK
6
CONTINUOUS
10
258.728
20
-42.8972
11
258.162
21
-42.8972
0
LINE
8
BLACK
6
CONTINUOUS
10
258.162
20
-42.8972
11
258.162
21
-43.4628
0
LINE
8
BLACK
6
CONTINUOUS
10
258.162
20
-43.4628
11
258.728
21
-43.4628
0
LINE
8
BLACK
6
CONTINUOUS
10
258.728
20
-46.0028
11
258.728
21
-45.4372
0
LINE
8
BLACK
6
CONTINUOUS
10
258.728
20
-45.4372
11
258.162
21
-45.4372
0
LINE
8
BLACK
6
CONTINUOUS
10
258.162
20
-45.4372
11
258.162
21
-46.0028
0
LINE
8
BLACK
6
CONTINUOUS
10
258.162
20
-46.0028
11
258.728
21
-46.0028
0
LINE
8
BLACK
6
CONTINUOUS
10
258.728
20
-48.5428
11
258.728
21
-47.9772
0
LINE
8
BLACK
6
CONTINUOUS
10
258.728
20
-47.9772
11
258.162
21
-47.9772
0
LINE
8
BLACK
6
CONTINUOUS
10
258.162
20
-47.9772
11
258.162
21
-48.5428
0
LINE
8
BLACK
6
CONTINUOUS
10
258.162
20
-48.5428
11
258.728
21
-48.5428
0
LINE
8
BLACK
6
CONTINUOUS
10
258.728
20
-51.0828
11
258.728
21
-50.5172
0
LINE
8
BLACK
6
CONTINUOUS
10
258.728
20
-50.5172
11
258.162
21
-50.5172
0
LINE
8
BLACK
6
CONTINUOUS
10
258.162
20
-50.5172
11
258.162
21
-51.0828
0
LINE
8
BLACK
6
CONTINUOUS
10
258.162
20
-51.0828
11
258.728
21
-51.0828
0
LINE
8
BLACK
6
CONTINUOUS
10
258.728
20
-53.6228
11
258.728
21
-53.0572
0
LINE
8
BLACK
6
CONTINUOUS
10
258.728
20
-53.0572
11
258.162
21
-53.0572
0
LINE
8
BLACK
6
CONTINUOUS
10
258.162
20
-53.0572
11
258.162
21
-53.6228
0
LINE
8
BLACK
6
CONTINUOUS
10
258.162
20
-53.6228
11
258.728
21
-53.6228
0
LINE
8
BLACK
6
CONTINUOUS
10
258.728
20
-56.1628
11
258.728
21
-55.5972
0
LINE
8
BLACK
6
CONTINUOUS
10
258.728
20
-55.5972
11
258.162
21
-55.5972
0
LINE
8
BLACK
6
CONTINUOUS
10
258.162
20
-55.5972
11
258.162
21
-56.1628
0
LINE
8
BLACK
6
CONTINUOUS
10
258.162
20
-56.1628
11
258.728
21
-56.1628
0
LINE
8
BLACK
6
CONTINUOUS
10
183.89
20
-52.646
11
184.34
21
-52.196
0
LINE
8
BLACK
6
CONTINUOUS
10
184.34
20
-52.196
11
183.89
21
-51.746
0
LINE
8
BLACK
6
CONTINUOUS
10
183.89
20
-51.746
11
183.44
21
-52.196
0
LINE
8
BLACK
6
CONTINUOUS
10
183.44
20
-52.196
11
183.89
21
-52.646
0
LINE
8
BLACK
6
CONTINUOUS
10
186.43
20
-52.646
11
186.88
21
-52.196
0
LINE
8
BLACK
6
CONTINUOUS
10
186.88
20
-52.196
11
186.43
21
-51.746
0
LINE
8
BLACK
6
CONTINUOUS
10
186.43
20
-51.746
11
185.98
21
-52.196
0
LINE
8
BLACK
6
CONTINUOUS
10
185.98
20
-52.196
11
186.43
21
-52.646
0
LINE
8
BLACK
6
CONTINUOUS
10
172.8
20
-70
11
173.8
21
-71
0
LINE
8
BLACK
6
CONTINUOUS
10
173.8
20
-70
11
172.8
21
-71
0
CIRCLE
8
BLACK
10
173.3
20
-70.5
40
0.5
0
LINE
8
BLACK
6
CONTINUOUS
10
172.8
20
-69.75
11
172.8
21
-71.25
0
LINE
8
BLACK
6
CONTINUOUS
10
173.8
20
-69.75
11
173.8
21
-71.25
0
ARC
8
BLACK
10
173.3
20
-71.25
40
0.5
50
180
51
360
0
ARC
8
BLACK
10
173.3
20
-69.75
40
0.5
50
0
51
180
0
LINE
8
BLACK
6
CONTINUOUS
10
177.3
20
-63
11
178.3
21
-64
0
LINE
8
BLACK
6
CONTINUOUS
10
178.3
20
-63
11
177.3
21
-64
0
CIRCLE
8
BLACK
10
177.8
20
-63.5
40
0.5
0
LINE
8
BLACK
6
CONTINUOUS
10
176.8
20
-64
11
178.8
21
-64
0
LINE
8
BLACK
6
CONTINUOUS
10
176.8
20
-63
11
178.8
21
-63
0
ARC
8
BLACK
10
178.8
20
-63.5
40
0.5
50
270
51
450
0
ARC
8
BLACK
10
176.8
20
-63.5
40
0.5
50
90
51
270
0
LINE
8
BLACK
6
CONTINUOUS
10
177.3
20
-69
11
178.3
21
-70
0
LINE
8
BLACK
6
CONTINUOUS
10
178.3
20
-69
11
177.3
21
-70
0
CIRCLE
8
BLACK
10
177.8
20
-69.5
40
0.5
0
LINE
8
BLACK
6
CONTINUOUS
10
177.15
20
-70
11
178.45
21
-70
0
LINE
8
BLACK
6
CONTINUOUS
10
177.15
20
-69
11
178.45
21
-69
0
ARC
8
BLACK
10
178.45
20
-69.5
40
0.5
50
270
51
450
0
ARC
8
BLACK
10
177.15
20
-69.5
40
0.5
50
90
51
270
0
LINE
8
BLACK
6
CONTINUOUS
10
181.8
20
-70
11
182.8
21
-71
0
LINE
8
BLACK
6
CONTINUOUS
10
182.8
20
-70
11
181.8
21
-71
0
CIRCLE
8
BLACK
10
182.3
20
-70.5
40
0.5
0
LINE
8
BLACK
6
CONTINUOUS
10
181.8
20
-69.75
11
181.8
21
-71.25
0
LINE
8
BLACK
6
CONTINUOUS
10
182.8
20
-69.75
11
182.8
21
-71.25
0
ARC
8
BLACK
10
182.3
20
-71.25
40
0.5
50
180
51
360
0
ARC
8
BLACK
10
182.3
20
-69.75
40
0.5
50
0
51
180
0
LINE
8
BLACK
6
CONTINUOUS
10
191.4
20
-72.9
11
192.4
21
-73.9
0
LINE
8
BLACK
6
CONTINUOUS
10
192.4
20
-72.9
11
191.4
21
-73.9
0
CIRCLE
8
BLACK
10
191.9
20
-73.4
40
0.5
0
LINE
8
BLACK
6
CONTINUOUS
10
193.94
20
-72.9
11
194.94
21
-73.9
0
LINE
8
BLACK
6
CONTINUOUS
10
194.94
20
-72.9
11
193.94
21
-73.9
0
CIRCLE
8
BLACK
10
194.44
20
-73.4
40
0.5
0
LINE
8
BLACK
6
CONTINUOUS
10
196.48
20
-72.9
11
197.48
21
-73.9
0
LINE
8
BLACK
6
CONTINUOUS
10
197.48
20
-72.9
11
196.48
21
-73.9
0
CIRCLE
8
BLACK
10
196.98
20
-73.4
40
0.5
0
LINE
8
BLACK
6
CONTINUOUS
10
199.02
20
-72.9
11
200.02
21
-73.9
0
LINE
8
BLACK
6
CONTINUOUS
10
200.02
20
-72.9
11
199.02
21
-73.9
0
CIRCLE
8
BLACK
10
199.52
20
-73.4
40
0.5
0
LINE
8
BLACK
6
CONTINUOUS
10
207
20
-72.9
11
208
21
-73.9
0
LINE
8
BLACK
6
CONTINUOUS
10
208
20
-72.9
11
207
21
-73.9
0
CIRCLE
8
BLACK
10
207.5
20
-73.4
40
0.5
0
LINE
8
BLACK
6
CONTINUOUS
10
209.54
20
-72.9
11
210.54
21
-73.9
0
LINE
8
BLACK
6
CONTINUOUS
10
210.54
20
-72.9
11
209.54
21
-73.9
0
CIRCLE
8
BLACK
10
210.04
20
-73.4
40
0.5
0
LINE
8
BLACK
6
CONTINUOUS
10
211.1
20
-37.4
11
212.1
21
-38.4
0
LINE
8
BLACK
6
CONTINUOUS
10
212.1
20
-37.4
11
211.1
21
-38.4
0
CIRCLE
8
BLACK
10
211.6
20
-37.9
40
0.5
0
LINE
8
BLACK
6
CONTINUOUS
10
211.1
20
-39.94
11
212.1
21
-40.94
0
LINE
8
BLACK
6
CONTINUOUS
10
212.1
20
-39.94
11
211.1
21
-40.94
0
CIRCLE
8
BLACK
10
211.6
20
-40.44
40
0.5
0
LINE
8
BLACK
6
CONTINUOUS
10
211.1
20
-42.48
11
212.1
21
-43.48
0
LINE
8
BLACK
6
CONTINUOUS
10
212.1
20
-42.48
11
211.1
21
-43.48
0
CIRCLE
8
BLACK
10
211.6
20
-42.98
40
0.5
0
LINE
8
BLACK
6
CONTINUOUS
10
211.1
20
-45.02
11
212.1
21
-46.02
0
LINE
8
BLACK
6
CONTINUOUS
10
212.1
20
-45.02
11
211.1
21
-46.02
0
CIRCLE
8
BLACK
10
211.6
20
-45.52
40
0.5
0
LINE
8
BLACK
6
CONTINUOUS
10
211.1
20
-47.56
11
212.1
21
-48.56
0
LINE
8
BLACK
6
CONTINUOUS
10
212.1
20
-47.56
11
211.1
21
-48.56
0
CIRCLE
8
BLACK
10
211.6
20
-48.06
40
0.5
0
LINE
8
BLACK
6
CONTINUOUS
10
211.1
20
-50.1
11
212.1
21
-51.1
0
LINE
8
BLACK
6
CONTINUOUS
10
212.1
20
-50.1
11
211.1
21
-51.1
0
CIRCLE
8
BLACK
10
211.6
20
-50.6
40
0.5
0
LINE
8
BLACK
6
CONTINUOUS
10
211.1
20
-52.64
11
212.1
21
-53.64
0
LINE
8
BLACK
6
CONTINUOUS
10
212.1
20
-52.64
11
211.1
21
-53.64
0
CIRCLE
8
BLACK
10
211.6
20
-53.14
40
0.5
0
LINE
8
BLACK
6
CONTINUOUS
10
212.08
20
-72.9
11
213.08
21
-73.9
0
LINE
8
BLACK
6
CONTINUOUS
10
213.08
20
-72.9
11
212.08
21
-73.9
0
CIRCLE
8
BLACK
10
212.58
20
-73.4
40
0.5
0
LINE
8
BLACK
6
CONTINUOUS
10
214.62
20
-72.9
11
215.62
21
-73.9
0
LINE
8
BLACK
6
CONTINUOUS
10
215.62
20
-72.9
11
214.62
21
-73.9
0
CIRCLE
8
BLACK
10
215.12
20
-73.4
40
0.5
0
LINE
8
BLACK
6
CONTINUOUS
10
214.9
20
-48.2
11
215.9
21
-49.2
0
LINE
8
BLACK
6
CONTINUOUS
10
215.9
20
-48.2
11
214.9
21
-49.2
0
CIRCLE
8
BLACK
10
215.4
20
-48.7
40
0.5
0
LINE
8
BLACK
6
CONTINUOUS
10
214.9
20
-50.74
11
215.9
21
-51.74
0
LINE
8
BLACK
6
CONTINUOUS
10
215.9
20
-50.74
11
214.9
21
-51.74
0
CIRCLE
8
BLACK
10
215.4
20
-51.24
40
0.5
0
LINE
8
BLACK
6
CONTINUOUS
10
214.9
20
-53.28
11
215.9
21
-54.28
0
LINE
8
BLACK
6
CONTINUOUS
10
215.9
20
-53.28
11
214.9
21
-54.28
0
CIRCLE
8
BLACK
10
215.4
20
-53.78
40
0.5
0
LINE
8
BLACK
6
CONTINUOUS
10
218.7
20
-72.9
11
219.7
21
-73.9
0
LINE
8
BLACK
6
CONTINUOUS
10
219.7
20
-72.9
11
218.7
21
-73.9
0
CIRCLE
8
BLACK
10
219.2
20
-73.4
40
0.5
0
LINE
8
BLACK
6
CONTINUOUS
10
221.24
20
-72.9
11
222.24
21
-73.9
0
LINE
8
BLACK
6
CONTINUOUS
10
222.24
20
-72.9
11
221.24
21
-73.9
0
CIRCLE
8
BLACK
10
221.74
20
-73.4
40
0.5
0
LINE
8
BLACK
6
CONTINUOUS
10
223.78
20
-72.9
11
224.78
21
-73.9
0
LINE
8
BLACK
6
CONTINUOUS
10
224.78
20
-72.9
11
223.78
21
-73.9
0
CIRCLE
8
BLACK
10
224.28
20
-73.4
40
0.5
0
LINE
8
BLACK
6
CONTINUOUS
10
226.32
20
-72.9
11
227.32
21
-73.9
0
LINE
8
BLACK
6
CONTINUOUS
10
227.32
20
-72.9
11
226.32
21
-73.9
0
CIRCLE
8
BLACK
10
226.82
20
-73.4
40
0.5
0
LINE
8
BLACK
6
CONTINUOUS
10
230.4
20
-37.6
11
231.4
21
-38.6
0
LINE
8
BLACK
6
CONTINUOUS
10
231.4
20
-37.6
11
230.4
21
-38.6
0
CIRCLE
8
BLACK
10
230.9
20
-38.1
40
0.5
0
LINE
8
BLACK
6
CONTINUOUS
10
230.4
20
-40.14
11
231.4
21
-41.14
0
LINE
8
BLACK
6
CONTINUOUS
10
231.4
20
-40.14
11
230.4
21
-41.14
0
CIRCLE
8
BLACK
10
230.9
20
-40.64
40
0.5
0
LINE
8
BLACK
6
CONTINUOUS
10
230.4
20
-42.68
11
231.4
21
-43.68
0
LINE
8
BLACK
6
CONTINUOUS
10
231.4
20
-42.68
11
230.4
21
-43.68
0
CIRCLE
8
BLACK
10
230.9
20
-43.18
40
0.5
0
LINE
8
BLACK
6
CONTINUOUS
10
230.4
20
-45.22
11
231.4
21
-46.22
0
LINE
8
BLACK
6
CONTINUOUS
10
231.4
20
-45.22
11
230.4
21
-46.22
0
CIRCLE
8
BLACK
10
230.9
20
-45.72
40
0.5
0
LINE
8
BLACK
6
CONTINUOUS
10
230.4
20
-47.76
11
231.4
21
-48.76
0
LINE
8
BLACK
6
CONTINUOUS
10
231.4
20
-47.76
11
230.4
21
-48.76
0
CIRCLE
8
BLACK
10
230.9
20
-48.26
40
0.5
0
LINE
8
BLACK
6
CONTINUOUS
10
230.4
20
-50.3
11
231.4
21
-51.3
0
LINE
8
BLACK
6
CONTINUOUS
10
231.4
20
-50.3
11
230.4
21
-51.3
0
CIRCLE
8
BLACK
10
230.9
20
-50.8
40
0.5
0
LINE
8
BLACK
6
CONTINUOUS
10
230.4
20
-55.7
11
231.4
21
-56.7
0
LINE
8
BLACK
6
CONTINUOUS
10
231.4
20
-55.7
11
230.4
21
-56.7
0
CIRCLE
8
BLACK
10
230.9
20
-56.2
40
0.5
0
LINE
8
BLACK
6
CONTINUOUS
10
230.4
20
-58.24
11
231.4
21
-59.24
0
LINE
8
BLACK
6
CONTINUOUS
10
231.4
20
-58.24
11
230.4
21
-59.24
0
CIRCLE
8
BLACK
10
230.9
20
-58.74
40
0.5
0
LINE
8
BLACK
6
CONTINUOUS
10
230.4
20
-60.78
11
231.4
21
-61.78
0
LINE
8
BLACK
6
CONTINUOUS
10
231.4
20
-60.78
11
230.4
21
-61.78
0
CIRCLE
8
BLACK
10
230.9
20
-61.28
40
0.5
0
LINE
8
BLACK
6
CONTINUOUS
10
230.4
20
-63.32
11
231.4
21
-64.32
0
LINE
8
BLACK
6
CONTINUOUS
10
231.4
20
-63.32
11
230.4
21
-64.32
0
CIRCLE
8
BLACK
10
230.9
20
-63.82
40
0.5
0
LINE
8
BLACK
6
CONTINUOUS
10
230.4
20
-72.9
11
231.4
21
-73.9
0
LINE
8
BLACK
6
CONTINUOUS
10
231.4
20
-72.9
11
230.4
21
-73.9
0
CIRCLE
8
BLACK
10
230.9
20
-73.4
40
0.5
0
LINE
8
BLACK
6
CONTINUOUS
10
232.94
20
-72.9
11
233.94
21
-73.9
0
LINE
8
BLACK
6
CONTINUOUS
10
233.94
20
-72.9
11
232.94
21
-73.9
0
CIRCLE
8
BLACK
10
233.44
20
-73.4
40
0.5
0
LINE
8
BLACK
6
CONTINUOUS
10
234.2
20
-47.75
11
235.2
21
-48.75
0
LINE
8
BLACK
6
CONTINUOUS
10
235.2
20
-47.75
11
234.2
21
-48.75
0
CIRCLE
8
BLACK
10
234.7
20
-48.25
40
0.5
0
LINE
8
BLACK
6
CONTINUOUS
10
234.2
20
-50.29
11
235.2
21
-51.29
0
LINE
8
BLACK
6
CONTINUOUS
10
235.2
20
-50.29
11
234.2
21
-51.29
0
CIRCLE
8
BLACK
10
234.7
20
-50.79
40
0.5
0
LINE
8
BLACK
6
CONTINUOUS
10
235.48
20
-72.9
11
236.48
21
-73.9
0
LINE
8
BLACK
6
CONTINUOUS
10
236.48
20
-72.9
11
235.48
21
-73.9
0
CIRCLE
8
BLACK
10
235.98
20
-73.4
40
0.5
0
LINE
8
BLACK
6
CONTINUOUS
10
238.02
20
-72.9
11
239.02
21
-73.9
0
LINE
8
BLACK
6
CONTINUOUS
10
239.02
20
-72.9
11
238.02
21
-73.9
0
CIRCLE
8
BLACK
10
238.52
20
-73.4
40
0.5
0
LINE
8
BLACK
6
CONTINUOUS
10
243
20
-72.9
11
244
21
-73.9
0
LINE
8
BLACK
6
CONTINUOUS
10
244
20
-72.9
11
243
21
-73.9
0
CIRCLE
8
BLACK
10
243.5
20
-73.4
40
0.5
0
LINE
8
BLACK
6
CONTINUOUS
10
245.54
20
-72.9
11
246.54
21
-73.9
0
LINE
8
BLACK
6
CONTINUOUS
10
246.54
20
-72.9
11
245.54
21
-73.9
0
CIRCLE
8
BLACK
10
246.04
20
-73.4
40
0.5
0
LINE
8
BLACK
6
CONTINUOUS
10
174.71
20
-52.79
11
175.81
21
-53.89
0
LINE
8
BLACK
6
CONTINUOUS
10
175.81
20
-52.79
11
174.71
21
-53.89
0
LINE
8
BLACK
6
CONTINUOUS
10
175.26
20
-52.79
11
175.26
21
-53.89
0
LINE
8
BLACK
6
CONTINUOUS
10
174.71
20
-53.34
11
175.81
21
-53.34
0
LINE
8
BLACK
6
CONTINUOUS
10
174.71
20
-55.33
11
175.81
21
-56.43
0
LINE
8
BLACK
6
CONTINUOUS
10
175.81
20
-55.33
11
174.71
21
-56.43
0
LINE
8
BLACK
6
CONTINUOUS
10
175.26
20
-55.33
11
175.26
21
-56.43
0
LINE
8
BLACK
6
CONTINUOUS
10
174.71
20
-55.88
11
175.81
21
-55.88
0
LINE
8
BLACK
6
CONTINUOUS
10
174.71
20
-57.87
11
175.81
21
-58.97
0
LINE
8
BLACK
6
CONTINUOUS
10
175.81
20
-57.87
11
174.71
21
-58.97
0
LINE
8
BLACK
6
CONTINUOUS
10
175.26
20
-57.87
11
175.26
21
-58.97
0
LINE
8
BLACK
6
CONTINUOUS
10
174.71
20
-58.42
11
175.81
21
-58.42
0
LINE
8
BLACK
6
CONTINUOUS
10
173.925
20
-44.385
11
175.325
21
-45.785
0
LINE
8
BLACK
6
CONTINUOUS
10
175.325
20
-44.385
11
173.925
21
-45.785
0
LINE
8
BLACK
6
CONTINUOUS
10
175.12
20
-45.58
11
175.12
21
-44.59
0
LINE
8
BLACK
6
CONTINUOUS
10
175.12
20
-44.59
11
174.13
21
-44.59
0
LINE
8
BLACK
6
CONTINUOUS
10
174.13
20
-44.59
11
174.13
21
-45.58
0
LINE
8
BLACK
6
CONTINUOUS
10
174.13
20
-45.58
11
175.12
21
-45.58
0
LINE
8
BLACK
6
CONTINUOUS
10
178.925
20
-44.385
11
180.325
21
-45.785
0
LINE
8
BLACK
6
CONTINUOUS
10
180.325
20
-44.385
11
178.925
21
-45.785
0
LINE
8
BLACK
6
CONTINUOUS
10
180.12
20
-45.58
11
180.12
21
-44.59
0
LINE
8
BLACK
6
CONTINUOUS
10
180.12
20
-44.59
11
179.13
21
-44.59
0
LINE
8
BLACK
6
CONTINUOUS
10
179.13
20
-44.59
11
179.13
21
-45.58
0
LINE
8
BLACK
6
CONTINUOUS
10
179.13
20
-45.58
11
180.12
21
-45.58
0
LINE
8
BLACK
6
CONTINUOUS
10
183.925
20
-44.385
11
185.325
21
-45.785
0
LINE
8
BLACK
6
CONTINUOUS
10
185.325
20
-44.385
11
183.925
21
-45.785
0
LINE
8
BLACK
6
CONTINUOUS
10
185.12
20
-45.58
11
185.12
21
-44.59
0
LINE
8
BLACK
6
CONTINUOUS
10
185.12
20
-44.59
11
184.13
21
-44.59
0
LINE
8
BLACK
6
CONTINUOUS
10
184.13
20
-44.59
11
184.13
21
-45.58
0
LINE
8
BLACK
6
CONTINUOUS
10
184.13
20
-45.58
11
185.12
21
-45.58
0
LINE
8
BLACK
6
CONTINUOUS
10
174.314
20
-83.6571
11
174.314
21
-80.6571
0
LINE
8
BLACK
6
CONTINUOUS
10
174.314
20
-80.6571
11
175.029
21
-80.6571
0
LINE
8
BLACK
6
CONTINUOUS
10
175.029
20
-80.6571
11
175.457
21
-80.8
0
LINE
8
BLACK
6
CONTINUOUS
10
175.457
20
-80.8
11
175.743
21
-81.0857
0
LINE
8
BLACK
6
CONTINUOUS
10
175.743
20
-81.0857
11
175.886
21
-81.3714
0
LINE
8
BLACK
6
CONTINUOUS
10
175.886
20
-81.3714
11
176.029
21
-81.9429
0
LINE
8
BLACK
6
CONTINUOUS
10
176.029
20
-81.9429
11
176.029
21
-82.3714
0
LINE
8
BLACK
6
CONTINUOUS
10
176.029
20
-82.3714
11
175.886
21
-82.9429
0
LINE
8
BLACK
6
CONTINUOUS
10
175.886
20
-82.9429
11
175.743
21
-83.2286
0
LINE
8
BLACK
6
CONTINUOUS
10
175.743
20
-83.2286
11
175.457
21
-83.5143
0
LINE
8
BLACK
6
CONTINUOUS
10
175.457
20
-83.5143
11
175.029
21
-83.6571
0
LINE
8
BLACK
6
CONTINUOUS
10
175.029
20
-83.6571
11
174.314
21
-83.6571
0
LINE
8
BLACK
6
CONTINUOUS
10
177.314
20
-83.6571
11
177.314
21
-81.6571
0
LINE
8
BLACK
6
CONTINUOUS
10
177.314
20
-82.2286
11
177.457
21
-81.9429
0
LINE
8
BLACK
6
CONTINUOUS
10
177.457
20
-81.9429
11
177.6
21
-81.8
0
LINE
8
BLACK
6
CONTINUOUS
10
177.6
20
-81.8
11
177.886
21
-81.6571
0
LINE
8
BLACK
6
CONTINUOUS
10
177.886
20
-81.6571
11
178.171
21
-81.6571
0
LINE
8
BLACK
6
CONTINUOUS
10
179.171
20
-83.6571
11
179.171
21
-81.6571
0
LINE
8
BLACK
6
CONTINUOUS
10
179.171
20
-80.6571
11
179.029
21
-80.8
0
LINE
8
BLACK
6
CONTINUOUS
10
179.029
20
-80.8
11
179.171
21
-80.9429
0
LINE
8
BLACK
6
CONTINUOUS
10
179.171
20
-80.9429
11
179.314
21
-80.8
0
LINE
8
BLACK
6
CONTINUOUS
10
179.314
20
-80.8
11
179.171
21
-80.6571
0
LINE
8
BLACK
6
CONTINUOUS
10
179.171
20
-80.6571
11
179.171
21
-80.9429
0
LINE
8
BLACK
6
CONTINUOUS
10
181.029
20
-83.6571
11
180.743
21
-83.5143
0
LINE
8
BLACK
6
CONTINUOUS
10
180.743
20
-83.5143
11
180.6
21
-83.2286
0
LINE
8
BLACK
6
CONTINUOUS
10
180.6
20
-83.2286
11
180.6
21
-80.6571
0
LINE
8
BLACK
6
CONTINUOUS
10
182.6
20
-83.6571
11
182.314
21
-83.5143
0
LINE
8
BLACK
6
CONTINUOUS
10
182.314
20
-83.5143
11
182.171
21
-83.2286
0
LINE
8
BLACK
6
CONTINUOUS
10
182.171
20
-83.2286
11
182.171
21
-80.6571
0
LINE
8
BLACK
6
CONTINUOUS
10
186.029
20
-83.6571
11
186.029
21
-80.6571
0
LINE
8
BLACK
6
CONTINUOUS
10
186.029
20
-80.6571
11
187.029
21
-82.8
0
LINE
8
BLACK
6
CONTINUOUS
10
187.029
20
-82.8
11
188.029
21
-80.6571
0
LINE
8
BLACK
6
CONTINUOUS
10
188.029
20
-80.6571
11
188.029
21
-83.6571
0
LINE
8
BLACK
6
CONTINUOUS
10
190.743
20
-83.6571
11
190.743
21
-82.0857
0
LINE
8
BLACK
6
CONTINUOUS
10
190.743
20
-82.0857
11
190.6
21
-81.8
0
LINE
8
BLACK
6
CONTINUOUS
10
190.6
20
-81.8
11
190.314
21
-81.6571
0
LINE
8
BLACK
6
CONTINUOUS
10
190.314
20
-81.6571
11
189.743
21
-81.6571
0
LINE
8
BLACK
6
CONTINUOUS
10
189.743
20
-81.6571
11
189.457
21
-81.8
0
LINE
8
BLACK
6
CONTINUOUS
10
190.743
20
-83.5143
11
190.457
21
-83.6571
0
LINE
8
BLACK
6
CONTINUOUS
10
190.457
20
-83.6571
11
189.743
21
-83.6571
0
LINE
8
BLACK
6
CONTINUOUS
10
189.743
20
-83.6571
11
189.457
21
-83.5143
0
LINE
8
BLACK
6
CONTINUOUS
10
189.457
20
-83.5143
11
189.314
21
-83.2286
0
LINE
8
BLACK
6
CONTINUOUS
10
189.314
20
-83.2286
11
189.314
21
-82.9429
0
LINE
8
BLACK
6
CONTINUOUS
10
189.314
20
-82.9429
11
189.457
21
-82.6571
0
LINE
8
BLACK
6
CONTINUOUS
10
189.457
20
-82.6571
11
189.743
21
-82.5143
0
LINE
8
BLACK
6
CONTINUOUS
10
189.743
20
-82.5143
11
190.457
21
-82.5143
0
LINE
8
BLACK
6
CONTINUOUS
10
190.457
20
-82.5143
11
190.743
21
-82.3714
0
LINE
8
BLACK
6
CONTINUOUS
10
192.171
20
-81.6571
11
192.171
21
-84.6571
0
LINE
8
BLACK
6
CONTINUOUS
10
192.171
20
-81.8
11
192.457
21
-81.6571
0
LINE
8
BLACK
6
CONTINUOUS
10
192.457
20
-81.6571
11
193.029
21
-81.6571
0
LINE
8
BLACK
6
CONTINUOUS
10
193.029
20
-81.6571
11
193.314
21
-81.8
0
LINE
8
BLACK
6
CONTINUOUS
10
193.314
20
-81.8
11
193.457
21
-81.9429
0
LINE
8
BLACK
6
CONTINUOUS
10
193.457
20
-81.9429
11
193.6
21
-82.2286
0
LINE
8
BLACK
6
CONTINUOUS
10
193.6
20
-82.2286
11
193.6
21
-83.0857
0
LINE
8
BLACK
6
CONTINUOUS
10
193.6
20
-83.0857
11
193.457
21
-83.3714
0
LINE
8
BLACK
6
CONTINUOUS
10
193.457
20
-83.3714
11
193.314
21
-83.5143
0
LINE
8
BLACK
6
CONTINUOUS
10
193.314
20
-83.5143
11
193.029
21
-83.6571
0
LINE
8
BLACK
6
CONTINUOUS
10
193.029
20
-83.6571
11
192.457
21
-83.6571
0
LINE
8
BLACK
6
CONTINUOUS
10
192.457
20
-83.6571
11
192.171
21
-83.5143
0
LINE
8
BLACK
6
CONTINUOUS
10
194.886
20
-83.3714
11
195.029
21
-83.5143
0
LINE
8
BLACK
6
CONTINUOUS
10
195.029
20
-83.5143
11
194.886
21
-83.6571
0
LINE
8
BLACK
6
CONTINUOUS
10
194.886
20
-83.6571
11
194.743
21
-83.5143
0
LINE
8
BLACK
6
CONTINUOUS
10
194.743
20
-83.5143
11
194.886
21
-83.3714
0
LINE
8
BLACK
6
CONTINUOUS
10
194.886
20
-83.3714
11
194.886
21
-83.6571
0
LINE
8
BLACK
6
CONTINUOUS
10
194.886
20
-81.8
11
195.029
21
-81.9429
0
LINE
8
BLACK
6
CONTINUOUS
10
195.029
20
-81.9429
11
194.886
21
-82.0857
0
LINE
8
BLACK
6
CONTINUOUS
10
194.886
20
-82.0857
11
194.743
21
-81.9429
0
LINE
8
BLACK
6
CONTINUOUS
10
194.743
20
-81.9429
11
194.886
21
-81.8
0
LINE
8
BLACK
6
CONTINUOUS
10
194.886
20
-81.8
11
194.886
21
-82.0857
0
LINE
8
BLACK
6
CONTINUOUS
10
171.05
20
-88.4
11
171.45
21
-88.8
0
LINE
8
BLACK
6
CONTINUOUS
10
171.45
20
-88.4
11
171.05
21
-88.8
0
LINE
8
BLACK
6
CONTINUOUS
10
174.886
20
-86.9571
11
175.171
21
-86.9571
0
LINE
8
BLACK
6
CONTINUOUS
10
175.171
20
-86.9571
11
175.457
21
-87.1
0
LINE
8
BLACK
6
CONTINUOUS
10
175.457
20
-87.1
11
175.6
21
-87.2429
0
LINE
8
BLACK
6
CONTINUOUS
10
175.6
20
-87.2429
11
175.743
21
-87.5286
0
LINE
8
BLACK
6
CONTINUOUS
10
175.743
20
-87.5286
11
175.886
21
-88.1
0
LINE
8
BLACK
6
CONTINUOUS
10
175.886
20
-88.1
11
175.886
21
-88.8143
0
LINE
8
BLACK
6
CONTINUOUS
10
175.886
20
-88.8143
11
175.743
21
-89.3857
0
LINE
8
BLACK
6
CONTINUOUS
10
175.743
20
-89.3857
11
175.6
21
-89.6714
0
LINE
8
BLACK
6
CONTINUOUS
10
175.6
20
-89.6714
11
175.457
21
-89.8143
0
LINE
8
BLACK
6
CONTINUOUS
10
175.457
20
-89.8143
11
175.171
21
-89.9571
0
LINE
8
BLACK
6
CONTINUOUS
10
175.171
20
-89.9571
11
174.886
21
-89.9571
0
LINE
8
BLACK
6
CONTINUOUS
10
174.886
20
-89.9571
11
174.6
21
-89.8143
0
LINE
8
BLACK
6
CONTINUOUS
10
174.6
20
-89.8143
11
174.457
21
-89.6714
0
LINE
8
BLACK
6
CONTINUOUS
10
174.457
20
-89.6714
11
174.314
21
-89.3857
0
LINE
8
BLACK
6
CONTINUOUS
10
174.314
20
-89.3857
11
174.171
21
-88.8143
0
LINE
8
BLACK
6
CONTINUOUS
10
174.171
20
-88.8143
11
174.171
21
-88.1
0
LINE
8
BLACK
6
CONTINUOUS
10
174.171
20
-88.1
11
174.314
21
-87.5286
0
LINE
8
BLACK
6
CONTINUOUS
10
174.314
20
-87.5286
11
174.457
21
-87.2429
0
LINE
8
BLACK
6
CONTINUOUS
10
174.457
20
-87.2429
11
174.6
21
-87.1
0
LINE
8
BLACK
6
CONTINUOUS
10
174.6
20
-87.1
11
174.886
21
-86.9571
0
LINE
8
BLACK
6
CONTINUOUS
10
177.171
20
-89.6714
11
177.314
21
-89.8143
0
LINE
8
BLACK
6
CONTINUOUS
10
177.314
20
-89.8143
11
177.171
21
-89.9571
0
LINE
8
BLACK
6
CONTINUOUS
10
177.171
20
-89.9571
11
177.029
21
-89.8143
0
LINE
8
BLACK
6
CONTINUOUS
10
177.029
20
-89.8143
11
177.171
21
-89.6714
0
LINE
8
BLACK
6
CONTINUOUS
10
177.171
20
-89.6714
11
177.171
21
-89.9571
0
LINE
8
BLACK
6
CONTINUOUS
10
179.886
20
-87.9571
11
179.886
21
-89.9571
0
LINE
8
BLACK
6
CONTINUOUS
10
179.171
20
-86.8143
11
178.457
21
-88.9571
0
LINE
8
BLACK
6
CONTINUOUS
10
178.457
20
-88.9571
11
180.314
21
-88.9571
0
LINE
8
BLACK
6
CONTINUOUS
10
182.029
20
-86.9571
11
182.314
21
-86.9571
0
LINE
8
BLACK
6
CONTINUOUS
10
182.314
20
-86.9571
11
182.6
21
-87.1
0
LINE
8
BLACK
6
CONTINUOUS
10
182.6
20
-87.1
11
182.743
21
-87.2429
0
LINE
8
BLACK
6
CONTINUOUS
10
182.743
20
-87.2429
11
182.886
21
-87.5286
0
LINE
8
BLACK
6
CONTINUOUS
10
182.886
20
-87.5286
11
183.029
21
-88.1
0
LINE
8
BLACK
6
CONTINUOUS
10
183.029
20
-88.1
11
183.029
21
-88.8143
0
LINE
8
BLACK
6
CONTINUOUS
10
183.029
20
-88.8143
11
182.886
21
-89.3857
0
LINE
8
BLACK
6
CONTINUOUS
10
182.886
20
-89.3857
11
182.743
21
-89.6714
0
LINE
8
BLACK
6
CONTINUOUS
10
182.743
20
-89.6714
11
182.6
21
-89.8143
0
LINE
8
BLACK
6
CONTINUOUS
10
182.6
20
-89.8143
11
182.314
21
-89.9571
0
LINE
8
BLACK
6
CONTINUOUS
10
182.314
20
-89.9571
11
182.029
21
-89.9571
0
LINE
8
BLACK
6
CONTINUOUS
10
182.029
20
-89.9571
11
181.743
21
-89.8143
0
LINE
8
BLACK
6
CONTINUOUS
10
181.743
20
-89.8143
11
181.6
21
-89.6714
0
LINE
8
BLACK
6
CONTINUOUS
10
181.6
20
-89.6714
11
181.457
21
-89.3857
0
LINE
8
BLACK
6
CONTINUOUS
10
181.457
20
-89.3857
11
181.314
21
-88.8143
0
LINE
8
BLACK
6
CONTINUOUS
10
181.314
20
-88.8143
11
181.314
21
-88.1
0
LINE
8
BLACK
6
CONTINUOUS
10
181.314
20
-88.1
11
181.457
21
-87.5286
0
LINE
8
BLACK
6
CONTINUOUS
10
181.457
20
-87.5286
11
181.6
21
-87.2429
0
LINE
8
BLACK
6
CONTINUOUS
10
181.6
20
-87.2429
11
181.743
21
-87.1
0
LINE
8
BLACK
6
CONTINUOUS
10
181.743
20
-87.1
11
182.029
21
-86.9571
0
LINE
8
BLACK
6
CONTINUOUS
10
184.314
20
-89.9571
11
184.314
21
-87.9571
0
LINE
8
BLACK
6
CONTINUOUS
10
184.314
20
-88.2429
11
184.457
21
-88.1
0
LINE
8
BLACK
6
CONTINUOUS
10
184.457
20
-88.1
11
184.743
21
-87.9571
0
LINE
8
BLACK
6
CONTINUOUS
10
184.743
20
-87.9571
11
185.171
21
-87.9571
0
LINE
8
BLACK
6
CONTINUOUS
10
185.171
20
-87.9571
11
185.457
21
-88.1
0
LINE
8
BLACK
6
CONTINUOUS
10
185.457
20
-88.1
11
185.6
21
-88.3857
0
LINE
8
BLACK
6
CONTINUOUS
10
185.6
20
-88.3857
11
185.6
21
-89.9571
0
LINE
8
BLACK
6
CONTINUOUS
10
185.6
20
-88.3857
11
185.743
21
-88.1
0
LINE
8
BLACK
6
CONTINUOUS
10
185.743
20
-88.1
11
186.029
21
-87.9571
0
LINE
8
BLACK
6
CONTINUOUS
10
186.029
20
-87.9571
11
186.457
21
-87.9571
0
LINE
8
BLACK
6
CONTINUOUS
10
186.457
20
-87.9571
11
186.743
21
-88.1
0
LINE
8
BLACK
6
CONTINUOUS
10
186.743
20
-88.1
11
186.886
21
-88.3857
0
LINE
8
BLACK
6
CONTINUOUS
10
186.886
20
-88.3857
11
186.886
21
-89.9571
0
LINE
8
BLACK
6
CONTINUOUS
10
188.314
20
-89.9571
11
188.314
21
-87.9571
0
LINE
8
BLACK
6
CONTINUOUS
10
188.314
20
-88.2429
11
188.457
21
-88.1
0
LINE
8
BLACK
6
CONTINUOUS
10
188.457
20
-88.1
11
188.743
21
-87.9571
0
LINE
8
BLACK
6
CONTINUOUS
10
188.743
20
-87.9571
11
189.171
21
-87.9571
0
LINE
8
BLACK
6
CONTINUOUS
10
189.171
20
-87.9571
11
189.457
21
-88.1
0
LINE
8
BLACK
6
CONTINUOUS
10
189.457
20
-88.1
11
189.6
21
-88.3857
0
LINE
8
BLACK
6
CONTINUOUS
10
189.6
20
-88.3857
11
189.6
21
-89.9571
0
LINE
8
BLACK
6
CONTINUOUS
10
189.6
20
-88.3857
11
189.743
21
-88.1
0
LINE
8
BLACK
6
CONTINUOUS
10
189.743
20
-88.1
11
190.029
21
-87.9571
0
LINE
8
BLACK
6
CONTINUOUS
10
190.029
20
-87.9571
11
190.457
21
-87.9571
0
LINE
8
BLACK
6
CONTINUOUS
10
190.457
20
-87.9571
11
190.743
21
-88.1
0
LINE
8
BLACK
6
CONTINUOUS
10
190.743
20
-88.1
11
190.886
21
-88.3857
0
LINE
8
BLACK
6
CONTINUOUS
10
190.886
20
-88.3857
11
190.886
21
-89.9571
0
LINE
8
BLACK
6
CONTINUOUS
10
196.743
20
-86.8143
11
194.171
21
-90.6714
0
LINE
8
BLACK
6
CONTINUOUS
10
200.6
20
-86.9571
11
200.886
21
-86.9571
0
LINE
8
BLACK
6
CONTINUOUS
10
200.886
20
-86.9571
11
201.171
21
-87.1
0
LINE
8
BLACK
6
CONTINUOUS
10
201.171
20
-87.1
11
201.314
21
-87.2429
0
LINE
8
BLACK
6
CONTINUOUS
10
201.314
20
-87.2429
11
201.457
21
-87.5286
0
LINE
8
BLACK
6
CONTINUOUS
10
201.457
20
-87.5286
11
201.6
21
-88.1
0
LINE
8
BLACK
6
CONTINUOUS
10
201.6
20
-88.1
11
201.6
21
-88.8143
0
LINE
8
BLACK
6
CONTINUOUS
10
201.6
20
-88.8143
11
201.457
21
-89.3857
0
LINE
8
BLACK
6
CONTINUOUS
10
201.457
20
-89.3857
11
201.314
21
-89.6714
0
LINE
8
BLACK
6
CONTINUOUS
10
201.314
20
-89.6714
11
201.171
21
-89.8143
0
LINE
8
BLACK
6
CONTINUOUS
10
201.171
20
-89.8143
11
200.886
21
-89.9571
0
LINE
8
BLACK
6
CONTINUOUS
10
200.886
20
-89.9571
11
200.6
21
-89.9571
0
LINE
8
BLACK
6
CONTINUOUS
10
200.6
20
-89.9571
11
200.314
21
-89.8143
0
LINE
8
BLACK
6
CONTINUOUS
10
200.314
20
-89.8143
11
200.171
21
-89.6714
0
LINE
8
BLACK
6
CONTINUOUS
10
200.171
20
-89.6714
11
200.029
21
-89.3857
0
LINE
8
BLACK
6
CONTINUOUS
10
200.029
20
-89.3857
11
199.886
21
-88.8143
0
LINE
8
BLACK
6
CONTINUOUS
10
199.886
20
-88.8143
11
199.886
21
-88.1
0
LINE
8
BLACK
6
CONTINUOUS
10
199.886
20
-88.1
11
200.029
21
-87.5286
0
LINE
8
BLACK
6
CONTINUOUS
10
200.029
20
-87.5286
11
200.171
21
-87.2429
0
LINE
8
BLACK
6
CONTINUOUS
10
200.171
20
-87.2429
11
200.314
21
-87.1
0
LINE
8
BLACK
6
CONTINUOUS
10
200.314
20
-87.1
11
200.6
21
-86.9571
0
LINE
8
BLACK
6
CONTINUOUS
10
202.886
20
-89.6714
11
203.029
21
-89.8143
0
LINE
8
BLACK
6
CONTINUOUS
10
203.029
20
-89.8143
11
202.886
21
-89.9571
0
LINE
8
BLACK
6
CONTINUOUS
10
202.886
20
-89.9571
11
202.743
21
-89.8143
0
LINE
8
BLACK
6
CONTINUOUS
10
202.743
20
-89.8143
11
202.886
21
-89.6714
0
LINE
8
BLACK
6
CONTINUOUS
10
202.886
20
-89.6714
11
202.886
21
-89.9571
0
LINE
8
BLACK
6
CONTINUOUS
10
204.886
20
-86.9571
11
205.171
21
-86.9571
0
LINE
8
BLACK
6
CONTINUOUS
10
205.171
20
-86.9571
11
205.457
21
-87.1
0
LINE
8
BLACK
6
CONTINUOUS
10
205.457
20
-87.1
11
205.6
21
-87.2429
0
LINE
8
BLACK
6
CONTINUOUS
10
205.6
20
-87.2429
11
205.743
21
-87.5286
0
LINE
8
BLACK
6
CONTINUOUS
10
205.743
20
-87.5286
11
205.886
21
-88.1
0
LINE
8
BLACK
6
CONTINUOUS
10
205.886
20
-88.1
11
205.886
21
-88.8143
0
LINE
8
BLACK
6
CONTINUOUS
10
205.886
20
-88.8143
11
205.743
21
-89.3857
0
LINE
8
BLACK
6
CONTINUOUS
10
205.743
20
-89.3857
11
205.6
21
-89.6714
0
LINE
8
BLACK
6
CONTINUOUS
10
205.6
20
-89.6714
11
205.457
21
-89.8143
0
LINE
8
BLACK
6
CONTINUOUS
10
205.457
20
-89.8143
11
205.171
21
-89.9571
0
LINE
8
BLACK
6
CONTINUOUS
10
205.171
20
-89.9571
11
204.886
21
-89.9571
0
LINE
8
BLACK
6
CONTINUOUS
10
204.886
20
-89.9571
11
204.6
21
-89.8143
0
LINE
8
BLACK
6
CONTINUOUS
10
204.6
20
-89.8143
11
204.457
21
-89.6714
0
LINE
8
BLACK
6
CONTINUOUS
10
204.457
20
-89.6714
11
204.314
21
-89.3857
0
LINE
8
BLACK
6
CONTINUOUS
10
204.314
20
-89.3857
11
204.171
21
-88.8143
0
LINE
8
BLACK
6
CONTINUOUS
10
204.171
20
-88.8143
11
204.171
21
-88.1
0
LINE
8
BLACK
6
CONTINUOUS
10
204.171
20
-88.1
11
204.314
21
-87.5286
0
LINE
8
BLACK
6
CONTINUOUS
10
204.314
20
-87.5286
11
204.457
21
-87.2429
0
LINE
8
BLACK
6
CONTINUOUS
10
204.457
20
-87.2429
11
204.6
21
-87.1
0
LINE
8
BLACK
6
CONTINUOUS
10
204.6
20
-87.1
11
204.886
21
-86.9571
0
LINE
8
BLACK
6
CONTINUOUS
10
208.743
20
-89.9571
11
207.029
21
-89.9571
0
LINE
8
BLACK
6
CONTINUOUS
10
207.886
20
-89.9571
11
207.886
21
-86.9571
0
LINE
8
BLACK
6
CONTINUOUS
10
207.886
20
-86.9571
11
207.6
21
-87.3857
0
LINE
8
BLACK
6
CONTINUOUS
10
207.6
20
-87.3857
11
207.314
21
-87.6714
0
LINE
8
BLACK
6
CONTINUOUS
10
207.314
20
-87.6714
11
207.029
21
-87.8143
0
LINE
8
BLACK
6
CONTINUOUS
10
211.314
20
-86.9571
11
210.743
21
-86.9571
0
LINE
8
BLACK
6
CONTINUOUS
10
210.743
20
-86.9571
11
210.457
21
-87.1
0
LINE
8
BLACK
6
CONTINUOUS
10
210.457
20
-87.1
11
210.314
21
-87.2429
0
LINE
8
BLACK
6
CONTINUOUS
10
210.314
20
-87.2429
11
210.029
21
-87.6714
0
LINE
8
BLACK
6
CONTINUOUS
10
210.029
20
-87.6714
11
209.886
21
-88.2429
0
LINE
8
BLACK
6
CONTINUOUS
10
209.886
20
-88.2429
11
209.886
21
-89.3857
0
LINE
8
BLACK
6
CONTINUOUS
10
209.886
20
-89.3857
11
210.029
21
-89.6714
0
LINE
8
BLACK
6
CONTINUOUS
10
210.029
20
-89.6714
11
210.171
21
-89.8143
0
LINE
8
BLACK
6
CONTINUOUS
10
210.171
20
-89.8143
11
210.457
21
-89.9571
0
LINE
8
BLACK
6
CONTINUOUS
10
210.457
20
-89.9571
11
211.029
21
-89.9571
0
LINE
8
BLACK
6
CONTINUOUS
10
211.029
20
-89.9571
11
211.314
21
-89.8143
0
LINE
8
BLACK
6
CONTINUOUS
10
211.314
20
-89.8143
11
211.457
21
-89.6714
0
LINE
8
BLACK
6
CONTINUOUS
10
211.457
20
-89.6714
11
211.6
21
-89.3857
0
LINE
8
BLACK
6
CONTINUOUS
10
211.6
20
-89.3857
11
211.6
21
-88.6714
0
LINE
8
BLACK
6
CONTINUOUS
10
211.6
20
-88.6714
11
211.457
21
-88.3857
0
LINE
8
BLACK
6
CONTINUOUS
10
211.457
20
-88.3857
11
211.314
21
-88.2429
0
LINE
8
BLACK
6
CONTINUOUS
10
211.314
20
-88.2429
11
211.029
21
-88.1
0
LINE
8
BLACK
6
CONTINUOUS
10
211.029
20
-88.1
11
210.457
21
-88.1
0
LINE
8
BLACK
6
CONTINUOUS
10
210.457
20
-88.1
11
210.171
21
-88.2429
0
LINE
8
BLACK
6
CONTINUOUS
10
210.171
20
-88.2429
11
210.029
21
-88.3857
0
LINE
8
BLACK
6
CONTINUOUS
10
210.029
20
-88.3857
11
209.886
21
-88.6714
0
LINE
8
BLACK
6
CONTINUOUS
10
212.743
20
-86.9571
11
212.743
21
-87.5286
0
LINE
8
BLACK
6
CONTINUOUS
10
213.886
20
-86.9571
11
213.886
21
-87.5286
0
LINE
8
BLACK
6
CONTINUOUS
10
218.314
20
-91.1
11
218.171
21
-90.9571
0
LINE
8
BLACK
6
CONTINUOUS
10
218.171
20
-90.9571
11
217.886
21
-90.5286
0
LINE
8
BLACK
6
CONTINUOUS
10
217.886
20
-90.5286
11
217.743
21
-90.2429
0
LINE
8
BLACK
6
CONTINUOUS
10
217.743
20
-90.2429
11
217.6
21
-89.8143
0
LINE
8
BLACK
6
CONTINUOUS
10
217.6
20
-89.8143
11
217.457
21
-89.1
0
LINE
8
BLACK
6
CONTINUOUS
10
217.457
20
-89.1
11
217.457
21
-88.5286
0
LINE
8
BLACK
6
CONTINUOUS
10
217.457
20
-88.5286
11
217.6
21
-87.8143
0
LINE
8
BLACK
6
CONTINUOUS
10
217.6
20
-87.8143
11
217.743
21
-87.3857
0
LINE
8
BLACK
6
CONTINUOUS
10
217.743
20
-87.3857
11
217.886
21
-87.1
0
LINE
8
BLACK
6
CONTINUOUS
10
217.886
20
-87.1
11
218.171
21
-86.6714
0
LINE
8
BLACK
6
CONTINUOUS
10
218.171
20
-86.6714
11
218.314
21
-86.5286
0
LINE
8
BLACK
6
CONTINUOUS
10
220.743
20
-87.9571
11
220.743
21
-89.9571
0
LINE
8
BLACK
6
CONTINUOUS
10
220.029
20
-86.8143
11
219.314
21
-88.9571
0
LINE
8
BLACK
6
CONTINUOUS
10
219.314
20
-88.9571
11
221.171
21
-88.9571
0
LINE
8
BLACK
6
CONTINUOUS
10
224.6
20
-89.9571
11
224.6
21
-86.9571
0
LINE
8
BLACK
6
CONTINUOUS
10
225.886
20
-89.9571
11
225.886
21
-88.3857
0
LINE
8
BLACK
6
CONTINUOUS
10
225.886
20
-88.3857
11
225.743
21
-88.1
0
LINE
8
BLACK
6
CONTINUOUS
10
225.743
20
-88.1
11
225.457
21
-87.9571
0
LINE
8
BLACK
6
CONTINUOUS
10
225.457
20
-87.9571
11
225.029
21
-87.9571
0
LINE
8
BLACK
6
CONTINUOUS
10
225.029
20
-87.9571
11
224.743
21
-88.1
0
LINE
8
BLACK
6
CONTINUOUS
10
224.743
20
-88.1
11
224.6
21
-88.2429
0
LINE
8
BLACK
6
CONTINUOUS
10
227.743
20
-89.9571
11
227.457
21
-89.8143
0
LINE
8
BLACK
6
CONTINUOUS
10
227.457
20
-89.8143
11
227.314
21
-89.6714
0
LINE
8
BLACK
6
CONTINUOUS
10
227.314
20
-89.6714
11
227.171
21
-89.3857
0
LINE
8
BLACK
6
CONTINUOUS
10
227.171
20
-89.3857
11
227.171
21
-88.5286
0
LINE
8
BLACK
6
CONTINUOUS
10
227.171
20
-88.5286
11
227.314
21
-88.2429
0
LINE
8
BLACK
6
CONTINUOUS
10
227.314
20
-88.2429
11
227.457
21
-88.1
0
LINE
8
BLACK
6
CONTINUOUS
10
227.457
20
-88.1
11
227.743
21
-87.9571
0
LINE
8
BLACK
6
CONTINUOUS
10
227.743
20
-87.9571
11
228.171
21
-87.9571
0
LINE
8
BLACK
6
CONTINUOUS
10
228.171
20
-87.9571
11
228.457
21
-88.1
0
LINE
8
BLACK
6
CONTINUOUS
10
228.457
20
-88.1
11
228.6
21
-88.2429
0
LINE
8
BLACK
6
CONTINUOUS
10
228.6
20
-88.2429
11
228.743
21
-88.5286
0
LINE
8
BLACK
6
CONTINUOUS
10
228.743
20
-88.5286
11
228.743
21
-89.3857
0
LINE
8
BLACK
6
CONTINUOUS
10
228.743
20
-89.3857
11
228.6
21
-89.6714
0
LINE
8
BLACK
6
CONTINUOUS
10
228.6
20
-89.6714
11
228.457
21
-89.8143
0
LINE
8
BLACK
6
CONTINUOUS
10
228.457
20
-89.8143
11
228.171
21
-89.9571
0
LINE
8
BLACK
6
CONTINUOUS
10
228.171
20
-89.9571
11
227.743
21
-89.9571
0
LINE
8
BLACK
6
CONTINUOUS
10
230.457
20
-89.9571
11
230.171
21
-89.8143
0
LINE
8
BLACK
6
CONTINUOUS
10
230.171
20
-89.8143
11
230.029
21
-89.5286
0
LINE
8
BLACK
6
CONTINUOUS
10
230.029
20
-89.5286
11
230.029
21
-86.9571
0
LINE
8
BLACK
6
CONTINUOUS
10
232.743
20
-89.8143
11
232.457
21
-89.9571
0
LINE
8
BLACK
6
CONTINUOUS
10
232.457
20
-89.9571
11
231.886
21
-89.9571
0
LINE
8
BLACK
6
CONTINUOUS
10
231.886
20
-89.9571
11
231.6
21
-89.8143
0
LINE
8
BLACK
6
CONTINUOUS
10
231.6
20
-89.8143
11
231.457
21
-89.5286
0
LINE
8
BLACK
6
CONTINUOUS
10
231.457
20
-89.5286
11
231.457
21
-88.3857
0
LINE
8
BLACK
6
CONTINUOUS
10
231.457
20
-88.3857
11
231.6
21
-88.1
0
LINE
8
BLACK
6
CONTINUOUS
10
231.6
20
-88.1
11
231.886
21
-87.9571
0
LINE
8
BLACK
6
CONTINUOUS
10
231.886
20
-87.9571
11
232.457
21
-87.9571
0
LINE
8
BLACK
6
CONTINUOUS
10
232.457
20
-87.9571
11
232.743
21
-88.1
0
LINE
8
BLACK
6
CONTINUOUS
10
232.743
20
-88.1
11
232.886
21
-88.3857
0
LINE
8
BLACK
6
CONTINUOUS
10
232.886
20
-88.3857
11
232.886
21
-88.6714
0
LINE
8
BLACK
6
CONTINUOUS
10
232.886
20
-88.6714
11
231.457
21
-88.9571
0
LINE
8
BLACK
6
CONTINUOUS
10
234.029
20
-89.8143
11
234.314
21
-89.9571
0
LINE
8
BLACK
6
CONTINUOUS
10
234.314
20
-89.9571
11
234.886
21
-89.9571
0
LINE
8
BLACK
6
CONTINUOUS
10
234.886
20
-89.9571
11
235.171
21
-89.8143
0
LINE
8
BLACK
6
CONTINUOUS
10
235.171
20
-89.8143
11
235.314
21
-89.5286
0
LINE
8
BLACK
6
CONTINUOUS
10
235.314
20
-89.5286
11
235.314
21
-89.3857
0
LINE
8
BLACK
6
CONTINUOUS
10
235.314
20
-89.3857
11
235.171
21
-89.1
0
LINE
8
BLACK
6
CONTINUOUS
10
235.171
20
-89.1
11
234.886
21
-88.9571
0
LINE
8
BLACK
6
CONTINUOUS
10
234.886
20
-88.9571
11
234.457
21
-88.9571
0
LINE
8
BLACK
6
CONTINUOUS
10
234.457
20
-88.9571
11
234.171
21
-88.8143
0
LINE
8
BLACK
6
CONTINUOUS
10
234.171
20
-88.8143
11
234.029
21
-88.5286
0
LINE
8
BLACK
6
CONTINUOUS
10
234.029
20
-88.5286
11
234.029
21
-88.3857
0
LINE
8
BLACK
6
CONTINUOUS
10
234.029
20
-88.3857
11
234.171
21
-88.1
0
LINE
8
BLACK
6
CONTINUOUS
10
234.171
20
-88.1
11
234.457
21
-87.9571
0
LINE
8
BLACK
6
CONTINUOUS
10
234.457
20
-87.9571
11
234.886
21
-87.9571
0
LINE
8
BLACK
6
CONTINUOUS
10
234.886
20
-87.9571
11
235.171
21
-88.1
0
LINE
8
BLACK
6
CONTINUOUS
10
236.314
20
-91.1
11
236.457
21
-90.9571
0
LINE
8
BLACK
6
CONTINUOUS
10
236.457
20
-90.9571
11
236.743
21
-90.5286
0
LINE
8
BLACK
6
CONTINUOUS
10
236.743
20
-90.5286
11
236.886
21
-90.2429
0
LINE
8
BLACK
6
CONTINUOUS
10
236.886
20
-90.2429
11
237.029
21
-89.8143
0
LINE
8
BLACK
6
CONTINUOUS
10
237.029
20
-89.8143
11
237.171
21
-89.1
0
LINE
8
BLACK
6
CONTINUOUS
10
237.171
20
-89.1
11
237.171
21
-88.5286
0
LINE
8
BLACK
6
CONTINUOUS
10
237.171
20
-88.5286
11
237.029
21
-87.8143
0
LINE
8
BLACK
6
CONTINUOUS
10
237.029
20
-87.8143
11
236.886
21
-87.3857
0
LINE
8
BLACK
6
CONTINUOUS
10
236.886
20
-87.3857
11
236.743
21
-87.1
0
LINE
8
BLACK
6
CONTINUOUS
10
236.743
20
-87.1
11
236.457
21
-86.6714
0
LINE
8
BLACK
6
CONTINUOUS
10
236.457
20
-86.6714
11
236.314
21
-86.5286
0
CIRCLE
8
BLACK
10
171.1
20
-92.56
40
0.35
0
LINE
8
BLACK
6
CONTINUOUS
10
174.886
20
-90.9171
11
175.171
21
-90.9171
0
LINE
8
BLACK
6
CONTINUOUS
10
175.171
20
-90.9171
11
175.457
21
-91.06
0
LINE
8
BLACK
6
CONTINUOUS
10
175.457
20
-91.06
11
175.6
21
-91.2029
0
LINE
8
BLACK
6
CONTINUOUS
10
175.6
20
-91.2029
11
175.743
21
-91.4886
0
LINE
8
BLACK
6
CONTINUOUS
10
175.743
20
-91.4886
11
175.886
21
-92.06
0
LINE
8
BLACK
6
CONTINUOUS
10
175.886
20
-92.06
11
175.886
21
-92.7743
0
LINE
8
BLACK
6
CONTINUOUS
10
175.886
20
-92.7743
11
175.743
21
-93.3457
0
LINE
8
BLACK
6
CONTINUOUS
10
175.743
20
-93.3457
11
175.6
21
-93.6314
0
LINE
8
BLACK
6
CONTINUOUS
10
175.6
20
-93.6314
11
175.457
21
-93.7743
0
LINE
8
BLACK
6
CONTINUOUS
10
175.457
20
-93.7743
11
175.171
21
-93.9171
0
LINE
8
BLACK
6
CONTINUOUS
10
175.171
20
-93.9171
11
174.886
21
-93.9171
0
LINE
8
BLACK
6
CONTINUOUS
10
174.886
20
-93.9171
11
174.6
21
-93.7743
0
LINE
8
BLACK
6
CONTINUOUS
10
174.6
20
-93.7743
11
174.457
21
-93.6314
0
LINE
8
BLACK
6
CONTINUOUS
10
174.457
20
-93.6314
11
174.314
21
-93.3457
0
LINE
8
BLACK
6
CONTINUOUS
10
174.314
20
-93.3457
11
174.171
21
-92.7743
0
LINE
8
BLACK
6
CONTINUOUS
10
174.171
20
-92.7743
11
174.171
21
-92.06
0
LINE
8
BLACK
6
CONTINUOUS
10
174.171
20
-92.06
11
174.314
21
-91.4886
0
LINE
8
BLACK
6
CONTINUOUS
10
174.314
20
-91.4886
11
174.457
21
-91.2029
0
LINE
8
BLACK
6
CONTINUOUS
10
174.457
20
-91.2029
11
174.6
21
-91.06
0
LINE
8
BLACK
6
CONTINUOUS
10
174.6
20
-91.06
11
174.886
21
-90.9171
0
LINE
8
BLACK
6
CONTINUOUS
10
177.171
20
-93.6314
11
177.314
21
-93.7743
0
LINE
8
BLACK
6
CONTINUOUS
10
177.314
20
-93.7743
11
177.171
21
-93.9171
0
LINE
8
BLACK
6
CONTINUOUS
10
177.171
20
-93.9171
11
177.029
21
-93.7743
0
LINE
8
BLACK
6
CONTINUOUS
10
177.029
20
-93.7743
11
177.171
21
-93.6314
0
LINE
8
BLACK
6
CONTINUOUS
10
177.171
20
-93.6314
11
177.171
21
-93.9171
0
LINE
8
BLACK
6
CONTINUOUS
10
178.314
20
-90.9171
11
180.314
21
-90.9171
0
LINE
8
BLACK
6
CONTINUOUS
10
180.314
20
-90.9171
11
179.029
21
-93.9171
0
LINE
8
BLACK
6
CONTINUOUS
10
182.029
20
-90.9171
11
182.314
21
-90.9171
0
LINE
8
BLACK
6
CONTINUOUS
10
182.314
20
-90.9171
11
182.6
21
-91.06
0
LINE
8
BLACK
6
CONTINUOUS
10
182.6
20
-91.06
11
182.743
21
-91.2029
0
LINE
8
BLACK
6
CONTINUOUS
10
182.743
20
-91.2029
11
182.886
21
-91.4886
0
LINE
8
BLACK
6
CONTINUOUS
10
182.886
20
-91.4886
11
183.029
21
-92.06
0
LINE
8
BLACK
6
CONTINUOUS
10
183.029
20
-92.06
11
183.029
21
-92.7743
0
LINE
8
BLACK
6
CONTINUOUS
10
183.029
20
-92.7743
11
182.886
21
-93.3457
0
LINE
8
BLACK
6
CONTINUOUS
10
182.886
20
-93.3457
11
182.743
21
-93.6314
0
LINE
8
BLACK
6
CONTINUOUS
10
182.743
20
-93.6314
11
182.6
21
-93.7743
0
LINE
8
BLACK
6
CONTINUOUS
10
182.6
20
-93.7743
11
182.314
21
-93.9171
0
LINE
8
BLACK
6
CONTINUOUS
10
182.314
20
-93.9171
11
182.029
21
-93.9171
0
LINE
8
BLACK
6
CONTINUOUS
10
182.029
20
-93.9171
11
181.743
21
-93.7743
0
LINE
8
BLACK
6
CONTINUOUS
10
181.743
20
-93.7743
11
181.6
21
-93.6314
0
LINE
8
BLACK
6
CONTINUOUS
10
181.6
20
-93.6314
11
181.457
21
-93.3457
0
LINE
8
BLACK
6
CONTINUOUS
10
181.457
20
-93.3457
11
181.314
21
-92.7743
0
LINE
8
BLACK
6
CONTINUOUS
10
181.314
20
-92.7743
11
181.314
21
-92.06
0
LINE
8
BLACK
6
CONTINUOUS
10
181.314
20
-92.06
11
181.457
21
-91.4886
0
LINE
8
BLACK
6
CONTINUOUS
10
181.457
20
-91.4886
11
181.6
21
-91.2029
0
LINE
8
BLACK
6
CONTINUOUS
10
181.6
20
-91.2029
11
181.743
21
-91.06
0
LINE
8
BLACK
6
CONTINUOUS
10
181.743
20
-91.06
11
182.029
21
-90.9171
0
LINE
8
BLACK
6
CONTINUOUS
10
184.314
20
-93.9171
11
184.314
21
-91.9171
0
LINE
8
BLACK
6
CONTINUOUS
10
184.314
20
-92.2029
11
184.457
21
-92.06
0
LINE
8
BLACK
6
CONTINUOUS
10
184.457
20
-92.06
11
184.743
21
-91.9171
0
LINE
8
BLACK
6
CONTINUOUS
10
184.743
20
-91.9171
11
185.171
21
-91.9171
0
LINE
8
BLACK
6
CONTINUOUS
10
185.171
20
-91.9171
11
185.457
21
-92.06
0
LINE
8
BLACK
6
CONTINUOUS
10
185.457
20
-92.06
11
185.6
21
-92.3457
0
LINE
8
BLACK
6
CONTINUOUS
10
185.6
20
-92.3457
11
185.6
21
-93.9171
0
LINE
8
BLACK
6
CONTINUOUS
10
185.6
20
-92.3457
11
185.743
21
-92.06
0
LINE
8
BLACK
6
CONTINUOUS
10
185.743
20
-92.06
11
186.029
21
-91.9171
0
LINE
8
BLACK
6
CONTINUOUS
10
186.029
20
-91.9171
11
186.457
21
-91.9171
0
LINE
8
BLACK
6
CONTINUOUS
10
186.457
20
-91.9171
11
186.743
21
-92.06
0
LINE
8
BLACK
6
CONTINUOUS
10
186.743
20
-92.06
11
186.886
21
-92.3457
0
LINE
8
BLACK
6
CONTINUOUS
10
186.886
20
-92.3457
11
186.886
21
-93.9171
0
LINE
8
BLACK
6
CONTINUOUS
10
188.314
20
-93.9171
11
188.314
21
-91.9171
0
LINE
8
BLACK
6
CONTINUOUS
10
188.314
20
-92.2029
11
188.457
21
-92.06
0
LINE
8
BLACK
6
CONTINUOUS
10
188.457
20
-92.06
11
188.743
21
-91.9171
0
LINE
8
BLACK
6
CONTINUOUS
10
188.743
20
-91.9171
11
189.171
21
-91.9171
0
LINE
8
BLACK
6
CONTINUOUS
10
189.171
20
-91.9171
11
189.457
21
-92.06
0
LINE
8
BLACK
6
CONTINUOUS
10
189.457
20
-92.06
11
189.6
21
-92.3457
0
LINE
8
BLACK
6
CONTINUOUS
10
189.6
20
-92.3457
11
189.6
21
-93.9171
0
LINE
8
BLACK
6
CONTINUOUS
10
189.6
20
-92.3457
11
189.743
21
-92.06
0
LINE
8
BLACK
6
CONTINUOUS
10
189.743
20
-92.06
11
190.029
21
-91.9171
0
LINE
8
BLACK
6
CONTINUOUS
10
190.029
20
-91.9171
11
190.457
21
-91.9171
0
LINE
8
BLACK
6
CONTINUOUS
10
190.457
20
-91.9171
11
190.743
21
-92.06
0
LINE
8
BLACK
6
CONTINUOUS
10
190.743
20
-92.06
11
190.886
21
-92.3457
0
LINE
8
BLACK
6
CONTINUOUS
10
190.886
20
-92.3457
11
190.886
21
-93.9171
0
LINE
8
BLACK
6
CONTINUOUS
10
196.743
20
-90.7743
11
194.171
21
-94.6314
0
LINE
8
BLACK
6
CONTINUOUS
10
200.6
20
-90.9171
11
200.886
21
-90.9171
0
LINE
8
BLACK
6
CONTINUOUS
10
200.886
20
-90.9171
11
201.171
21
-91.06
0
LINE
8
BLACK
6
CONTINUOUS
10
201.171
20
-91.06
11
201.314
21
-91.2029
0
LINE
8
BLACK
6
CONTINUOUS
10
201.314
20
-91.2029
11
201.457
21
-91.4886
0
LINE
8
BLACK
6
CONTINUOUS
10
201.457
20
-91.4886
11
201.6
21
-92.06
0
LINE
8
BLACK
6
CONTINUOUS
10
201.6
20
-92.06
11
201.6
21
-92.7743
0
LINE
8
BLACK
6
CONTINUOUS
10
201.6
20
-92.7743
11
201.457
21
-93.3457
0
LINE
8
BLACK
6
CONTINUOUS
10
201.457
20
-93.3457
11
201.314
21
-93.6314
0
LINE
8
BLACK
6
CONTINUOUS
10
201.314
20
-93.6314
11
201.171
21
-93.7743
0
LINE
8
BLACK
6
CONTINUOUS
10
201.171
20
-93.7743
11
200.886
21
-93.9171
0
LINE
8
BLACK
6
CONTINUOUS
10
200.886
20
-93.9171
11
200.6
21
-93.9171
0
LINE
8
BLACK
6
CONTINUOUS
10
200.6
20
-93.9171
11
200.314
21
-93.7743
0
LINE
8
BLACK
6
CONTINUOUS
10
200.314
20
-93.7743
11
200.171
21
-93.6314
0
LINE
8
BLACK
6
CONTINUOUS
10
200.171
20
-93.6314
11
200.029
21
-93.3457
0
LINE
8
BLACK
6
CONTINUOUS
10
200.029
20
-93.3457
11
199.886
21
-92.7743
0
LINE
8
BLACK
6
CONTINUOUS
10
199.886
20
-92.7743
11
199.886
21
-92.06
0
LINE
8
BLACK
6
CONTINUOUS
10
199.886
20
-92.06
11
200.029
21
-91.4886
0
LINE
8
BLACK
6
CONTINUOUS
10
200.029
20
-91.4886
11
200.171
21
-91.2029
0
LINE
8
BLACK
6
CONTINUOUS
10
200.171
20
-91.2029
11
200.314
21
-91.06
0
LINE
8
BLACK
6
CONTINUOUS
10
200.314
20
-91.06
11
200.6
21
-90.9171
0
LINE
8
BLACK
6
CONTINUOUS
10
202.886
20
-93.6314
11
203.029
21
-93.7743
0
LINE
8
BLACK
6
CONTINUOUS
10
203.029
20
-93.7743
11
202.886
21
-93.9171
0
LINE
8
BLACK
6
CONTINUOUS
10
202.886
20
-93.9171
11
202.743
21
-93.7743
0
LINE
8
BLACK
6
CONTINUOUS
10
202.743
20
-93.7743
11
202.886
21
-93.6314
0
LINE
8
BLACK
6
CONTINUOUS
10
202.886
20
-93.6314
11
202.886
21
-93.9171
0
LINE
8
BLACK
6
CONTINUOUS
10
204.886
20
-90.9171
11
205.171
21
-90.9171
0
LINE
8
BLACK
6
CONTINUOUS
10
205.171
20
-90.9171
11
205.457
21
-91.06
0
LINE
8
BLACK
6
CONTINUOUS
10
205.457
20
-91.06
11
205.6
21
-91.2029
0
LINE
8
BLACK
6
CONTINUOUS
10
205.6
20
-91.2029
11
205.743
21
-91.4886
0
LINE
8
BLACK
6
CONTINUOUS
10
205.743
20
-91.4886
11
205.886
21
-92.06
0
LINE
8
BLACK
6
CONTINUOUS
10
205.886
20
-92.06
11
205.886
21
-92.7743
0
LINE
8
BLACK
6
CONTINUOUS
10
205.886
20
-92.7743
11
205.743
21
-93.3457
0
LINE
8
BLACK
6
CONTINUOUS
10
205.743
20
-93.3457
11
205.6
21
-93.6314
0
LINE
8
BLACK
6
CONTINUOUS
10
205.6
20
-93.6314
11
205.457
21
-93.7743
0
LINE
8
BLACK
6
CONTINUOUS
10
205.457
20
-93.7743
11
205.171
21
-93.9171
0
LINE
8
BLACK
6
CONTINUOUS
10
205.171
20
-93.9171
11
204.886
21
-93.9171
0
LINE
8
BLACK
6
CONTINUOUS
10
204.886
20
-93.9171
11
204.6
21
-93.7743
0
LINE
8
BLACK
6
CONTINUOUS
10
204.6
20
-93.7743
11
204.457
21
-93.6314
0
LINE
8
BLACK
6
CONTINUOUS
10
204.457
20
-93.6314
11
204.314
21
-93.3457
0
LINE
8
BLACK
6
CONTINUOUS
10
204.314
20
-93.3457
11
204.171
21
-92.7743
0
LINE
8
BLACK
6
CONTINUOUS
10
204.171
20
-92.7743
11
204.171
21
-92.06
0
LINE
8
BLACK
6
CONTINUOUS
10
204.171
20
-92.06
11
204.314
21
-91.4886
0
LINE
8
BLACK
6
CONTINUOUS
10
204.314
20
-91.4886
11
204.457
21
-91.2029
0
LINE
8
BLACK
6
CONTINUOUS
10
204.457
20
-91.2029
11
204.6
21
-91.06
0
LINE
8
BLACK
6
CONTINUOUS
10
204.6
20
-91.06
11
204.886
21
-90.9171
0
LINE
8
BLACK
6
CONTINUOUS
10
207.029
20
-91.2029
11
207.171
21
-91.06
0
LINE
8
BLACK
6
CONTINUOUS
10
207.171
20
-91.06
11
207.457
21
-90.9171
0
LINE
8
BLACK
6
CONTINUOUS
10
207.457
20
-90.9171
11
208.171
21
-90.9171
0
LINE
8
BLACK
6
CONTINUOUS
10
208.171
20
-90.9171
11
208.457
21
-91.06
0
LINE
8
BLACK
6
CONTINUOUS
10
208.457
20
-91.06
11
208.6
21
-91.2029
0
LINE
8
BLACK
6
CONTINUOUS
10
208.6
20
-91.2029
11
208.743
21
-91.4886
0
LINE
8
BLACK
6
CONTINUOUS
10
208.743
20
-91.4886
11
208.743
21
-91.7743
0
LINE
8
BLACK
6
CONTINUOUS
10
208.743
20
-91.7743
11
208.6
21
-92.2029
0
LINE
8
BLACK
6
CONTINUOUS
10
208.6
20
-92.2029
11
206.886
21
-93.9171
0
LINE
8
BLACK
6
CONTINUOUS
10
206.886
20
-93.9171
11
208.743
21
-93.9171
0
LINE
8
BLACK
6
CONTINUOUS
10
210.457
20
-92.2029
11
210.171
21
-92.06
0
LINE
8
BLACK
6
CONTINUOUS
10
210.171
20
-92.06
11
210.029
21
-91.9171
0
LINE
8
BLACK
6
CONTINUOUS
10
210.029
20
-91.9171
11
209.886
21
-91.6314
0
LINE
8
BLACK
6
CONTINUOUS
10
209.886
20
-91.6314
11
209.886
21
-91.4886
0
LINE
8
BLACK
6
CONTINUOUS
10
209.886
20
-91.4886
11
210.029
21
-91.2029
0
LINE
8
BLACK
6
CONTINUOUS
10
210.029
20
-91.2029
11
210.171
21
-91.06
0
LINE
8
BLACK
6
CONTINUOUS
10
210.171
20
-91.06
11
210.457
21
-90.9171
0
LINE
8
BLACK
6
CONTINUOUS
10
210.457
20
-90.9171
11
211.029
21
-90.9171
0
LINE
8
BLACK
6
CONTINUOUS
10
211.029
20
-90.9171
11
211.314
21
-91.06
0
LINE
8
BLACK
6
CONTINUOUS
10
211.314
20
-91.06
11
211.457
21
-91.2029
0
LINE
8
BLACK
6
CONTINUOUS
10
211.457
20
-91.2029
11
211.6
21
-91.4886
0
LINE
8
BLACK
6
CONTINUOUS
10
211.6
20
-91.4886
11
211.6
21
-91.6314
0
LINE
8
BLACK
6
CONTINUOUS
10
211.6
20
-91.6314
11
211.457
21
-91.9171
0
LINE
8
BLACK
6
CONTINUOUS
10
211.457
20
-91.9171
11
211.314
21
-92.06
0
LINE
8
BLACK
6
CONTINUOUS
10
211.314
20
-92.06
11
211.029
21
-92.2029
0
LINE
8
BLACK
6
CONTINUOUS
10
211.029
20
-92.2029
11
210.457
21
-92.2029
0
LINE
8
BLACK
6
CONTINUOUS
10
210.457
20
-92.2029
11
210.171
21
-92.3457
0
LINE
8
BLACK
6
CONTINUOUS
10
210.171
20
-92.3457
11
210.029
21
-92.4886
0
LINE
8
BLACK
6
CONTINUOUS
10
210.029
20
-92.4886
11
209.886
21
-92.7743
0
LINE
8
BLACK
6
CONTINUOUS
10
209.886
20
-92.7743
11
209.886
21
-93.3457
0
LINE
8
BLACK
6
CONTINUOUS
10
209.886
20
-93.3457
11
210.029
21
-93.6314
0
LINE
8
BLACK
6
CONTINUOUS
10
210.029
20
-93.6314
11
210.171
21
-93.7743
0
LINE
8
BLACK
6
CONTINUOUS
10
210.171
20
-93.7743
11
210.457
21
-93.9171
0
LINE
8
BLACK
6
CONTINUOUS
10
210.457
20
-93.9171
11
211.029
21
-93.9171
0
LINE
8
BLACK
6
CONTINUOUS
10
211.029
20
-93.9171
11
211.314
21
-93.7743
0
LINE
8
BLACK
6
CONTINUOUS
10
211.314
20
-93.7743
11
211.457
21
-93.6314
0
LINE
8
BLACK
6
CONTINUOUS
10
211.457
20
-93.6314
11
211.6
21
-93.3457
0
LINE
8
BLACK
6
CONTINUOUS
10
211.6
20
-93.3457
11
211.6
21
-92.7743
0
LINE
8
BLACK
6
CONTINUOUS
10
211.6
20
-92.7743
11
211.457
21
-92.4886
0
LINE
8
BLACK
6
CONTINUOUS
10
211.457
20
-92.4886
11
211.314
21
-92.3457
0
LINE
8
BLACK
6
CONTINUOUS
10
211.314
20
-92.3457
11
211.029
21
-92.2029
0
LINE
8
BLACK
6
CONTINUOUS
10
212.743
20
-90.9171
11
212.743
21
-91.4886
0
LINE
8
BLACK
6
CONTINUOUS
10
213.886
20
-90.9171
11
213.886
21
-91.4886
0
LINE
8
BLACK
6
CONTINUOUS
10
218.314
20
-95.06
11
218.171
21
-94.9171
0
LINE
8
BLACK
6
CONTINUOUS
10
218.171
20
-94.9171
11
217.886
21
-94.4886
0
LINE
8
BLACK
6
CONTINUOUS
10
217.886
20
-94.4886
11
217.743
21
-94.2029
0
LINE
8
BLACK
6
CONTINUOUS
10
217.743
20
-94.2029
11
217.6
21
-93.7743
0
LINE
8
BLACK
6
CONTINUOUS
10
217.6
20
-93.7743
11
217.457
21
-93.06
0
LINE
8
BLACK
6
CONTINUOUS
10
217.457
20
-93.06
11
217.457
21
-92.4886
0
LINE
8
BLACK
6
CONTINUOUS
10
217.457
20
-92.4886
11
217.6
21
-91.7743
0
LINE
8
BLACK
6
CONTINUOUS
10
217.6
20
-91.7743
11
217.743
21
-91.3457
0
LINE
8
BLACK
6
CONTINUOUS
10
217.743
20
-91.3457
11
217.886
21
-91.06
0
LINE
8
BLACK
6
CONTINUOUS
10
217.886
20
-91.06
11
218.171
21
-90.6314
0
LINE
8
BLACK
6
CONTINUOUS
10
218.171
20
-90.6314
11
218.314
21
-90.4886
0
LINE
8
BLACK
6
CONTINUOUS
10
221.029
20
-93.9171
11
219.314
21
-93.9171
0
LINE
8
BLACK
6
CONTINUOUS
10
220.171
20
-93.9171
11
220.171
21
-90.9171
0
LINE
8
BLACK
6
CONTINUOUS
10
220.171
20
-90.9171
11
219.886
21
-91.3457
0
LINE
8
BLACK
6
CONTINUOUS
10
219.886
20
-91.3457
11
219.6
21
-91.6314
0
LINE
8
BLACK
6
CONTINUOUS
10
219.6
20
-91.6314
11
219.314
21
-91.7743
0
LINE
8
BLACK
6
CONTINUOUS
10
222.171
20
-91.2029
11
222.314
21
-91.06
0
LINE
8
BLACK
6
CONTINUOUS
10
222.314
20
-91.06
11
222.6
21
-90.9171
0
LINE
8
BLACK
6
CONTINUOUS
10
222.6
20
-90.9171
11
223.314
21
-90.9171
0
LINE
8
BLACK
6
CONTINUOUS
10
223.314
20
-90.9171
11
223.6
21
-91.06
0
LINE
8
BLACK
6
CONTINUOUS
10
223.6
20
-91.06
11
223.743
21
-91.2029
0
LINE
8
BLACK
6
CONTINUOUS
10
223.743
20
-91.2029
11
223.886
21
-91.4886
0
LINE
8
BLACK
6
CONTINUOUS
10
223.886
20
-91.4886
11
223.886
21
-91.7743
0
LINE
8
BLACK
6
CONTINUOUS
10
223.886
20
-91.7743
11
223.743
21
-92.2029
0
LINE
8
BLACK
6
CONTINUOUS
10
223.743
20
-92.2029
11
222.029
21
-93.9171
0
LINE
8
BLACK
6
CONTINUOUS
10
222.029
20
-93.9171
11
223.886
21
-93.9171
0
LINE
8
BLACK
6
CONTINUOUS
10
227.457
20
-93.9171
11
227.457
21
-90.9171
0
LINE
8
BLACK
6
CONTINUOUS
10
228.743
20
-93.9171
11
228.743
21
-92.3457
0
LINE
8
BLACK
6
CONTINUOUS
10
228.743
20
-92.3457
11
228.6
21
-92.06
0
LINE
8
BLACK
6
CONTINUOUS
10
228.6
20
-92.06
11
228.314
21
-91.9171
0
LINE
8
BLACK
6
CONTINUOUS
10
228.314
20
-91.9171
11
227.886
21
-91.9171
0
LINE
8
BLACK
6
CONTINUOUS
10
227.886
20
-91.9171
11
227.6
21
-92.06
0
LINE
8
BLACK
6
CONTINUOUS
10
227.6
20
-92.06
11
227.457
21
-92.2029
0
LINE
8
BLACK
6
CONTINUOUS
10
230.6
20
-93.9171
11
230.314
21
-93.7743
0
LINE
8
BLACK
6
CONTINUOUS
10
230.314
20
-93.7743
11
230.171
21
-93.6314
0
LINE
8
BLACK
6
CONTINUOUS
10
230.171
20
-93.6314
11
230.029
21
-93.3457
0
LINE
8
BLACK
6
CONTINUOUS
10
230.029
20
-93.3457
11
230.029
21
-92.4886
0
LINE
8
BLACK
6
CONTINUOUS
10
230.029
20
-92.4886
11
230.171
21
-92.2029
0
LINE
8
BLACK
6
CONTINUOUS
10
230.171
20
-92.2029
11
230.314
21
-92.06
0
LINE
8
BLACK
6
CONTINUOUS
10
230.314
20
-92.06
11
230.6
21
-91.9171
0
LINE
8
BLACK
6
CONTINUOUS
10
230.6
20
-91.9171
11
231.029
21
-91.9171
0
LINE
8
BLACK
6
CONTINUOUS
10
231.029
20
-91.9171
11
231.314
21
-92.06
0
LINE
8
BLACK
6
CONTINUOUS
10
231.314
20
-92.06
11
231.457
21
-92.2029
0
LINE
8
BLACK
6
CONTINUOUS
10
231.457
20
-92.2029
11
231.6
21
-92.4886
0
LINE
8
BLACK
6
CONTINUOUS
10
231.6
20
-92.4886
11
231.6
21
-93.3457
0
LINE
8
BLACK
6
CONTINUOUS
10
231.6
20
-93.3457
11
231.457
21
-93.6314
0
LINE
8
BLACK
6
CONTINUOUS
10
231.457
20
-93.6314
11
231.314
21
-93.7743
0
LINE
8
BLACK
6
CONTINUOUS
10
231.314
20
-93.7743
11
231.029
21
-93.9171
0
LINE
8
BLACK
6
CONTINUOUS
10
231.029
20
-93.9171
11
230.6
21
-93.9171
0
LINE
8
BLACK
6
CONTINUOUS
10
233.314
20
-93.9171
11
233.029
21
-93.7743
0
LINE
8
BLACK
6
CONTINUOUS
10
233.029
20
-93.7743
11
232.886
21
-93.4886
0
LINE
8
BLACK
6
CONTINUOUS
10
232.886
20
-93.4886
11
232.886
21
-90.9171
0
LINE
8
BLACK
6
CONTINUOUS
10
235.6
20
-93.7743
11
235.314
21
-93.9171
0
LINE
8
BLACK
6
CONTINUOUS
10
235.314
20
-93.9171
11
234.743
21
-93.9171
0
LINE
8
BLACK
6
CONTINUOUS
10
234.743
20
-93.9171
11
234.457
21
-93.7743
0
LINE
8
BLACK
6
CONTINUOUS
10
234.457
20
-93.7743
11
234.314
21
-93.4886
0
LINE
8
BLACK
6
CONTINUOUS
10
234.314
20
-93.4886
11
234.314
21
-92.3457
0
LINE
8
BLACK
6
CONTINUOUS
10
234.314
20
-92.3457
11
234.457
21
-92.06
0
LINE
8
BLACK
6
CONTINUOUS
10
234.457
20
-92.06
11
234.743
21
-91.9171
0
LINE
8
BLACK
6
CONTINUOUS
10
234.743
20
-91.9171
11
235.314
21
-91.9171
0
LINE
8
BLACK
6
CONTINUOUS
10
235.314
20
-91.9171
11
235.6
21
-92.06
0
LINE
8
BLACK
6
CONTINUOUS
10
235.6
20
-92.06
11
235.743
21
-92.3457
0
LINE
8
BLACK
6
CONTINUOUS
10
235.743
20
-92.3457
11
235.743
21
-92.6314
0
LINE
8
BLACK
6
CONTINUOUS
10
235.743
20
-92.6314
11
234.314
21
-92.9171
0
LINE
8
BLACK
6
CONTINUOUS
10
236.886
20
-93.7743
11
237.171
21
-93.9171
0
LINE
8
BLACK
6
CONTINUOUS
10
237.171
20
-93.9171
11
237.743
21
-93.9171
0
LINE
8
BLACK
6
CONTINUOUS
10
237.743
20
-93.9171
11
238.029
21
-93.7743
0
LINE
8
BLACK
6
CONTINUOUS
10
238.029
20
-93.7743
11
238.171
21
-93.4886
0
LINE
8
BLACK
6
CONTINUOUS
10
238.171
20
-93.4886
11
238.171
21
-93.3457
0
LINE
8
BLACK
6
CONTINUOUS
10
238.171
20
-93.3457
11
238.029
21
-93.06
0
LINE
8
BLACK
6
CONTINUOUS
10
238.029
20
-93.06
11
237.743
21
-92.9171
0
LINE
8
BLACK
6
CONTINUOUS
10
237.743
20
-92.9171
11
237.314
21
-92.9171
0
LINE
8
BLACK
6
CONTINUOUS
10
237.314
20
-92.9171
11
237.029
21
-92.7743
0
LINE
8
BLACK
6
CONTINUOUS
10
237.029
20
-92.7743
11
236.886
21
-92.4886
0
LINE
8
BLACK
6
CONTINUOUS
10
236.886
20
-92.4886
11
236.886
21
-92.3457
0
LINE
8
BLACK
6
CONTINUOUS
10
236.886
20
-92.3457
11
237.029
21
-92.06
0
LINE
8
BLACK
6
CONTINUOUS
10
237.029
20
-92.06
11
237.314
21
-91.9171
0
LINE
8
BLACK
6
CONTINUOUS
10
237.314
20
-91.9171
11
237.743
21
-91.9171
0
LINE
8
BLACK
6
CONTINUOUS
10
237.743
20
-91.9171
11
238.029
21
-92.06
0
LINE
8
BLACK
6
CONTINUOUS
10
239.171
20
-95.06
11
239.314
21
-94.9171
0
LINE
8
BLACK
6
CONTINUOUS
10
239.314
20
-94.9171
11
239.6
21
-94.4886
0
LINE
8
BLACK
6
CONTINUOUS
10
239.6
20
-94.4886
11
239.743
21
-94.2029
0
LINE
8
BLACK
6
CONTINUOUS
10
239.743
20
-94.2029
11
239.886
21
-93.7743
0
LINE
8
BLACK
6
CONTINUOUS
10
239.886
20
-93.7743
11
240.029
21
-93.06
0
LINE
8
BLACK
6
CONTINUOUS
10
240.029
20
-93.06
11
240.029
21
-92.4886
0
LINE
8
BLACK
6
CONTINUOUS
10
240.029
20
-92.4886
11
239.886
21
-91.7743
0
LINE
8
BLACK
6
CONTINUOUS
10
239.886
20
-91.7743
11
239.743
21
-91.3457
0
LINE
8
BLACK
6
CONTINUOUS
10
239.743
20
-91.3457
11
239.6
21
-91.06
0
LINE
8
BLACK
6
CONTINUOUS
10
239.6
20
-91.06
11
239.314
21
-90.6314
0
LINE
8
BLACK
6
CONTINUOUS
10
239.314
20
-90.6314
11
239.171
21
-90.4886
0
LINE
8
BLACK
6
CONTINUOUS
10
171.075
20
-96.145
11
171.075
21
-96.895
0
LINE
8
BLACK
6
CONTINUOUS
10
170.7
20
-96.52
11
171.45
21
-96.52
0
LINE
8
BLACK
6
CONTINUOUS
10
174.886
20
-94.8771
11
175.171
21
-94.8771
0
LINE
8
BLACK
6
CONTINUOUS
10
175.171
20
-94.8771
11
175.457
21
-95.02
0
LINE
8
BLACK
6
CONTINUOUS
10
175.457
20
-95.02
11
175.6
21
-95.1629
0
LINE
8
BLACK
6
CONTINUOUS
10
175.6
20
-95.1629
11
175.743
21
-95.4486
0
LINE
8
BLACK
6
CONTINUOUS
10
175.743
20
-95.4486
11
175.886
21
-96.02
0
LINE
8
BLACK
6
CONTINUOUS
10
175.886
20
-96.02
11
175.886
21
-96.7343
0
LINE
8
BLACK
6
CONTINUOUS
10
175.886
20
-96.7343
11
175.743
21
-97.3057
0
LINE
8
BLACK
6
CONTINUOUS
10
175.743
20
-97.3057
11
175.6
21
-97.5914
0
LINE
8
BLACK
6
CONTINUOUS
10
175.6
20
-97.5914
11
175.457
21
-97.7343
0
LINE
8
BLACK
6
CONTINUOUS
10
175.457
20
-97.7343
11
175.171
21
-97.8771
0
LINE
8
BLACK
6
CONTINUOUS
10
175.171
20
-97.8771
11
174.886
21
-97.8771
0
LINE
8
BLACK
6
CONTINUOUS
10
174.886
20
-97.8771
11
174.6
21
-97.7343
0
LINE
8
BLACK
6
CONTINUOUS
10
174.6
20
-97.7343
11
174.457
21
-97.5914
0
LINE
8
BLACK
6
CONTINUOUS
10
174.457
20
-97.5914
11
174.314
21
-97.3057
0
LINE
8
BLACK
6
CONTINUOUS
10
174.314
20
-97.3057
11
174.171
21
-96.7343
0
LINE
8
BLACK
6
CONTINUOUS
10
174.171
20
-96.7343
11
174.171
21
-96.02
0
LINE
8
BLACK
6
CONTINUOUS
10
174.171
20
-96.02
11
174.314
21
-95.4486
0
LINE
8
BLACK
6
CONTINUOUS
10
174.314
20
-95.4486
11
174.457
21
-95.1629
0
LINE
8
BLACK
6
CONTINUOUS
10
174.457
20
-95.1629
11
174.6
21
-95.02
0
LINE
8
BLACK
6
CONTINUOUS
10
174.6
20
-95.02
11
174.886
21
-94.8771
0
LINE
8
BLACK
6
CONTINUOUS
10
177.171
20
-97.5914
11
177.314
21
-97.7343
0
LINE
8
BLACK
6
CONTINUOUS
10
177.314
20
-97.7343
11
177.171
21
-97.8771
0
LINE
8
BLACK
6
CONTINUOUS
10
177.171
20
-97.8771
11
177.029
21
-97.7343
0
LINE
8
BLACK
6
CONTINUOUS
10
177.029
20
-97.7343
11
177.171
21
-97.5914
0
LINE
8
BLACK
6
CONTINUOUS
10
177.171
20
-97.5914
11
177.171
21
-97.8771
0
LINE
8
BLACK
6
CONTINUOUS
10
178.314
20
-94.8771
11
180.314
21
-94.8771
0
LINE
8
BLACK
6
CONTINUOUS
10
180.314
20
-94.8771
11
179.029
21
-97.8771
0
LINE
8
BLACK
6
CONTINUOUS
10
182.886
20
-94.8771
11
181.457
21
-94.8771
0
LINE
8
BLACK
6
CONTINUOUS
10
181.457
20
-94.8771
11
181.314
21
-96.3057
0
LINE
8
BLACK
6
CONTINUOUS
10
181.314
20
-96.3057
11
181.457
21
-96.1629
0
LINE
8
BLACK
6
CONTINUOUS
10
181.457
20
-96.1629
11
181.743
21
-96.02
0
LINE
8
BLACK
6
CONTINUOUS
10
181.743
20
-96.02
11
182.457
21
-96.02
0
LINE
8
BLACK
6
CONTINUOUS
10
182.457
20
-96.02
11
182.743
21
-96.1629
0
LINE
8
BLACK
6
CONTINUOUS
10
182.743
20
-96.1629
11
182.886
21
-96.3057
0
LINE
8
BLACK
6
CONTINUOUS
10
182.886
20
-96.3057
11
183.029
21
-96.5914
0
LINE
8
BLACK
6
CONTINUOUS
10
183.029
20
-96.5914
11
183.029
21
-97.3057
0
LINE
8
BLACK
6
CONTINUOUS
10
183.029
20
-97.3057
11
182.886
21
-97.5914
0
LINE
8
BLACK
6
CONTINUOUS
10
182.886
20
-97.5914
11
182.743
21
-97.7343
0
LINE
8
BLACK
6
CONTINUOUS
10
182.743
20
-97.7343
11
182.457
21
-97.8771
0
LINE
8
BLACK
6
CONTINUOUS
10
182.457
20
-97.8771
11
181.743
21
-97.8771
0
LINE
8
BLACK
6
CONTINUOUS
10
181.743
20
-97.8771
11
181.457
21
-97.7343
0
LINE
8
BLACK
6
CONTINUOUS
10
181.457
20
-97.7343
11
181.314
21
-97.5914
0
LINE
8
BLACK
6
CONTINUOUS
10
184.314
20
-97.8771
11
184.314
21
-95.8771
0
LINE
8
BLACK
6
CONTINUOUS
10
184.314
20
-96.1629
11
184.457
21
-96.02
0
LINE
8
BLACK
6
CONTINUOUS
10
184.457
20
-96.02
11
184.743
21
-95.8771
0
LINE
8
BLACK
6
CONTINUOUS
10
184.743
20
-95.8771
11
185.171
21
-95.8771
0
LINE
8
BLACK
6
CONTINUOUS
10
185.171
20
-95.8771
11
185.457
21
-96.02
0
LINE
8
BLACK
6
CONTINUOUS
10
185.457
20
-96.02
11
185.6
21
-96.3057
0
LINE
8
BLACK
6
CONTINUOUS
10
185.6
20
-96.3057
11
185.6
21
-97.8771
0
LINE
8
BLACK
6
CONTINUOUS
10
185.6
20
-96.3057
11
185.743
21
-96.02
0
LINE
8
BLACK
6
CONTINUOUS
10
185.743
20
-96.02
11
186.029
21
-95.8771
0
LINE
8
BLACK
6
CONTINUOUS
10
186.029
20
-95.8771
11
186.457
21
-95.8771
0
LINE
8
BLACK
6
CONTINUOUS
10
186.457
20
-95.8771
11
186.743
21
-96.02
0
LINE
8
BLACK
6
CONTINUOUS
10
186.743
20
-96.02
11
186.886
21
-96.3057
0
LINE
8
BLACK
6
CONTINUOUS
10
186.886
20
-96.3057
11
186.886
21
-97.8771
0
LINE
8
BLACK
6
CONTINUOUS
10
188.314
20
-97.8771
11
188.314
21
-95.8771
0
LINE
8
BLACK
6
CONTINUOUS
10
188.314
20
-96.1629
11
188.457
21
-96.02
0
LINE
8
BLACK
6
CONTINUOUS
10
188.457
20
-96.02
11
188.743
21
-95.8771
0
LINE
8
BLACK
6
CONTINUOUS
10
188.743
20
-95.8771
11
189.171
21
-95.8771
0
LINE
8
BLACK
6
CONTINUOUS
10
189.171
20
-95.8771
11
189.457
21
-96.02
0
LINE
8
BLACK
6
CONTINUOUS
10
189.457
20
-96.02
11
189.6
21
-96.3057
0
LINE
8
BLACK
6
CONTINUOUS
10
189.6
20
-96.3057
11
189.6
21
-97.8771
0
LINE
8
BLACK
6
CONTINUOUS
10
189.6
20
-96.3057
11
189.743
21
-96.02
0
LINE
8
BLACK
6
CONTINUOUS
10
189.743
20
-96.02
11
190.029
21
-95.8771
0
LINE
8
BLACK
6
CONTINUOUS
10
190.029
20
-95.8771
11
190.457
21
-95.8771
0
LINE
8
BLACK
6
CONTINUOUS
10
190.457
20
-95.8771
11
190.743
21
-96.02
0
LINE
8
BLACK
6
CONTINUOUS
10
190.743
20
-96.02
11
190.886
21
-96.3057
0
LINE
8
BLACK
6
CONTINUOUS
10
190.886
20
-96.3057
11
190.886
21
-97.8771
0
LINE
8
BLACK
6
CONTINUOUS
10
196.743
20
-94.7343
11
194.171
21
-98.5914
0
LINE
8
BLACK
6
CONTINUOUS
10
200.6
20
-94.8771
11
200.886
21
-94.8771
0
LINE
8
BLACK
6
CONTINUOUS
10
200.886
20
-94.8771
11
201.171
21
-95.02
0
LINE
8
BLACK
6
CONTINUOUS
10
201.171
20
-95.02
11
201.314
21
-95.1629
0
LINE
8
BLACK
6
CONTINUOUS
10
201.314
20
-95.1629
11
201.457
21
-95.4486
0
LINE
8
BLACK
6
CONTINUOUS
10
201.457
20
-95.4486
11
201.6
21
-96.02
0
LINE
8
BLACK
6
CONTINUOUS
10
201.6
20
-96.02
11
201.6
21
-96.7343
0
LINE
8
BLACK
6
CONTINUOUS
10
201.6
20
-96.7343
11
201.457
21
-97.3057
0
LINE
8
BLACK
6
CONTINUOUS
10
201.457
20
-97.3057
11
201.314
21
-97.5914
0
LINE
8
BLACK
6
CONTINUOUS
10
201.314
20
-97.5914
11
201.171
21
-97.7343
0
LINE
8
BLACK
6
CONTINUOUS
10
201.171
20
-97.7343
11
200.886
21
-97.8771
0
LINE
8
BLACK
6
CONTINUOUS
10
200.886
20
-97.8771
11
200.6
21
-97.8771
0
LINE
8
BLACK
6
CONTINUOUS
10
200.6
20
-97.8771
11
200.314
21
-97.7343
0
LINE
8
BLACK
6
CONTINUOUS
10
200.314
20
-97.7343
11
200.171
21
-97.5914
0
LINE
8
BLACK
6
CONTINUOUS
10
200.171
20
-97.5914
11
200.029
21
-97.3057
0
LINE
8
BLACK
6
CONTINUOUS
10
200.029
20
-97.3057
11
199.886
21
-96.7343
0
LINE
8
BLACK
6
CONTINUOUS
10
199.886
20
-96.7343
11
199.886
21
-96.02
0
LINE
8
BLACK
6
CONTINUOUS
10
199.886
20
-96.02
11
200.029
21
-95.4486
0
LINE
8
BLACK
6
CONTINUOUS
10
200.029
20
-95.4486
11
200.171
21
-95.1629
0
LINE
8
BLACK
6
CONTINUOUS
10
200.171
20
-95.1629
11
200.314
21
-95.02
0
LINE
8
BLACK
6
CONTINUOUS
10
200.314
20
-95.02
11
200.6
21
-94.8771
0
LINE
8
BLACK
6
CONTINUOUS
10
202.886
20
-97.5914
11
203.029
21
-97.7343
0
LINE
8
BLACK
6
CONTINUOUS
10
203.029
20
-97.7343
11
202.886
21
-97.8771
0
LINE
8
BLACK
6
CONTINUOUS
10
202.886
20
-97.8771
11
202.743
21
-97.7343
0
LINE
8
BLACK
6
CONTINUOUS
10
202.743
20
-97.7343
11
202.886
21
-97.5914
0
LINE
8
BLACK
6
CONTINUOUS
10
202.886
20
-97.5914
11
202.886
21
-97.8771
0
LINE
8
BLACK
6
CONTINUOUS
10
204.886
20
-94.8771
11
205.171
21
-94.8771
0
LINE
8
BLACK
6
CONTINUOUS
10
205.171
20
-94.8771
11
205.457
21
-95.02
0
LINE
8
BLACK
6
CONTINUOUS
10
205.457
20
-95.02
11
205.6
21
-95.1629
0
LINE
8
BLACK
6
CONTINUOUS
10
205.6
20
-95.1629
11
205.743
21
-95.4486
0
LINE
8
BLACK
6
CONTINUOUS
10
205.743
20
-95.4486
11
205.886
21
-96.02
0
LINE
8
BLACK
6
CONTINUOUS
10
205.886
20
-96.02
11
205.886
21
-96.7343
0
LINE
8
BLACK
6
CONTINUOUS
10
205.886
20
-96.7343
11
205.743
21
-97.3057
0
LINE
8
BLACK
6
CONTINUOUS
10
205.743
20
-97.3057
11
205.6
21
-97.5914
0
LINE
8
BLACK
6
CONTINUOUS
10
205.6
20
-97.5914
11
205.457
21
-97.7343
0
LINE
8
BLACK
6
CONTINUOUS
10
205.457
20
-97.7343
11
205.171
21
-97.8771
0
LINE
8
BLACK
6
CONTINUOUS
10
205.171
20
-97.8771
11
204.886
21
-97.8771
0
LINE
8
BLACK
6
CONTINUOUS
10
204.886
20
-97.8771
11
204.6
21
-97.7343
0
LINE
8
BLACK
6
CONTINUOUS
10
204.6
20
-97.7343
11
204.457
21
-97.5914
0
LINE
8
BLACK
6
CONTINUOUS
10
204.457
20
-97.5914
11
204.314
21
-97.3057
0
LINE
8
BLACK
6
CONTINUOUS
10
204.314
20
-97.3057
11
204.171
21
-96.7343
0
LINE
8
BLACK
6
CONTINUOUS
10
204.171
20
-96.7343
11
204.171
21
-96.02
0
LINE
8
BLACK
6
CONTINUOUS
10
204.171
20
-96.02
11
204.314
21
-95.4486
0
LINE
8
BLACK
6
CONTINUOUS
10
204.314
20
-95.4486
11
204.457
21
-95.1629
0
LINE
8
BLACK
6
CONTINUOUS
10
204.457
20
-95.1629
11
204.6
21
-95.02
0
LINE
8
BLACK
6
CONTINUOUS
10
204.6
20
-95.02
11
204.886
21
-94.8771
0
LINE
8
BLACK
6
CONTINUOUS
10
206.886
20
-94.8771
11
208.743
21
-94.8771
0
LINE
8
BLACK
6
CONTINUOUS
10
208.743
20
-94.8771
11
207.743
21
-96.02
0
LINE
8
BLACK
6
CONTINUOUS
10
207.743
20
-96.02
11
208.171
21
-96.02
0
LINE
8
BLACK
6
CONTINUOUS
10
208.171
20
-96.02
11
208.457
21
-96.1629
0
LINE
8
BLACK
6
CONTINUOUS
10
208.457
20
-96.1629
11
208.6
21
-96.3057
0
LINE
8
BLACK
6
CONTINUOUS
10
208.6
20
-96.3057
11
208.743
21
-96.5914
0
LINE
8
BLACK
6
CONTINUOUS
10
208.743
20
-96.5914
11
208.743
21
-97.3057
0
LINE
8
BLACK
6
CONTINUOUS
10
208.743
20
-97.3057
11
208.6
21
-97.5914
0
LINE
8
BLACK
6
CONTINUOUS
10
208.6
20
-97.5914
11
208.457
21
-97.7343
0
LINE
8
BLACK
6
CONTINUOUS
10
208.457
20
-97.7343
11
208.171
21
-97.8771
0
LINE
8
BLACK
6
CONTINUOUS
10
208.171
20
-97.8771
11
207.314
21
-97.8771
0
LINE
8
BLACK
6
CONTINUOUS
10
207.314
20
-97.8771
11
207.029
21
-97.7343
0
LINE
8
BLACK
6
CONTINUOUS
10
207.029
20
-97.7343
11
206.886
21
-97.5914
0
LINE
8
BLACK
6
CONTINUOUS
10
210.6
20
-94.8771
11
210.886
21
-94.8771
0
LINE
8
BLACK
6
CONTINUOUS
10
210.886
20
-94.8771
11
211.171
21
-95.02
0
LINE
8
BLACK
6
CONTINUOUS
10
211.171
20
-95.02
11
211.314
21
-95.1629
0
LINE
8
BLACK
6
CONTINUOUS
10
211.314
20
-95.1629
11
211.457
21
-95.4486
0
LINE
8
BLACK
6
CONTINUOUS
10
211.457
20
-95.4486
11
211.6
21
-96.02
0
LINE
8
BLACK
6
CONTINUOUS
10
211.6
20
-96.02
11
211.6
21
-96.7343
0
LINE
8
BLACK
6
CONTINUOUS
10
211.6
20
-96.7343
11
211.457
21
-97.3057
0
LINE
8
BLACK
6
CONTINUOUS
10
211.457
20
-97.3057
11
211.314
21
-97.5914
0
LINE
8
BLACK
6
CONTINUOUS
10
211.314
20
-97.5914
11
211.171
21
-97.7343
0
LINE
8
BLACK
6
CONTINUOUS
10
211.171
20
-97.7343
11
210.886
21
-97.8771
0
LINE
8
BLACK
6
CONTINUOUS
10
210.886
20
-97.8771
11
210.6
21
-97.8771
0
LINE
8
BLACK
6
CONTINUOUS
10
210.6
20
-97.8771
11
210.314
21
-97.7343
0
LINE
8
BLACK
6
CONTINUOUS
10
210.314
20
-97.7343
11
210.171
21
-97.5914
0
LINE
8
BLACK
6
CONTINUOUS
10
210.171
20
-97.5914
11
210.029
21
-97.3057
0
LINE
8
BLACK
6
CONTINUOUS
10
210.029
20
-97.3057
11
209.886
21
-96.7343
0
LINE
8
BLACK
6
CONTINUOUS
10
209.886
20
-96.7343
11
209.886
21
-96.02
0
LINE
8
BLACK
6
CONTINUOUS
10
209.886
20
-96.02
11
210.029
21
-95.4486
0
LINE
8
BLACK
6
CONTINUOUS
10
210.029
20
-95.4486
11
210.171
21
-95.1629
0
LINE
8
BLACK
6
CONTINUOUS
10
210.171
20
-95.1629
11
210.314
21
-95.02
0
LINE
8
BLACK
6
CONTINUOUS
10
210.314
20
-95.02
11
210.6
21
-94.8771
0
LINE
8
BLACK
6
CONTINUOUS
10
212.743
20
-94.8771
11
212.743
21
-95.4486
0
LINE
8
BLACK
6
CONTINUOUS
10
213.886
20
-94.8771
11
213.886
21
-95.4486
0
LINE
8
BLACK
6
CONTINUOUS
10
218.314
20
-99.02
11
218.171
21
-98.8771
0
LINE
8
BLACK
6
CONTINUOUS
10
218.171
20
-98.8771
11
217.886
21
-98.4486
0
LINE
8
BLACK
6
CONTINUOUS
10
217.886
20
-98.4486
11
217.743
21
-98.1629
0
LINE
8
BLACK
6
CONTINUOUS
10
217.743
20
-98.1629
11
217.6
21
-97.7343
0
LINE
8
BLACK
6
CONTINUOUS
10
217.6
20
-97.7343
11
217.457
21
-97.02
0
LINE
8
BLACK
6
CONTINUOUS
10
217.457
20
-97.02
11
217.457
21
-96.4486
0
LINE
8
BLACK
6
CONTINUOUS
10
217.457
20
-96.4486
11
217.6
21
-95.7343
0
LINE
8
BLACK
6
CONTINUOUS
10
217.6
20
-95.7343
11
217.743
21
-95.3057
0
LINE
8
BLACK
6
CONTINUOUS
10
217.743
20
-95.3057
11
217.886
21
-95.02
0
LINE
8
BLACK
6
CONTINUOUS
10
217.886
20
-95.02
11
218.171
21
-94.5914
0
LINE
8
BLACK
6
CONTINUOUS
10
218.171
20
-94.5914
11
218.314
21
-94.4486
0
LINE
8
BLACK
6
CONTINUOUS
10
220.743
20
-94.8771
11
220.171
21
-94.8771
0
LINE
8
BLACK
6
CONTINUOUS
10
220.171
20
-94.8771
11
219.886
21
-95.02
0
LINE
8
BLACK
6
CONTINUOUS
10
219.886
20
-95.02
11
219.743
21
-95.1629
0
LINE
8
BLACK
6
CONTINUOUS
10
219.743
20
-95.1629
11
219.457
21
-95.5914
0
LINE
8
BLACK
6
CONTINUOUS
10
219.457
20
-95.5914
11
219.314
21
-96.1629
0
LINE
8
BLACK
6
CONTINUOUS
10
219.314
20
-96.1629
11
219.314
21
-97.3057
0
LINE
8
BLACK
6
CONTINUOUS
10
219.314
20
-97.3057
11
219.457
21
-97.5914
0
LINE
8
BLACK
6
CONTINUOUS
10
219.457
20
-97.5914
11
219.6
21
-97.7343
0
LINE
8
BLACK
6
CONTINUOUS
10
219.6
20
-97.7343
11
219.886
21
-97.8771
0
LINE
8
BLACK
6
CONTINUOUS
10
219.886
20
-97.8771
11
220.457
21
-97.8771
0
LINE
8
BLACK
6
CONTINUOUS
10
220.457
20
-97.8771
11
220.743
21
-97.7343
0
LINE
8
BLACK
6
CONTINUOUS
10
220.743
20
-97.7343
11
220.886
21
-97.5914
0
LINE
8
BLACK
6
CONTINUOUS
10
220.886
20
-97.5914
11
221.029
21
-97.3057
0
LINE
8
BLACK
6
CONTINUOUS
10
221.029
20
-97.3057
11
221.029
21
-96.5914
0
LINE
8
BLACK
6
CONTINUOUS
10
221.029
20
-96.5914
11
220.886
21
-96.3057
0
LINE
8
BLACK
6
CONTINUOUS
10
220.886
20
-96.3057
11
220.743
21
-96.1629
0
LINE
8
BLACK
6
CONTINUOUS
10
220.743
20
-96.1629
11
220.457
21
-96.02
0
LINE
8
BLACK
6
CONTINUOUS
10
220.457
20
-96.02
11
219.886
21
-96.02
0
LINE
8
BLACK
6
CONTINUOUS
10
219.886
20
-96.02
11
219.6
21
-96.1629
0
LINE
8
BLACK
6
CONTINUOUS
10
219.6
20
-96.1629
11
219.457
21
-96.3057
0
LINE
8
BLACK
6
CONTINUOUS
10
219.457
20
-96.3057
11
219.314
21
-96.5914
0
LINE
8
BLACK
6
CONTINUOUS
10
224.6
20
-97.8771
11
224.6
21
-94.8771
0
LINE
8
BLACK
6
CONTINUOUS
10
225.886
20
-97.8771
11
225.886
21
-96.3057
0
LINE
8
BLACK
6
CONTINUOUS
10
225.886
20
-96.3057
11
225.743
21
-96.02
0
LINE
8
BLACK
6
CONTINUOUS
10
225.743
20
-96.02
11
225.457
21
-95.8771
0
LINE
8
BLACK
6
CONTINUOUS
10
225.457
20
-95.8771
11
225.029
21
-95.8771
0
LINE
8
BLACK
6
CONTINUOUS
10
225.029
20
-95.8771
11
224.743
21
-96.02
0
LINE
8
BLACK
6
CONTINUOUS
10
224.743
20
-96.02
11
224.6
21
-96.1629
0
LINE
8
BLACK
6
CONTINUOUS
10
227.743
20
-97.8771
11
227.457
21
-97.7343
0
LINE
8
BLACK
6
CONTINUOUS
10
227.457
20
-97.7343
11
227.314
21
-97.5914
0
LINE
8
BLACK
6
CONTINUOUS
10
227.314
20
-97.5914
11
227.171
21
-97.3057
0
LINE
8
BLACK
6
CONTINUOUS
10
227.171
20
-97.3057
11
227.171
21
-96.4486
0
LINE
8
BLACK
6
CONTINUOUS
10
227.171
20
-96.4486
11
227.314
21
-96.1629
0
LINE
8
BLACK
6
CONTINUOUS
10
227.314
20
-96.1629
11
227.457
21
-96.02
0
LINE
8
BLACK
6
CONTINUOUS
10
227.457
20
-96.02
11
227.743
21
-95.8771
0
LINE
8
BLACK
6
CONTINUOUS
10
227.743
20
-95.8771
11
228.171
21
-95.8771
0
LINE
8
BLACK
6
CONTINUOUS
10
228.171
20
-95.8771
11
228.457
21
-96.02
0
LINE
8
BLACK
6
CONTINUOUS
10
228.457
20
-96.02
11
228.6
21
-96.1629
0
LINE
8
BLACK
6
CONTINUOUS
10
228.6
20
-96.1629
11
228.743
21
-96.4486
0
LINE
8
BLACK
6
CONTINUOUS
10
228.743
20
-96.4486
11
228.743
21
-97.3057
0
LINE
8
BLACK
6
CONTINUOUS
10
228.743
20
-97.3057
11
228.6
21
-97.5914
0
LINE
8
BLACK
6
CONTINUOUS
10
228.6
20
-97.5914
11
228.457
21
-97.7343
0
LINE
8
BLACK
6
CONTINUOUS
10
228.457
20
-97.7343
11
228.171
21
-97.8771
0
LINE
8
BLACK
6
CONTINUOUS
10
228.171
20
-97.8771
11
227.743
21
-97.8771
0
LINE
8
BLACK
6
CONTINUOUS
10
230.457
20
-97.8771
11
230.171
21
-97.7343
0
LINE
8
BLACK
6
CONTINUOUS
10
230.171
20
-97.7343
11
230.029
21
-97.4486
0
LINE
8
BLACK
6
CONTINUOUS
10
230.029
20
-97.4486
11
230.029
21
-94.8771
0
LINE
8
BLACK
6
CONTINUOUS
10
232.743
20
-97.7343
11
232.457
21
-97.8771
0
LINE
8
BLACK
6
CONTINUOUS
10
232.457
20
-97.8771
11
231.886
21
-97.8771
0
LINE
8
BLACK
6
CONTINUOUS
10
231.886
20
-97.8771
11
231.6
21
-97.7343
0
LINE
8
BLACK
6
CONTINUOUS
10
231.6
20
-97.7343
11
231.457
21
-97.4486
0
LINE
8
BLACK
6
CONTINUOUS
10
231.457
20
-97.4486
11
231.457
21
-96.3057
0
LINE
8
BLACK
6
CONTINUOUS
10
231.457
20
-96.3057
11
231.6
21
-96.02
0
LINE
8
BLACK
6
CONTINUOUS
10
231.6
20
-96.02
11
231.886
21
-95.8771
0
LINE
8
BLACK
6
CONTINUOUS
10
231.886
20
-95.8771
11
232.457
21
-95.8771
0
LINE
8
BLACK
6
CONTINUOUS
10
232.457
20
-95.8771
11
232.743
21
-96.02
0
LINE
8
BLACK
6
CONTINUOUS
10
232.743
20
-96.02
11
232.886
21
-96.3057
0
LINE
8
BLACK
6
CONTINUOUS
10
232.886
20
-96.3057
11
232.886
21
-96.5914
0
LINE
8
BLACK
6
CONTINUOUS
10
232.886
20
-96.5914
11
231.457
21
-96.8771
0
LINE
8
BLACK
6
CONTINUOUS
10
234.029
20
-97.7343
11
234.314
21
-97.8771
0
LINE
8
BLACK
6
CONTINUOUS
10
234.314
20
-97.8771
11
234.886
21
-97.8771
0
LINE
8
BLACK
6
CONTINUOUS
10
234.886
20
-97.8771
11
235.171
21
-97.7343
0
LINE
8
BLACK
6
CONTINUOUS
10
235.171
20
-97.7343
11
235.314
21
-97.4486
0
LINE
8
BLACK
6
CONTINUOUS
10
235.314
20
-97.4486
11
235.314
21
-97.3057
0
LINE
8
BLACK
6
CONTINUOUS
10
235.314
20
-97.3057
11
235.171
21
-97.02
0
LINE
8
BLACK
6
CONTINUOUS
10
235.171
20
-97.02
11
234.886
21
-96.8771
0
LINE
8
BLACK
6
CONTINUOUS
10
234.886
20
-96.8771
11
234.457
21
-96.8771
0
LINE
8
BLACK
6
CONTINUOUS
10
234.457
20
-96.8771
11
234.171
21
-96.7343
0
LINE
8
BLACK
6
CONTINUOUS
10
234.171
20
-96.7343
11
234.029
21
-96.4486
0
LINE
8
BLACK
6
CONTINUOUS
10
234.029
20
-96.4486
11
234.029
21
-96.3057
0
LINE
8
BLACK
6
CONTINUOUS
10
234.029
20
-96.3057
11
234.171
21
-96.02
0
LINE
8
BLACK
6
CONTINUOUS
10
234.171
20
-96.02
11
234.457
21
-95.8771
0
LINE
8
BLACK
6
CONTINUOUS
10
234.457
20
-95.8771
11
234.886
21
-95.8771
0
LINE
8
BLACK
6
CONTINUOUS
10
234.886
20
-95.8771
11
235.171
21
-96.02
0
LINE
8
BLACK
6
CONTINUOUS
10
236.314
20
-99.02
11
236.457
21
-98.8771
0
LINE
8
BLACK
6
CONTINUOUS
10
236.457
20
-98.8771
11
236.743
21
-98.4486
0
LINE
8
BLACK
6
CONTINUOUS
10
236.743
20
-98.4486
11
236.886
21
-98.1629
0
LINE
8
BLACK
6
CONTINUOUS
10
236.886
20
-98.1629
11
237.029
21
-97.7343
0
LINE
8
BLACK
6
CONTINUOUS
10
237.029
20
-97.7343
11
237.171
21
-97.02
0
LINE
8
BLACK
6
CONTINUOUS
10
237.171
20
-97.02
11
237.171
21
-96.4486
0
LINE
8
BLACK
6
CONTINUOUS
10
237.171
20
-96.4486
11
237.029
21
-95.7343
0
LINE
8
BLACK
6
CONTINUOUS
10
237.029
20
-95.7343
11
236.886
21
-95.3057
0
LINE
8
BLACK
6
CONTINUOUS
10
236.886
20
-95.3057
11
236.743
21
-95.02
0
LINE
8
BLACK
6
CONTINUOUS
10
236.743
20
-95.02
11
236.457
21
-94.5914
0
LINE
8
BLACK
6
CONTINUOUS
10
236.457
20
-94.5914
11
236.314
21
-94.4486
0
LINE
8
BLACK
6
CONTINUOUS
10
171.333
20
-100.763
11
171.333
21
-100.197
0
LINE
8
BLACK
6
CONTINUOUS
10
171.333
20
-100.197
11
170.767
21
-100.197
0
LINE
8
BLACK
6
CONTINUOUS
10
170.767
20
-100.197
11
170.767
21
-100.763
0
LINE
8
BLACK
6
CONTINUOUS
10
170.767
20
-100.763
11
171.333
21
-100.763
0
LINE
8
BLACK
6
CONTINUOUS
10
174.886
20
-98.8371
11
175.171
21
-98.8371
0
LINE
8
BLACK
6
CONTINUOUS
10
175.171
20
-98.8371
11
175.457
21
-98.98
0
LINE
8
BLACK
6
CONTINUOUS
10
175.457
20
-98.98
11
175.6
21
-99.1229
0
LINE
8
BLACK
6
CONTINUOUS
10
175.6
20
-99.1229
11
175.743
21
-99.4086
0
LINE
8
BLACK
6
CONTINUOUS
10
175.743
20
-99.4086
11
175.886
21
-99.98
0
LINE
8
BLACK
6
CONTINUOUS
10
175.886
20
-99.98
11
175.886
21
-100.694
0
LINE
8
BLACK
6
CONTINUOUS
10
175.886
20
-100.694
11
175.743
21
-101.266
0
LINE
8
BLACK
6
CONTINUOUS
10
175.743
20
-101.266
11
175.6
21
-101.551
0
LINE
8
BLACK
6
CONTINUOUS
10
175.6
20
-101.551
11
175.457
21
-101.694
0
LINE
8
BLACK
6
CONTINUOUS
10
175.457
20
-101.694
11
175.171
21
-101.837
0
LINE
8
BLACK
6
CONTINUOUS
10
175.171
20
-101.837
11
174.886
21
-101.837
0
LINE
8
BLACK
6
CONTINUOUS
10
174.886
20
-101.837
11
174.6
21
-101.694
0
LINE
8
BLACK
6
CONTINUOUS
10
174.6
20
-101.694
11
174.457
21
-101.551
0
LINE
8
BLACK
6
CONTINUOUS
10
174.457
20
-101.551
11
174.314
21
-101.266
0
LINE
8
BLACK
6
CONTINUOUS
10
174.314
20
-101.266
11
174.171
21
-100.694
0
LINE
8
BLACK
6
CONTINUOUS
10
174.171
20
-100.694
11
174.171
21
-99.98
0
LINE
8
BLACK
6
CONTINUOUS
10
174.171
20
-99.98
11
174.314
21
-99.4086
0
LINE
8
BLACK
6
CONTINUOUS
10
174.314
20
-99.4086
11
174.457
21
-99.1229
0
LINE
8
BLACK
6
CONTINUOUS
10
174.457
20
-99.1229
11
174.6
21
-98.98
0
LINE
8
BLACK
6
CONTINUOUS
10
174.6
20
-98.98
11
174.886
21
-98.8371
0
LINE
8
BLACK
6
CONTINUOUS
10
177.171
20
-101.551
11
177.314
21
-101.694
0
LINE
8
BLACK
6
CONTINUOUS
10
177.314
20
-101.694
11
177.171
21
-101.837
0
LINE
8
BLACK
6
CONTINUOUS
10
177.171
20
-101.837
11
177.029
21
-101.694
0
LINE
8
BLACK
6
CONTINUOUS
10
177.029
20
-101.694
11
177.171
21
-101.551
0
LINE
8
BLACK
6
CONTINUOUS
10
177.171
20
-101.551
11
177.171
21
-101.837
0
LINE
8
BLACK
6
CONTINUOUS
10
179.029
20
-100.123
11
178.743
21
-99.98
0
LINE
8
BLACK
6
CONTINUOUS
10
178.743
20
-99.98
11
178.6
21
-99.8371
0
LINE
8
BLACK
6
CONTINUOUS
10
178.6
20
-99.8371
11
178.457
21
-99.5514
0
LINE
8
BLACK
6
CONTINUOUS
10
178.457
20
-99.5514
11
178.457
21
-99.4086
0
LINE
8
BLACK
6
CONTINUOUS
10
178.457
20
-99.4086
11
178.6
21
-99.1229
0
LINE
8
BLACK
6
CONTINUOUS
10
178.6
20
-99.1229
11
178.743
21
-98.98
0
LINE
8
BLACK
6
CONTINUOUS
10
178.743
20
-98.98
11
179.029
21
-98.8371
0
LINE
8
BLACK
6
CONTINUOUS
10
179.029
20
-98.8371
11
179.6
21
-98.8371
0
LINE
8
BLACK
6
CONTINUOUS
10
179.6
20
-98.8371
11
179.886
21
-98.98
0
LINE
8
BLACK
6
CONTINUOUS
10
179.886
20
-98.98
11
180.029
21
-99.1229
0
LINE
8
BLACK
6
CONTINUOUS
10
180.029
20
-99.1229
11
180.171
21
-99.4086
0
LINE
8
BLACK
6
CONTINUOUS
10
180.171
20
-99.4086
11
180.171
21
-99.5514
0
LINE
8
BLACK
6
CONTINUOUS
10
180.171
20
-99.5514
11
180.029
21
-99.8371
0
LINE
8
BLACK
6
CONTINUOUS
10
180.029
20
-99.8371
11
179.886
21
-99.98
0
LINE
8
BLACK
6
CONTINUOUS
10
179.886
20
-99.98
11
179.6
21
-100.123
0
LINE
8
BLACK
6
CONTINUOUS
10
179.6
20
-100.123
11
179.029
21
-100.123
0
LINE
8
BLACK
6
CONTINUOUS
10
179.029
20
-100.123
11
178.743
21
-100.266
0
LINE
8
BLACK
6
CONTINUOUS
10
178.743
20
-100.266
11
178.6
21
-100.409
0
LINE
8
BLACK
6
CONTINUOUS
10
178.6
20
-100.409
11
178.457
21
-100.694
0
LINE
8
BLACK
6
CONTINUOUS
10
178.457
20
-100.694
11
178.457
21
-101.266
0
LINE
8
BLACK
6
CONTINUOUS
10
178.457
20
-101.266
11
178.6
21
-101.551
0
LINE
8
BLACK
6
CONTINUOUS
10
178.6
20
-101.551
11
178.743
21
-101.694
0
LINE
8
BLACK
6
CONTINUOUS
10
178.743
20
-101.694
11
179.029
21
-101.837
0
LINE
8
BLACK
6
CONTINUOUS
10
179.029
20
-101.837
11
179.6
21
-101.837
0
LINE
8
BLACK
6
CONTINUOUS
10
179.6
20
-101.837
11
179.886
21
-101.694
0
LINE
8
BLACK
6
CONTINUOUS
10
179.886
20
-101.694
11
180.029
21
-101.551
0
LINE
8
BLACK
6
CONTINUOUS
10
180.029
20
-101.551
11
180.171
21
-101.266
0
LINE
8
BLACK
6
CONTINUOUS
10
180.171
20
-101.266
11
180.171
21
-100.694
0
LINE
8
BLACK
6
CONTINUOUS
10
180.171
20
-100.694
11
180.029
21
-100.409
0
LINE
8
BLACK
6
CONTINUOUS
10
180.029
20
-100.409
11
179.886
21
-100.266
0
LINE
8
BLACK
6
CONTINUOUS
10
179.886
20
-100.266
11
179.6
21
-100.123
0
LINE
8
BLACK
6
CONTINUOUS
10
182.029
20
-98.8371
11
182.314
21
-98.8371
0
LINE
8
BLACK
6
CONTINUOUS
10
182.314
20
-98.8371
11
182.6
21
-98.98
0
LINE
8
BLACK
6
CONTINUOUS
10
182.6
20
-98.98
11
182.743
21
-99.1229
0
LINE
8
BLACK
6
CONTINUOUS
10
182.743
20
-99.1229
11
182.886
21
-99.4086
0
LINE
8
BLACK
6
CONTINUOUS
10
182.886
20
-99.4086
11
183.029
21
-99.98
0
LINE
8
BLACK
6
CONTINUOUS
10
183.029
20
-99.98
11
183.029
21
-100.694
0
LINE
8
BLACK
6
CONTINUOUS
10
183.029
20
-100.694
11
182.886
21
-101.266
0
LINE
8
BLACK
6
CONTINUOUS
10
182.886
20
-101.266
11
182.743
21
-101.551
0
LINE
8
BLACK
6
CONTINUOUS
10
182.743
20
-101.551
11
182.6
21
-101.694
0
LINE
8
BLACK
6
CONTINUOUS
10
182.6
20
-101.694
11
182.314
21
-101.837
0
LINE
8
BLACK
6
CONTINUOUS
10
182.314
20
-101.837
11
182.029
21
-101.837
0
LINE
8
BLACK
6
CONTINUOUS
10
182.029
20
-101.837
11
181.743
21
-101.694
0
LINE
8
BLACK
6
CONTINUOUS
10
181.743
20
-101.694
11
181.6
21
-101.551
0
LINE
8
BLACK
6
CONTINUOUS
10
181.6
20
-101.551
11
181.457
21
-101.266
0
LINE
8
BLACK
6
CONTINUOUS
10
181.457
20
-101.266
11
181.314
21
-100.694
0
LINE
8
BLACK
6
CONTINUOUS
10
181.314
20
-100.694
11
181.314
21
-99.98
0
LINE
8
BLACK
6
CONTINUOUS
10
181.314
20
-99.98
11
181.457
21
-99.4086
0
LINE
8
BLACK
6
CONTINUOUS
10
181.457
20
-99.4086
11
181.6
21
-99.1229
0
LINE
8
BLACK
6
CONTINUOUS
10
181.6
20
-99.1229
11
181.743
21
-98.98
0
LINE
8
BLACK
6
CONTINUOUS
10
181.743
20
-98.98
11
182.029
21
-98.8371
0
LINE
8
BLACK
6
CONTINUOUS
10
184.314
20
-101.837
11
184.314
21
-99.8371
0
LINE
8
BLACK
6
CONTINUOUS
10
184.314
20
-100.123
11
184.457
21
-99.98
0
LINE
8
BLACK
6
CONTINUOUS
10
184.457
20
-99.98
11
184.743
21
-99.8371
0
LINE
8
BLACK
6
CONTINUOUS
10
184.743
20
-99.8371
11
185.171
21
-99.8371
0
LINE
8
BLACK
6
CONTINUOUS
10
185.171
20
-99.8371
11
185.457
21
-99.98
0
LINE
8
BLACK
6
CONTINUOUS
10
185.457
20
-99.98
11
185.6
21
-100.266
0
LINE
8
BLACK
6
CONTINUOUS
10
185.6
20
-100.266
11
185.6
21
-101.837
0
LINE
8
BLACK
6
CONTINUOUS
10
185.6
20
-100.266
11
185.743
21
-99.98
0
LINE
8
BLACK
6
CONTINUOUS
10
185.743
20
-99.98
11
186.029
21
-99.8371
0
LINE
8
BLACK
6
CONTINUOUS
10
186.029
20
-99.8371
11
186.457
21
-99.8371
0
LINE
8
BLACK
6
CONTINUOUS
10
186.457
20
-99.8371
11
186.743
21
-99.98
0
LINE
8
BLACK
6
CONTINUOUS
10
186.743
20
-99.98
11
186.886
21
-100.266
0
LINE
8
BLACK
6
CONTINUOUS
10
186.886
20
-100.266
11
186.886
21
-101.837
0
LINE
8
BLACK
6
CONTINUOUS
10
188.314
20
-101.837
11
188.314
21
-99.8371
0
LINE
8
BLACK
6
CONTINUOUS
10
188.314
20
-100.123
11
188.457
21
-99.98
0
LINE
8
BLACK
6
CONTINUOUS
10
188.457
20
-99.98
11
188.743
21
-99.8371
0
LINE
8
BLACK
6
CONTINUOUS
10
188.743
20
-99.8371
11
189.171
21
-99.8371
0
LINE
8
BLACK
6
CONTINUOUS
10
189.171
20
-99.8371
11
189.457
21
-99.98
0
LINE
8
BLACK
6
CONTINUOUS
10
189.457
20
-99.98
11
189.6
21
-100.266
0
LINE
8
BLACK
6
CONTINUOUS
10
189.6
20
-100.266
11
189.6
21
-101.837
0
LINE
8
BLACK
6
CONTINUOUS
10
189.6
20
-100.266
11
189.743
21
-99.98
0
LINE
8
BLACK
6
CONTINUOUS
10
189.743
20
-99.98
11
190.029
21
-99.8371
0
LINE
8
BLACK
6
CONTINUOUS
10
190.029
20
-99.8371
11
190.457
21
-99.8371
0
LINE
8
BLACK
6
CONTINUOUS
10
190.457
20
-99.8371
11
190.743
21
-99.98
0
LINE
8
BLACK
6
CONTINUOUS
10
190.743
20
-99.98
11
190.886
21
-100.266
0
LINE
8
BLACK
6
CONTINUOUS
10
190.886
20
-100.266
11
190.886
21
-101.837
0
LINE
8
BLACK
6
CONTINUOUS
10
196.743
20
-98.6943
11
194.171
21
-102.551
0
LINE
8
BLACK
6
CONTINUOUS
10
200.6
20
-98.8371
11
200.886
21
-98.8371
0
LINE
8
BLACK
6
CONTINUOUS
10
200.886
20
-98.8371
11
201.171
21
-98.98
0
LINE
8
BLACK
6
CONTINUOUS
10
201.171
20
-98.98
11
201.314
21
-99.1229
0
LINE
8
BLACK
6
CONTINUOUS
10
201.314
20
-99.1229
11
201.457
21
-99.4086
0
LINE
8
BLACK
6
CONTINUOUS
10
201.457
20
-99.4086
11
201.6
21
-99.98
0
LINE
8
BLACK
6
CONTINUOUS
10
201.6
20
-99.98
11
201.6
21
-100.694
0
LINE
8
BLACK
6
CONTINUOUS
10
201.6
20
-100.694
11
201.457
21
-101.266
0
LINE
8
BLACK
6
CONTINUOUS
10
201.457
20
-101.266
11
201.314
21
-101.551
0
LINE
8
BLACK
6
CONTINUOUS
10
201.314
20
-101.551
11
201.171
21
-101.694
0
LINE
8
BLACK
6
CONTINUOUS
10
201.171
20
-101.694
11
200.886
21
-101.837
0
LINE
8
BLACK
6
CONTINUOUS
10
200.886
20
-101.837
11
200.6
21
-101.837
0
LINE
8
BLACK
6
CONTINUOUS
10
200.6
20
-101.837
11
200.314
21
-101.694
0
LINE
8
BLACK
6
CONTINUOUS
10
200.314
20
-101.694
11
200.171
21
-101.551
0
LINE
8
BLACK
6
CONTINUOUS
10
200.171
20
-101.551
11
200.029
21
-101.266
0
LINE
8
BLACK
6
CONTINUOUS
10
200.029
20
-101.266
11
199.886
21
-100.694
0
LINE
8
BLACK
6
CONTINUOUS
10
199.886
20
-100.694
11
199.886
21
-99.98
0
LINE
8
BLACK
6
CONTINUOUS
10
199.886
20
-99.98
11
200.029
21
-99.4086
0
LINE
8
BLACK
6
CONTINUOUS
10
200.029
20
-99.4086
11
200.171
21
-99.1229
0
LINE
8
BLACK
6
CONTINUOUS
10
200.171
20
-99.1229
11
200.314
21
-98.98
0
LINE
8
BLACK
6
CONTINUOUS
10
200.314
20
-98.98
11
200.6
21
-98.8371
0
LINE
8
BLACK
6
CONTINUOUS
10
202.886
20
-101.551
11
203.029
21
-101.694
0
LINE
8
BLACK
6
CONTINUOUS
10
203.029
20
-101.694
11
202.886
21
-101.837
0
LINE
8
BLACK
6
CONTINUOUS
10
202.886
20
-101.837
11
202.743
21
-101.694
0
LINE
8
BLACK
6
CONTINUOUS
10
202.743
20
-101.694
11
202.886
21
-101.551
0
LINE
8
BLACK
6
CONTINUOUS
10
202.886
20
-101.551
11
202.886
21
-101.837
0
LINE
8
BLACK
6
CONTINUOUS
10
204.886
20
-98.8371
11
205.171
21
-98.8371
0
LINE
8
BLACK
6
CONTINUOUS
10
205.171
20
-98.8371
11
205.457
21
-98.98
0
LINE
8
BLACK
6
CONTINUOUS
10
205.457
20
-98.98
11
205.6
21
-99.1229
0
LINE
8
BLACK
6
CONTINUOUS
10
205.6
20
-99.1229
11
205.743
21
-99.4086
0
LINE
8
BLACK
6
CONTINUOUS
10
205.743
20
-99.4086
11
205.886
21
-99.98
0
LINE
8
BLACK
6
CONTINUOUS
10
205.886
20
-99.98
11
205.886
21
-100.694
0
LINE
8
BLACK
6
CONTINUOUS
10
205.886
20
-100.694
11
205.743
21
-101.266
0
LINE
8
BLACK
6
CONTINUOUS
10
205.743
20
-101.266
11
205.6
21
-101.551
0
LINE
8
BLACK
6
CONTINUOUS
10
205.6
20
-101.551
11
205.457
21
-101.694
0
LINE
8
BLACK
6
CONTINUOUS
10
205.457
20
-101.694
11
205.171
21
-101.837
0
LINE
8
BLACK
6
CONTINUOUS
10
205.171
20
-101.837
11
204.886
21
-101.837
0
LINE
8
BLACK
6
CONTINUOUS
10
204.886
20
-101.837
11
204.6
21
-101.694
0
LINE
8
BLACK
6
CONTINUOUS
10
204.6
20
-101.694
11
204.457
21
-101.551
0
LINE
8
BLACK
6
CONTINUOUS
10
204.457
20
-101.551
11
204.314
21
-101.266
0
LINE
8
BLACK
6
CONTINUOUS
10
204.314
20
-101.266
11
204.171
21
-100.694
0
LINE
8
BLACK
6
CONTINUOUS
10
204.171
20
-100.694
11
204.171
21
-99.98
0
LINE
8
BLACK
6
CONTINUOUS
10
204.171
20
-99.98
11
204.314
21
-99.4086
0
LINE
8
BLACK
6
CONTINUOUS
10
204.314
20
-99.4086
11
204.457
21
-99.1229
0
LINE
8
BLACK
6
CONTINUOUS
10
204.457
20
-99.1229
11
204.6
21
-98.98
0
LINE
8
BLACK
6
CONTINUOUS
10
204.6
20
-98.98
11
204.886
21
-98.8371
0
LINE
8
BLACK
6
CONTINUOUS
10
206.886
20
-98.8371
11
208.743
21
-98.8371
0
LINE
8
BLACK
6
CONTINUOUS
10
208.743
20
-98.8371
11
207.743
21
-99.98
0
LINE
8
BLACK
6
CONTINUOUS
10
207.743
20
-99.98
11
208.171
21
-99.98
0
LINE
8
BLACK
6
CONTINUOUS
10
208.171
20
-99.98
11
208.457
21
-100.123
0
LINE
8
BLACK
6
CONTINUOUS
10
208.457
20
-100.123
11
208.6
21
-100.266
0
LINE
8
BLACK
6
CONTINUOUS
10
208.6
20
-100.266
11
208.743
21
-100.551
0
LINE
8
BLACK
6
CONTINUOUS
10
208.743
20
-100.551
11
208.743
21
-101.266
0
LINE
8
BLACK
6
CONTINUOUS
10
208.743
20
-101.266
11
208.6
21
-101.551
0
LINE
8
BLACK
6
CONTINUOUS
10
208.6
20
-101.551
11
208.457
21
-101.694
0
LINE
8
BLACK
6
CONTINUOUS
10
208.457
20
-101.694
11
208.171
21
-101.837
0
LINE
8
BLACK
6
CONTINUOUS
10
208.171
20
-101.837
11
207.314
21
-101.837
0
LINE
8
BLACK
6
CONTINUOUS
10
207.314
20
-101.837
11
207.029
21
-101.694
0
LINE
8
BLACK
6
CONTINUOUS
10
207.029
20
-101.694
11
206.886
21
-101.551
0
LINE
8
BLACK
6
CONTINUOUS
10
211.6
20
-101.837
11
209.886
21
-101.837
0
LINE
8
BLACK
6
CONTINUOUS
10
210.743
20
-101.837
11
210.743
21
-98.8371
0
LINE
8
BLACK
6
CONTINUOUS
10
210.743
20
-98.8371
11
210.457
21
-99.2657
0
LINE
8
BLACK
6
CONTINUOUS
10
210.457
20
-99.2657
11
210.171
21
-99.5514
0
LINE
8
BLACK
6
CONTINUOUS
10
210.171
20
-99.5514
11
209.886
21
-99.6943
0
LINE
8
BLACK
6
CONTINUOUS
10
212.743
20
-98.8371
11
212.743
21
-99.4086
0
LINE
8
BLACK
6
CONTINUOUS
10
213.886
20
-98.8371
11
213.886
21
-99.4086
0
LINE
8
BLACK
6
CONTINUOUS
10
218.314
20
-102.98
11
218.171
21
-102.837
0
LINE
8
BLACK
6
CONTINUOUS
10
218.171
20
-102.837
11
217.886
21
-102.409
0
LINE
8
BLACK
6
CONTINUOUS
10
217.886
20
-102.409
11
217.743
21
-102.123
0
LINE
8
BLACK
6
CONTINUOUS
10
217.743
20
-102.123
11
217.6
21
-101.694
0
LINE
8
BLACK
6
CONTINUOUS
10
217.6
20
-101.694
11
217.457
21
-100.98
0
LINE
8
BLACK
6
CONTINUOUS
10
217.457
20
-100.98
11
217.457
21
-100.409
0
LINE
8
BLACK
6
CONTINUOUS
10
217.457
20
-100.409
11
217.6
21
-99.6943
0
LINE
8
BLACK
6
CONTINUOUS
10
217.6
20
-99.6943
11
217.743
21
-99.2657
0
LINE
8
BLACK
6
CONTINUOUS
10
217.743
20
-99.2657
11
217.886
21
-98.98
0
LINE
8
BLACK
6
CONTINUOUS
10
217.886
20
-98.98
11
218.171
21
-98.5514
0
LINE
8
BLACK
6
CONTINUOUS
10
218.171
20
-98.5514
11
218.314
21
-98.4086
0
LINE
8
BLACK
6
CONTINUOUS
10
219.314
20
-99.1229
11
219.457
21
-98.98
0
LINE
8
BLACK
6
CONTINUOUS
10
219.457
20
-98.98
11
219.743
21
-98.8371
0
LINE
8
BLACK
6
CONTINUOUS
10
219.743
20
-98.8371
11
220.457
21
-98.8371
0
LINE
8
BLACK
6
CONTINUOUS
10
220.457
20
-98.8371
11
220.743
21
-98.98
0
LINE
8
BLACK
6
CONTINUOUS
10
220.743
20
-98.98
11
220.886
21
-99.1229
0
LINE
8
BLACK
6
CONTINUOUS
10
220.886
20
-99.1229
11
221.029
21
-99.4086
0
LINE
8
BLACK
6
CONTINUOUS
10
221.029
20
-99.4086
11
221.029
21
-99.6943
0
LINE
8
BLACK
6
CONTINUOUS
10
221.029
20
-99.6943
11
220.886
21
-100.123
0
LINE
8
BLACK
6
CONTINUOUS
10
220.886
20
-100.123
11
219.171
21
-101.837
0
LINE
8
BLACK
6
CONTINUOUS
10
219.171
20
-101.837
11
221.029
21
-101.837
0
LINE
8
BLACK
6
CONTINUOUS
10
222.886
20
-98.8371
11
223.171
21
-98.8371
0
LINE
8
BLACK
6
CONTINUOUS
10
223.171
20
-98.8371
11
223.457
21
-98.98
0
LINE
8
BLACK
6
CONTINUOUS
10
223.457
20
-98.98
11
223.6
21
-99.1229
0
LINE
8
BLACK
6
CONTINUOUS
10
223.6
20
-99.1229
11
223.743
21
-99.4086
0
LINE
8
BLACK
6
CONTINUOUS
10
223.743
20
-99.4086
11
223.886
21
-99.98
0
LINE
8
BLACK
6
CONTINUOUS
10
223.886
20
-99.98
11
223.886
21
-100.694
0
LINE
8
BLACK
6
CONTINUOUS
10
223.886
20
-100.694
11
223.743
21
-101.266
0
LINE
8
BLACK
6
CONTINUOUS
10
223.743
20
-101.266
11
223.6
21
-101.551
0
LINE
8
BLACK
6
CONTINUOUS
10
223.6
20
-101.551
11
223.457
21
-101.694
0
LINE
8
BLACK
6
CONTINUOUS
10
223.457
20
-101.694
11
223.171
21
-101.837
0
LINE
8
BLACK
6
CONTINUOUS
10
223.171
20
-101.837
11
222.886
21
-101.837
0
LINE
8
BLACK
6
CONTINUOUS
10
222.886
20
-101.837
11
222.6
21
-101.694
0
LINE
8
BLACK
6
CONTINUOUS
10
222.6
20
-101.694
11
222.457
21
-101.551
0
LINE
8
BLACK
6
CONTINUOUS
10
222.457
20
-101.551
11
222.314
21
-101.266
0
LINE
8
BLACK
6
CONTINUOUS
10
222.314
20
-101.266
11
222.171
21
-100.694
0
LINE
8
BLACK
6
CONTINUOUS
10
222.171
20
-100.694
11
222.171
21
-99.98
0
LINE
8
BLACK
6
CONTINUOUS
10
222.171
20
-99.98
11
222.314
21
-99.4086
0
LINE
8
BLACK
6
CONTINUOUS
10
222.314
20
-99.4086
11
222.457
21
-99.1229
0
LINE
8
BLACK
6
CONTINUOUS
10
222.457
20
-99.1229
11
222.6
21
-98.98
0
LINE
8
BLACK
6
CONTINUOUS
10
222.6
20
-98.98
11
222.886
21
-98.8371
0
LINE
8
BLACK
6
CONTINUOUS
10
227.457
20
-101.837
11
227.457
21
-98.8371
0
LINE
8
BLACK
6
CONTINUOUS
10
228.743
20
-101.837
11
228.743
21
-100.266
0
LINE
8
BLACK
6
CONTINUOUS
10
228.743
20
-100.266
11
228.6
21
-99.98
0
LINE
8
BLACK
6
CONTINUOUS
10
228.6
20
-99.98
11
228.314
21
-99.8371
0
LINE
8
BLACK
6
CONTINUOUS
10
228.314
20
-99.8371
11
227.886
21
-99.8371
0
LINE
8
BLACK
6
CONTINUOUS
10
227.886
20
-99.8371
11
227.6
21
-99.98
0
LINE
8
BLACK
6
CONTINUOUS
10
227.6
20
-99.98
11
227.457
21
-100.123
0
LINE
8
BLACK
6
CONTINUOUS
10
230.6
20
-101.837
11
230.314
21
-101.694
0
LINE
8
BLACK
6
CONTINUOUS
10
230.314
20
-101.694
11
230.171
21
-101.551
0
LINE
8
BLACK
6
CONTINUOUS
10
230.171
20
-101.551
11
230.029
21
-101.266
0
LINE
8
BLACK
6
CONTINUOUS
10
230.029
20
-101.266
11
230.029
21
-100.409
0
LINE
8
BLACK
6
CONTINUOUS
10
230.029
20
-100.409
11
230.171
21
-100.123
0
LINE
8
BLACK
6
CONTINUOUS
10
230.171
20
-100.123
11
230.314
21
-99.98
0
LINE
8
BLACK
6
CONTINUOUS
10
230.314
20
-99.98
11
230.6
21
-99.8371
0
LINE
8
BLACK
6
CONTINUOUS
10
230.6
20
-99.8371
11
231.029
21
-99.8371
0
LINE
8
BLACK
6
CONTINUOUS
10
231.029
20
-99.8371
11
231.314
21
-99.98
0
LINE
8
BLACK
6
CONTINUOUS
10
231.314
20
-99.98
11
231.457
21
-100.123
0
LINE
8
BLACK
6
CONTINUOUS
10
231.457
20
-100.123
11
231.6
21
-100.409
0
LINE
8
BLACK
6
CONTINUOUS
10
231.6
20
-100.409
11
231.6
21
-101.266
0
LINE
8
BLACK
6
CONTINUOUS
10
231.6
20
-101.266
11
231.457
21
-101.551
0
LINE
8
BLACK
6
CONTINUOUS
10
231.457
20
-101.551
11
231.314
21
-101.694
0
LINE
8
BLACK
6
CONTINUOUS
10
231.314
20
-101.694
11
231.029
21
-101.837
0
LINE
8
BLACK
6
CONTINUOUS
10
231.029
20
-101.837
11
230.6
21
-101.837
0
LINE
8
BLACK
6
CONTINUOUS
10
233.314
20
-101.837
11
233.029
21
-101.694
0
LINE
8
BLACK
6
CONTINUOUS
10
233.029
20
-101.694
11
232.886
21
-101.409
0
LINE
8
BLACK
6
CONTINUOUS
10
232.886
20
-101.409
11
232.886
21
-98.8371
0
LINE
8
BLACK
6
CONTINUOUS
10
235.6
20
-101.694
11
235.314
21
-101.837
0
LINE
8
BLACK
6
CONTINUOUS
10
235.314
20
-101.837
11
234.743
21
-101.837
0
LINE
8
BLACK
6
CONTINUOUS
10
234.743
20
-101.837
11
234.457
21
-101.694
0
LINE
8
BLACK
6
CONTINUOUS
10
234.457
20
-101.694
11
234.314
21
-101.409
0
LINE
8
BLACK
6
CONTINUOUS
10
234.314
20
-101.409
11
234.314
21
-100.266
0
LINE
8
BLACK
6
CONTINUOUS
10
234.314
20
-100.266
11
234.457
21
-99.98
0
LINE
8
BLACK
6
CONTINUOUS
10
234.457
20
-99.98
11
234.743
21
-99.8371
0
LINE
8
BLACK
6
CONTINUOUS
10
234.743
20
-99.8371
11
235.314
21
-99.8371
0
LINE
8
BLACK
6
CONTINUOUS
10
235.314
20
-99.8371
11
235.6
21
-99.98
0
LINE
8
BLACK
6
CONTINUOUS
10
235.6
20
-99.98
11
235.743
21
-100.266
0
LINE
8
BLACK
6
CONTINUOUS
10
235.743
20
-100.266
11
235.743
21
-100.551
0
LINE
8
BLACK
6
CONTINUOUS
10
235.743
20
-100.551
11
234.314
21
-100.837
0
LINE
8
BLACK
6
CONTINUOUS
10
236.886
20
-101.694
11
237.171
21
-101.837
0
LINE
8
BLACK
6
CONTINUOUS
10
237.171
20
-101.837
11
237.743
21
-101.837
0
LINE
8
BLACK
6
CONTINUOUS
10
237.743
20
-101.837
11
238.029
21
-101.694
0
LINE
8
BLACK
6
CONTINUOUS
10
238.029
20
-101.694
11
238.171
21
-101.409
0
LINE
8
BLACK
6
CONTINUOUS
10
238.171
20
-101.409
11
238.171
21
-101.266
0
LINE
8
BLACK
6
CONTINUOUS
10
238.171
20
-101.266
11
238.029
21
-100.98
0
LINE
8
BLACK
6
CONTINUOUS
10
238.029
20
-100.98
11
237.743
21
-100.837
0
LINE
8
BLACK
6
CONTINUOUS
10
237.743
20
-100.837
11
237.314
21
-100.837
0
LINE
8
BLACK
6
CONTINUOUS
10
237.314
20
-100.837
11
237.029
21
-100.694
0
LINE
8
BLACK
6
CONTINUOUS
10
237.029
20
-100.694
11
236.886
21
-100.409
0
LINE
8
BLACK
6
CONTINUOUS
10
236.886
20
-100.409
11
236.886
21
-100.266
0
LINE
8
BLACK
6
CONTINUOUS
10
236.886
20
-100.266
11
237.029
21
-99.98
0
LINE
8
BLACK
6
CONTINUOUS
10
237.029
20
-99.98
11
237.314
21
-99.8371
0
LINE
8
BLACK
6
CONTINUOUS
10
237.314
20
-99.8371
11
237.743
21
-99.8371
0
LINE
8
BLACK
6
CONTINUOUS
10
237.743
20
-99.8371
11
238.029
21
-99.98
0
LINE
8
BLACK
6
CONTINUOUS
10
239.171
20
-102.98
11
239.314
21
-102.837
0
LINE
8
BLACK
6
CONTINUOUS
10
239.314
20
-102.837
11
239.6
21
-102.409
0
LINE
8
BLACK
6
CONTINUOUS
10
239.6
20
-102.409
11
239.743
21
-102.123
0
LINE
8
BLACK
6
CONTINUOUS
10
239.743
20
-102.123
11
239.886
21
-101.694
0
LINE
8
BLACK
6
CONTINUOUS
10
239.886
20
-101.694
11
240.029
21
-100.98
0
LINE
8
BLACK
6
CONTINUOUS
10
240.029
20
-100.98
11
240.029
21
-100.409
0
LINE
8
BLACK
6
CONTINUOUS
10
240.029
20
-100.409
11
239.886
21
-99.6943
0
LINE
8
BLACK
6
CONTINUOUS
10
239.886
20
-99.6943
11
239.743
21
-99.2657
0
LINE
8
BLACK
6
CONTINUOUS
10
239.743
20
-99.2657
11
239.6
21
-98.98
0
LINE
8
BLACK
6
CONTINUOUS
10
239.6
20
-98.98
11
239.314
21
-98.5514
0
LINE
8
BLACK
6
CONTINUOUS
10
239.314
20
-98.5514
11
239.171
21
-98.4086
0
LINE
8
BLACK
6
CONTINUOUS
10
171
20
-104.89
11
171.45
21
-104.44
0
LINE
8
BLACK
6
CONTINUOUS
10
171.45
20
-104.44
11
171
21
-103.99
0
LINE
8
BLACK
6
CONTINUOUS
10
171
20
-103.99
11
170.55
21
-104.44
0
LINE
8
BLACK
6
CONTINUOUS
10
170.55
20
-104.44
11
171
21
-104.89
0
LINE
8
BLACK
6
CONTINUOUS
10
174.886
20
-102.797
11
175.171
21
-102.797
0
LINE
8
BLACK
6
CONTINUOUS
10
175.171
20
-102.797
11
175.457
21
-102.94
0
LINE
8
BLACK
6
CONTINUOUS
10
175.457
20
-102.94
11
175.6
21
-103.083
0
LINE
8
BLACK
6
CONTINUOUS
10
175.6
20
-103.083
11
175.743
21
-103.369
0
LINE
8
BLACK
6
CONTINUOUS
10
175.743
20
-103.369
11
175.886
21
-103.94
0
LINE
8
BLACK
6
CONTINUOUS
10
175.886
20
-103.94
11
175.886
21
-104.654
0
LINE
8
BLACK
6
CONTINUOUS
10
175.886
20
-104.654
11
175.743
21
-105.226
0
LINE
8
BLACK
6
CONTINUOUS
10
175.743
20
-105.226
11
175.6
21
-105.511
0
LINE
8
BLACK
6
CONTINUOUS
10
175.6
20
-105.511
11
175.457
21
-105.654
0
LINE
8
BLACK
6
CONTINUOUS
10
175.457
20
-105.654
11
175.171
21
-105.797
0
LINE
8
BLACK
6
CONTINUOUS
10
175.171
20
-105.797
11
174.886
21
-105.797
0
LINE
8
BLACK
6
CONTINUOUS
10
174.886
20
-105.797
11
174.6
21
-105.654
0
LINE
8
BLACK
6
CONTINUOUS
10
174.6
20
-105.654
11
174.457
21
-105.511
0
LINE
8
BLACK
6
CONTINUOUS
10
174.457
20
-105.511
11
174.314
21
-105.226
0
LINE
8
BLACK
6
CONTINUOUS
10
174.314
20
-105.226
11
174.171
21
-104.654
0
LINE
8
BLACK
6
CONTINUOUS
10
174.171
20
-104.654
11
174.171
21
-103.94
0
LINE
8
BLACK
6
CONTINUOUS
10
174.171
20
-103.94
11
174.314
21
-103.369
0
LINE
8
BLACK
6
CONTINUOUS
10
174.314
20
-103.369
11
174.457
21
-103.083
0
LINE
8
BLACK
6
CONTINUOUS
10
174.457
20
-103.083
11
174.6
21
-102.94
0
LINE
8
BLACK
6
CONTINUOUS
10
174.6
20
-102.94
11
174.886
21
-102.797
0
LINE
8
BLACK
6
CONTINUOUS
10
177.171
20
-105.511
11
177.314
21
-105.654
0
LINE
8
BLACK
6
CONTINUOUS
10
177.314
20
-105.654
11
177.171
21
-105.797
0
LINE
8
BLACK
6
CONTINUOUS
10
177.171
20
-105.797
11
177.029
21
-105.654
0
LINE
8
BLACK
6
CONTINUOUS
10
177.029
20
-105.654
11
177.171
21
-105.511
0
LINE
8
BLACK
6
CONTINUOUS
10
177.171
20
-105.511
11
177.171
21
-105.797
0
LINE
8
BLACK
6
CONTINUOUS
10
178.743
20
-105.797
11
179.314
21
-105.797
0
LINE
8
BLACK
6
CONTINUOUS
10
179.314
20
-105.797
11
179.6
21
-105.654
0
LINE
8
BLACK
6
CONTINUOUS
10
179.6
20
-105.654
11
179.743
21
-105.511
0
LINE
8
BLACK
6
CONTINUOUS
10
179.743
20
-105.511
11
180.029
21
-105.083
0
LINE
8
BLACK
6
CONTINUOUS
10
180.029
20
-105.083
11
180.171
21
-104.511
0
LINE
8
BLACK
6
CONTINUOUS
10
180.171
20
-104.511
11
180.171
21
-103.369
0
LINE
8
BLACK
6
CONTINUOUS
10
180.171
20
-103.369
11
180.029
21
-103.083
0
LINE
8
BLACK
6
CONTINUOUS
10
180.029
20
-103.083
11
179.886
21
-102.94
0
LINE
8
BLACK
6
CONTINUOUS
10
179.886
20
-102.94
11
179.6
21
-102.797
0
LINE
8
BLACK
6
CONTINUOUS
10
179.6
20
-102.797
11
179.029
21
-102.797
0
LINE
8
BLACK
6
CONTINUOUS
10
179.029
20
-102.797
11
178.743
21
-102.94
0
LINE
8
BLACK
6
CONTINUOUS
10
178.743
20
-102.94
11
178.6
21
-103.083
0
LINE
8
BLACK
6
CONTINUOUS
10
178.6
20
-103.083
11
178.457
21
-103.369
0
LINE
8
BLACK
6
CONTINUOUS
10
178.457
20
-103.369
11
178.457
21
-104.083
0
LINE
8
BLACK
6
CONTINUOUS
10
178.457
20
-104.083
11
178.6
21
-104.369
0
LINE
8
BLACK
6
CONTINUOUS
10
178.6
20
-104.369
11
178.743
21
-104.511
0
LINE
8
BLACK
6
CONTINUOUS
10
178.743
20
-104.511
11
179.029
21
-104.654
0
LINE
8
BLACK
6
CONTINUOUS
10
179.029
20
-104.654
11
179.6
21
-104.654
0
LINE
8
BLACK
6
CONTINUOUS
10
179.6
20
-104.654
11
179.886
21
-104.511
0
LINE
8
BLACK
6
CONTINUOUS
10
179.886
20
-104.511
11
180.029
21
-104.369
0
LINE
8
BLACK
6
CONTINUOUS
10
180.029
20
-104.369
11
180.171
21
-104.083
0
LINE
8
BLACK
6
CONTINUOUS
10
182.029
20
-102.797
11
182.314
21
-102.797
0
LINE
8
BLACK
6
CONTINUOUS
10
182.314
20
-102.797
11
182.6
21
-102.94
0
LINE
8
BLACK
6
CONTINUOUS
10
182.6
20
-102.94
11
182.743
21
-103.083
0
LINE
8
BLACK
6
CONTINUOUS
10
182.743
20
-103.083
11
182.886
21
-103.369
0
LINE
8
BLACK
6
CONTINUOUS
10
182.886
20
-103.369
11
183.029
21
-103.94
0
LINE
8
BLACK
6
CONTINUOUS
10
183.029
20
-103.94
11
183.029
21
-104.654
0
LINE
8
BLACK
6
CONTINUOUS
10
183.029
20
-104.654
11
182.886
21
-105.226
0
LINE
8
BLACK
6
CONTINUOUS
10
182.886
20
-105.226
11
182.743
21
-105.511
0
LINE
8
BLACK
6
CONTINUOUS
10
182.743
20
-105.511
11
182.6
21
-105.654
0
LINE
8
BLACK
6
CONTINUOUS
10
182.6
20
-105.654
11
182.314
21
-105.797
0
LINE
8
BLACK
6
CONTINUOUS
10
182.314
20
-105.797
11
182.029
21
-105.797
0
LINE
8
BLACK
6
CONTINUOUS
10
182.029
20
-105.797
11
181.743
21
-105.654
0
LINE
8
BLACK
6
CONTINUOUS
10
181.743
20
-105.654
11
181.6
21
-105.511
0
LINE
8
BLACK
6
CONTINUOUS
10
181.6
20
-105.511
11
181.457
21
-105.226
0
LINE
8
BLACK
6
CONTINUOUS
10
181.457
20
-105.226
11
181.314
21
-104.654
0
LINE
8
BLACK
6
CONTINUOUS
10
181.314
20
-104.654
11
181.314
21
-103.94
0
LINE
8
BLACK
6
CONTINUOUS
10
181.314
20
-103.94
11
181.457
21
-103.369
0
LINE
8
BLACK
6
CONTINUOUS
10
181.457
20
-103.369
11
181.6
21
-103.083
0
LINE
8
BLACK
6
CONTINUOUS
10
181.6
20
-103.083
11
181.743
21
-102.94
0
LINE
8
BLACK
6
CONTINUOUS
10
181.743
20
-102.94
11
182.029
21
-102.797
0
LINE
8
BLACK
6
CONTINUOUS
10
184.314
20
-105.797
11
184.314
21
-103.797
0
LINE
8
BLACK
6
CONTINUOUS
10
184.314
20
-104.083
11
184.457
21
-103.94
0
LINE
8
BLACK
6
CONTINUOUS
10
184.457
20
-103.94
11
184.743
21
-103.797
0
LINE
8
BLACK
6
CONTINUOUS
10
184.743
20
-103.797
11
185.171
21
-103.797
0
LINE
8
BLACK
6
CONTINUOUS
10
185.171
20
-103.797
11
185.457
21
-103.94
0
LINE
8
BLACK
6
CONTINUOUS
10
185.457
20
-103.94
11
185.6
21
-104.226
0
LINE
8
BLACK
6
CONTINUOUS
10
185.6
20
-104.226
11
185.6
21
-105.797
0
LINE
8
BLACK
6
CONTINUOUS
10
185.6
20
-104.226
11
185.743
21
-103.94
0
LINE
8
BLACK
6
CONTINUOUS
10
185.743
20
-103.94
11
186.029
21
-103.797
0
LINE
8
BLACK
6
CONTINUOUS
10
186.029
20
-103.797
11
186.457
21
-103.797
0
LINE
8
BLACK
6
CONTINUOUS
10
186.457
20
-103.797
11
186.743
21
-103.94
0
LINE
8
BLACK
6
CONTINUOUS
10
186.743
20
-103.94
11
186.886
21
-104.226
0
LINE
8
BLACK
6
CONTINUOUS
10
186.886
20
-104.226
11
186.886
21
-105.797
0
LINE
8
BLACK
6
CONTINUOUS
10
188.314
20
-105.797
11
188.314
21
-103.797
0
LINE
8
BLACK
6
CONTINUOUS
10
188.314
20
-104.083
11
188.457
21
-103.94
0
LINE
8
BLACK
6
CONTINUOUS
10
188.457
20
-103.94
11
188.743
21
-103.797
0
LINE
8
BLACK
6
CONTINUOUS
10
188.743
20
-103.797
11
189.171
21
-103.797
0
LINE
8
BLACK
6
CONTINUOUS
10
189.171
20
-103.797
11
189.457
21
-103.94
0
LINE
8
BLACK
6
CONTINUOUS
10
189.457
20
-103.94
11
189.6
21
-104.226
0
LINE
8
BLACK
6
CONTINUOUS
10
189.6
20
-104.226
11
189.6
21
-105.797
0
LINE
8
BLACK
6
CONTINUOUS
10
189.6
20
-104.226
11
189.743
21
-103.94
0
LINE
8
BLACK
6
CONTINUOUS
10
189.743
20
-103.94
11
190.029
21
-103.797
0
LINE
8
BLACK
6
CONTINUOUS
10
190.029
20
-103.797
11
190.457
21
-103.797
0
LINE
8
BLACK
6
CONTINUOUS
10
190.457
20
-103.797
11
190.743
21
-103.94
0
LINE
8
BLACK
6
CONTINUOUS
10
190.743
20
-103.94
11
190.886
21
-104.226
0
LINE
8
BLACK
6
CONTINUOUS
10
190.886
20
-104.226
11
190.886
21
-105.797
0
LINE
8
BLACK
6
CONTINUOUS
10
196.743
20
-102.654
11
194.171
21
-106.511
0
LINE
8
BLACK
6
CONTINUOUS
10
200.6
20
-102.797
11
200.886
21
-102.797
0
LINE
8
BLACK
6
CONTINUOUS
10
200.886
20
-102.797
11
201.171
21
-102.94
0
LINE
8
BLACK
6
CONTINUOUS
10
201.171
20
-102.94
11
201.314
21
-103.083
0
LINE
8
BLACK
6
CONTINUOUS
10
201.314
20
-103.083
11
201.457
21
-103.369
0
LINE
8
BLACK
6
CONTINUOUS
10
201.457
20
-103.369
11
201.6
21
-103.94
0
LINE
8
BLACK
6
CONTINUOUS
10
201.6
20
-103.94
11
201.6
21
-104.654
0
LINE
8
BLACK
6
CONTINUOUS
10
201.6
20
-104.654
11
201.457
21
-105.226
0
LINE
8
BLACK
6
CONTINUOUS
10
201.457
20
-105.226
11
201.314
21
-105.511
0
LINE
8
BLACK
6
CONTINUOUS
10
201.314
20
-105.511
11
201.171
21
-105.654
0
LINE
8
BLACK
6
CONTINUOUS
10
201.171
20
-105.654
11
200.886
21
-105.797
0
LINE
8
BLACK
6
CONTINUOUS
10
200.886
20
-105.797
11
200.6
21
-105.797
0
LINE
8
BLACK
6
CONTINUOUS
10
200.6
20
-105.797
11
200.314
21
-105.654
0
LINE
8
BLACK
6
CONTINUOUS
10
200.314
20
-105.654
11
200.171
21
-105.511
0
LINE
8
BLACK
6
CONTINUOUS
10
200.171
20
-105.511
11
200.029
21
-105.226
0
LINE
8
BLACK
6
CONTINUOUS
10
200.029
20
-105.226
11
199.886
21
-104.654
0
LINE
8
BLACK
6
CONTINUOUS
10
199.886
20
-104.654
11
199.886
21
-103.94
0
LINE
8
BLACK
6
CONTINUOUS
10
199.886
20
-103.94
11
200.029
21
-103.369
0
LINE
8
BLACK
6
CONTINUOUS
10
200.029
20
-103.369
11
200.171
21
-103.083
0
LINE
8
BLACK
6
CONTINUOUS
10
200.171
20
-103.083
11
200.314
21
-102.94
0
LINE
8
BLACK
6
CONTINUOUS
10
200.314
20
-102.94
11
200.6
21
-102.797
0
LINE
8
BLACK
6
CONTINUOUS
10
202.886
20
-105.511
11
203.029
21
-105.654
0
LINE
8
BLACK
6
CONTINUOUS
10
203.029
20
-105.654
11
202.886
21
-105.797
0
LINE
8
BLACK
6
CONTINUOUS
10
202.886
20
-105.797
11
202.743
21
-105.654
0
LINE
8
BLACK
6
CONTINUOUS
10
202.743
20
-105.654
11
202.886
21
-105.511
0
LINE
8
BLACK
6
CONTINUOUS
10
202.886
20
-105.511
11
202.886
21
-105.797
0
LINE
8
BLACK
6
CONTINUOUS
10
204.886
20
-102.797
11
205.171
21
-102.797
0
LINE
8
BLACK
6
CONTINUOUS
10
205.171
20
-102.797
11
205.457
21
-102.94
0
LINE
8
BLACK
6
CONTINUOUS
10
205.457
20
-102.94
11
205.6
21
-103.083
0
LINE
8
BLACK
6
CONTINUOUS
10
205.6
20
-103.083
11
205.743
21
-103.369
0
LINE
8
BLACK
6
CONTINUOUS
10
205.743
20
-103.369
11
205.886
21
-103.94
0
LINE
8
BLACK
6
CONTINUOUS
10
205.886
20
-103.94
11
205.886
21
-104.654
0
LINE
8
BLACK
6
CONTINUOUS
10
205.886
20
-104.654
11
205.743
21
-105.226
0
LINE
8
BLACK
6
CONTINUOUS
10
205.743
20
-105.226
11
205.6
21
-105.511
0
LINE
8
BLACK
6
CONTINUOUS
10
205.6
20
-105.511
11
205.457
21
-105.654
0
LINE
8
BLACK
6
CONTINUOUS
10
205.457
20
-105.654
11
205.171
21
-105.797
0
LINE
8
BLACK
6
CONTINUOUS
10
205.171
20
-105.797
11
204.886
21
-105.797
0
LINE
8
BLACK
6
CONTINUOUS
10
204.886
20
-105.797
11
204.6
21
-105.654
0
LINE
8
BLACK
6
CONTINUOUS
10
204.6
20
-105.654
11
204.457
21
-105.511
0
LINE
8
BLACK
6
CONTINUOUS
10
204.457
20
-105.511
11
204.314
21
-105.226
0
LINE
8
BLACK
6
CONTINUOUS
10
204.314
20
-105.226
11
204.171
21
-104.654
0
LINE
8
BLACK
6
CONTINUOUS
10
204.171
20
-104.654
11
204.171
21
-103.94
0
LINE
8
BLACK
6
CONTINUOUS
10
204.171
20
-103.94
11
204.314
21
-103.369
0
LINE
8
BLACK
6
CONTINUOUS
10
204.314
20
-103.369
11
204.457
21
-103.083
0
LINE
8
BLACK
6
CONTINUOUS
10
204.457
20
-103.083
11
204.6
21
-102.94
0
LINE
8
BLACK
6
CONTINUOUS
10
204.6
20
-102.94
11
204.886
21
-102.797
0
LINE
8
BLACK
6
CONTINUOUS
10
206.886
20
-102.797
11
208.743
21
-102.797
0
LINE
8
BLACK
6
CONTINUOUS
10
208.743
20
-102.797
11
207.743
21
-103.94
0
LINE
8
BLACK
6
CONTINUOUS
10
207.743
20
-103.94
11
208.171
21
-103.94
0
LINE
8
BLACK
6
CONTINUOUS
10
208.171
20
-103.94
11
208.457
21
-104.083
0
LINE
8
BLACK
6
CONTINUOUS
10
208.457
20
-104.083
11
208.6
21
-104.226
0
LINE
8
BLACK
6
CONTINUOUS
10
208.6
20
-104.226
11
208.743
21
-104.511
0
LINE
8
BLACK
6
CONTINUOUS
10
208.743
20
-104.511
11
208.743
21
-105.226
0
LINE
8
BLACK
6
CONTINUOUS
10
208.743
20
-105.226
11
208.6
21
-105.511
0
LINE
8
BLACK
6
CONTINUOUS
10
208.6
20
-105.511
11
208.457
21
-105.654
0
LINE
8
BLACK
6
CONTINUOUS
10
208.457
20
-105.654
11
208.171
21
-105.797
0
LINE
8
BLACK
6
CONTINUOUS
10
208.171
20
-105.797
11
207.314
21
-105.797
0
LINE
8
BLACK
6
CONTINUOUS
10
207.314
20
-105.797
11
207.029
21
-105.654
0
LINE
8
BLACK
6
CONTINUOUS
10
207.029
20
-105.654
11
206.886
21
-105.511
0
LINE
8
BLACK
6
CONTINUOUS
10
211.457
20
-102.797
11
210.029
21
-102.797
0
LINE
8
BLACK
6
CONTINUOUS
10
210.029
20
-102.797
11
209.886
21
-104.226
0
LINE
8
BLACK
6
CONTINUOUS
10
209.886
20
-104.226
11
210.029
21
-104.083
0
LINE
8
BLACK
6
CONTINUOUS
10
210.029
20
-104.083
11
210.314
21
-103.94
0
LINE
8
BLACK
6
CONTINUOUS
10
210.314
20
-103.94
11
211.029
21
-103.94
0
LINE
8
BLACK
6
CONTINUOUS
10
211.029
20
-103.94
11
211.314
21
-104.083
0
LINE
8
BLACK
6
CONTINUOUS
10
211.314
20
-104.083
11
211.457
21
-104.226
0
LINE
8
BLACK
6
CONTINUOUS
10
211.457
20
-104.226
11
211.6
21
-104.511
0
LINE
8
BLACK
6
CONTINUOUS
10
211.6
20
-104.511
11
211.6
21
-105.226
0
LINE
8
BLACK
6
CONTINUOUS
10
211.6
20
-105.226
11
211.457
21
-105.511
0
LINE
8
BLACK
6
CONTINUOUS
10
211.457
20
-105.511
11
211.314
21
-105.654
0
LINE
8
BLACK
6
CONTINUOUS
10
211.314
20
-105.654
11
211.029
21
-105.797
0
LINE
8
BLACK
6
CONTINUOUS
10
211.029
20
-105.797
11
210.314
21
-105.797
0
LINE
8
BLACK
6
CONTINUOUS
10
210.314
20
-105.797
11
210.029
21
-105.654
0
LINE
8
BLACK
6
CONTINUOUS
10
210.029
20
-105.654
11
209.886
21
-105.511
0
LINE
8
BLACK
6
CONTINUOUS
10
212.743
20
-102.797
11
212.743
21
-103.369
0
LINE
8
BLACK
6
CONTINUOUS
10
213.886
20
-102.797
11
213.886
21
-103.369
0
LINE
8
BLACK
6
CONTINUOUS
10
218.314
20
-106.94
11
218.171
21
-106.797
0
LINE
8
BLACK
6
CONTINUOUS
10
218.171
20
-106.797
11
217.886
21
-106.369
0
LINE
8
BLACK
6
CONTINUOUS
10
217.886
20
-106.369
11
217.743
21
-106.083
0
LINE
8
BLACK
6
CONTINUOUS
10
217.743
20
-106.083
11
217.6
21
-105.654
0
LINE
8
BLACK
6
CONTINUOUS
10
217.6
20
-105.654
11
217.457
21
-104.94
0
LINE
8
BLACK
6
CONTINUOUS
10
217.457
20
-104.94
11
217.457
21
-104.369
0
LINE
8
BLACK
6
CONTINUOUS
10
217.457
20
-104.369
11
217.6
21
-103.654
0
LINE
8
BLACK
6
CONTINUOUS
10
217.6
20
-103.654
11
217.743
21
-103.226
0
LINE
8
BLACK
6
CONTINUOUS
10
217.743
20
-103.226
11
217.886
21
-102.94
0
LINE
8
BLACK
6
CONTINUOUS
10
217.886
20
-102.94
11
218.171
21
-102.511
0
LINE
8
BLACK
6
CONTINUOUS
10
218.171
20
-102.511
11
218.314
21
-102.369
0
LINE
8
BLACK
6
CONTINUOUS
10
219.314
20
-103.083
11
219.457
21
-102.94
0
LINE
8
BLACK
6
CONTINUOUS
10
219.457
20
-102.94
11
219.743
21
-102.797
0
LINE
8
BLACK
6
CONTINUOUS
10
219.743
20
-102.797
11
220.457
21
-102.797
0
LINE
8
BLACK
6
CONTINUOUS
10
220.457
20
-102.797
11
220.743
21
-102.94
0
LINE
8
BLACK
6
CONTINUOUS
10
220.743
20
-102.94
11
220.886
21
-103.083
0
LINE
8
BLACK
6
CONTINUOUS
10
220.886
20
-103.083
11
221.029
21
-103.369
0
LINE
8
BLACK
6
CONTINUOUS
10
221.029
20
-103.369
11
221.029
21
-103.654
0
LINE
8
BLACK
6
CONTINUOUS
10
221.029
20
-103.654
11
220.886
21
-104.083
0
LINE
8
BLACK
6
CONTINUOUS
10
220.886
20
-104.083
11
219.171
21
-105.797
0
LINE
8
BLACK
6
CONTINUOUS
10
219.171
20
-105.797
11
221.029
21
-105.797
0
LINE
8
BLACK
6
CONTINUOUS
10
224.6
20
-105.797
11
224.6
21
-102.797
0
LINE
8
BLACK
6
CONTINUOUS
10
225.886
20
-105.797
11
225.886
21
-104.226
0
LINE
8
BLACK
6
CONTINUOUS
10
225.886
20
-104.226
11
225.743
21
-103.94
0
LINE
8
BLACK
6
CONTINUOUS
10
225.743
20
-103.94
11
225.457
21
-103.797
0
LINE
8
BLACK
6
CONTINUOUS
10
225.457
20
-103.797
11
225.029
21
-103.797
0
LINE
8
BLACK
6
CONTINUOUS
10
225.029
20
-103.797
11
224.743
21
-103.94
0
LINE
8
BLACK
6
CONTINUOUS
10
224.743
20
-103.94
11
224.6
21
-104.083
0
LINE
8
BLACK
6
CONTINUOUS
10
227.743
20
-105.797
11
227.457
21
-105.654
0
LINE
8
BLACK
6
CONTINUOUS
10
227.457
20
-105.654
11
227.314
21
-105.511
0
LINE
8
BLACK
6
CONTINUOUS
10
227.314
20
-105.511
11
227.171
21
-105.226
0
LINE
8
BLACK
6
CONTINUOUS
10
227.171
20
-105.226
11
227.171
21
-104.369
0
LINE
8
BLACK
6
CONTINUOUS
10
227.171
20
-104.369
11
227.314
21
-104.083
0
LINE
8
BLACK
6
CONTINUOUS
10
227.314
20
-104.083
11
227.457
21
-103.94
0
LINE
8
BLACK
6
CONTINUOUS
10
227.457
20
-103.94
11
227.743
21
-103.797
0
LINE
8
BLACK
6
CONTINUOUS
10
227.743
20
-103.797
11
228.171
21
-103.797
0
LINE
8
BLACK
6
CONTINUOUS
10
228.171
20
-103.797
11
228.457
21
-103.94
0
LINE
8
BLACK
6
CONTINUOUS
10
228.457
20
-103.94
11
228.6
21
-104.083
0
LINE
8
BLACK
6
CONTINUOUS
10
228.6
20
-104.083
11
228.743
21
-104.369
0
LINE
8
BLACK
6
CONTINUOUS
10
228.743
20
-104.369
11
228.743
21
-105.226
0
LINE
8
BLACK
6
CONTINUOUS
10
228.743
20
-105.226
11
228.6
21
-105.511
0
LINE
8
BLACK
6
CONTINUOUS
10
228.6
20
-105.511
11
228.457
21
-105.654
0
LINE
8
BLACK
6
CONTINUOUS
10
228.457
20
-105.654
11
228.171
21
-105.797
0
LINE
8
BLACK
6
CONTINUOUS
10
228.171
20
-105.797
11
227.743
21
-105.797
0
LINE
8
BLACK
6
CONTINUOUS
10
230.457
20
-105.797
11
230.171
21
-105.654
0
LINE
8
BLACK
6
CONTINUOUS
10
230.171
20
-105.654
11
230.029
21
-105.369
0
LINE
8
BLACK
6
CONTINUOUS
10
230.029
20
-105.369
11
230.029
21
-102.797
0
LINE
8
BLACK
6
CONTINUOUS
10
232.743
20
-105.654
11
232.457
21
-105.797
0
LINE
8
BLACK
6
CONTINUOUS
10
232.457
20
-105.797
11
231.886
21
-105.797
0
LINE
8
BLACK
6
CONTINUOUS
10
231.886
20
-105.797
11
231.6
21
-105.654
0
LINE
8
BLACK
6
CONTINUOUS
10
231.6
20
-105.654
11
231.457
21
-105.369
0
LINE
8
BLACK
6
CONTINUOUS
10
231.457
20
-105.369
11
231.457
21
-104.226
0
LINE
8
BLACK
6
CONTINUOUS
10
231.457
20
-104.226
11
231.6
21
-103.94
0
LINE
8
BLACK
6
CONTINUOUS
10
231.6
20
-103.94
11
231.886
21
-103.797
0
LINE
8
BLACK
6
CONTINUOUS
10
231.886
20
-103.797
11
232.457
21
-103.797
0
LINE
8
BLACK
6
CONTINUOUS
10
232.457
20
-103.797
11
232.743
21
-103.94
0
LINE
8
BLACK
6
CONTINUOUS
10
232.743
20
-103.94
11
232.886
21
-104.226
0
LINE
8
BLACK
6
CONTINUOUS
10
232.886
20
-104.226
11
232.886
21
-104.511
0
LINE
8
BLACK
6
CONTINUOUS
10
232.886
20
-104.511
11
231.457
21
-104.797
0
LINE
8
BLACK
6
CONTINUOUS
10
234.029
20
-105.654
11
234.314
21
-105.797
0
LINE
8
BLACK
6
CONTINUOUS
10
234.314
20
-105.797
11
234.886
21
-105.797
0
LINE
8
BLACK
6
CONTINUOUS
10
234.886
20
-105.797
11
235.171
21
-105.654
0
LINE
8
BLACK
6
CONTINUOUS
10
235.171
20
-105.654
11
235.314
21
-105.369
0
LINE
8
BLACK
6
CONTINUOUS
10
235.314
20
-105.369
11
235.314
21
-105.226
0
LINE
8
BLACK
6
CONTINUOUS
10
235.314
20
-105.226
11
235.171
21
-104.94
0
LINE
8
BLACK
6
CONTINUOUS
10
235.171
20
-104.94
11
234.886
21
-104.797
0
LINE
8
BLACK
6
CONTINUOUS
10
234.886
20
-104.797
11
234.457
21
-104.797
0
LINE
8
BLACK
6
CONTINUOUS
10
234.457
20
-104.797
11
234.171
21
-104.654
0
LINE
8
BLACK
6
CONTINUOUS
10
234.171
20
-104.654
11
234.029
21
-104.369
0
LINE
8
BLACK
6
CONTINUOUS
10
234.029
20
-104.369
11
234.029
21
-104.226
0
LINE
8
BLACK
6
CONTINUOUS
10
234.029
20
-104.226
11
234.171
21
-103.94
0
LINE
8
BLACK
6
CONTINUOUS
10
234.171
20
-103.94
11
234.457
21
-103.797
0
LINE
8
BLACK
6
CONTINUOUS
10
234.457
20
-103.797
11
234.886
21
-103.797
0
LINE
8
BLACK
6
CONTINUOUS
10
234.886
20
-103.797
11
235.171
21
-103.94
0
LINE
8
BLACK
6
CONTINUOUS
10
236.314
20
-106.94
11
236.457
21
-106.797
0
LINE
8
BLACK
6
CONTINUOUS
10
236.457
20
-106.797
11
236.743
21
-106.369
0
LINE
8
BLACK
6
CONTINUOUS
10
236.743
20
-106.369
11
236.886
21
-106.083
0
LINE
8
BLACK
6
CONTINUOUS
10
236.886
20
-106.083
11
237.029
21
-105.654
0
LINE
8
BLACK
6
CONTINUOUS
10
237.029
20
-105.654
11
237.171
21
-104.94
0
LINE
8
BLACK
6
CONTINUOUS
10
237.171
20
-104.94
11
237.171
21
-104.369
0
LINE
8
BLACK
6
CONTINUOUS
10
237.171
20
-104.369
11
237.029
21
-103.654
0
LINE
8
BLACK
6
CONTINUOUS
10
237.029
20
-103.654
11
236.886
21
-103.226
0
LINE
8
BLACK
6
CONTINUOUS
10
236.886
20
-103.226
11
236.743
21
-102.94
0
LINE
8
BLACK
6
CONTINUOUS
10
236.743
20
-102.94
11
236.457
21
-102.511
0
LINE
8
BLACK
6
CONTINUOUS
10
236.457
20
-102.511
11
236.314
21
-102.369
0
LINE
8
BLACK
6
CONTINUOUS
10
170.45
20
-107.9
11
171.45
21
-108.9
0
LINE
8
BLACK
6
CONTINUOUS
10
171.45
20
-107.9
11
170.45
21
-108.9
0
CIRCLE
8
BLACK
10
170.95
20
-108.4
40
0.5
0
LINE
8
BLACK
6
CONTINUOUS
10
175.886
20
-109.757
11
174.171
21
-109.757
0
LINE
8
BLACK
6
CONTINUOUS
10
175.029
20
-109.757
11
175.029
21
-106.757
0
LINE
8
BLACK
6
CONTINUOUS
10
175.029
20
-106.757
11
174.743
21
-107.186
0
LINE
8
BLACK
6
CONTINUOUS
10
174.743
20
-107.186
11
174.457
21
-107.471
0
LINE
8
BLACK
6
CONTINUOUS
10
174.457
20
-107.471
11
174.171
21
-107.614
0
LINE
8
BLACK
6
CONTINUOUS
10
177.171
20
-109.471
11
177.314
21
-109.614
0
LINE
8
BLACK
6
CONTINUOUS
10
177.314
20
-109.614
11
177.171
21
-109.757
0
LINE
8
BLACK
6
CONTINUOUS
10
177.171
20
-109.757
11
177.029
21
-109.614
0
LINE
8
BLACK
6
CONTINUOUS
10
177.029
20
-109.614
11
177.171
21
-109.471
0
LINE
8
BLACK
6
CONTINUOUS
10
177.171
20
-109.471
11
177.171
21
-109.757
0
LINE
8
BLACK
6
CONTINUOUS
10
179.171
20
-106.757
11
179.457
21
-106.757
0
LINE
8
BLACK
6
CONTINUOUS
10
179.457
20
-106.757
11
179.743
21
-106.9
0
LINE
8
BLACK
6
CONTINUOUS
10
179.743
20
-106.9
11
179.886
21
-107.043
0
LINE
8
BLACK
6
CONTINUOUS
10
179.886
20
-107.043
11
180.029
21
-107.329
0
LINE
8
BLACK
6
CONTINUOUS
10
180.029
20
-107.329
11
180.171
21
-107.9
0
LINE
8
BLACK
6
CONTINUOUS
10
180.171
20
-107.9
11
180.171
21
-108.614
0
LINE
8
BLACK
6
CONTINUOUS
10
180.171
20
-108.614
11
180.029
21
-109.186
0
LINE
8
BLACK
6
CONTINUOUS
10
180.029
20
-109.186
11
179.886
21
-109.471
0
LINE
8
BLACK
6
CONTINUOUS
10
179.886
20
-109.471
11
179.743
21
-109.614
0
LINE
8
BLACK
6
CONTINUOUS
10
179.743
20
-109.614
11
179.457
21
-109.757
0
LINE
8
BLACK
6
CONTINUOUS
10
179.457
20
-109.757
11
179.171
21
-109.757
0
LINE
8
BLACK
6
CONTINUOUS
10
179.171
20
-109.757
11
178.886
21
-109.614
0
LINE
8
BLACK
6
CONTINUOUS
10
178.886
20
-109.614
11
178.743
21
-109.471
0
LINE
8
BLACK
6
CONTINUOUS
10
178.743
20
-109.471
11
178.6
21
-109.186
0
LINE
8
BLACK
6
CONTINUOUS
10
178.6
20
-109.186
11
178.457
21
-108.614
0
LINE
8
BLACK
6
CONTINUOUS
10
178.457
20
-108.614
11
178.457
21
-107.9
0
LINE
8
BLACK
6
CONTINUOUS
10
178.457
20
-107.9
11
178.6
21
-107.329
0
LINE
8
BLACK
6
CONTINUOUS
10
178.6
20
-107.329
11
178.743
21
-107.043
0
LINE
8
BLACK
6
CONTINUOUS
10
178.743
20
-107.043
11
178.886
21
-106.9
0
LINE
8
BLACK
6
CONTINUOUS
10
178.886
20
-106.9
11
179.171
21
-106.757
0
LINE
8
BLACK
6
CONTINUOUS
10
182.029
20
-106.757
11
182.314
21
-106.757
0
LINE
8
BLACK
6
CONTINUOUS
10
182.314
20
-106.757
11
182.6
21
-106.9
0
LINE
8
BLACK
6
CONTINUOUS
10
182.6
20
-106.9
11
182.743
21
-107.043
0
LINE
8
BLACK
6
CONTINUOUS
10
182.743
20
-107.043
11
182.886
21
-107.329
0
LINE
8
BLACK
6
CONTINUOUS
10
182.886
20
-107.329
11
183.029
21
-107.9
0
LINE
8
BLACK
6
CONTINUOUS
10
183.029
20
-107.9
11
183.029
21
-108.614
0
LINE
8
BLACK
6
CONTINUOUS
10
183.029
20
-108.614
11
182.886
21
-109.186
0
LINE
8
BLACK
6
CONTINUOUS
10
182.886
20
-109.186
11
182.743
21
-109.471
0
LINE
8
BLACK
6
CONTINUOUS
10
182.743
20
-109.471
11
182.6
21
-109.614
0
LINE
8
BLACK
6
CONTINUOUS
10
182.6
20
-109.614
11
182.314
21
-109.757
0
LINE
8
BLACK
6
CONTINUOUS
10
182.314
20
-109.757
11
182.029
21
-109.757
0
LINE
8
BLACK
6
CONTINUOUS
10
182.029
20
-109.757
11
181.743
21
-109.614
0
LINE
8
BLACK
6
CONTINUOUS
10
181.743
20
-109.614
11
181.6
21
-109.471
0
LINE
8
BLACK
6
CONTINUOUS
10
181.6
20
-109.471
11
181.457
21
-109.186
0
LINE
8
BLACK
6
CONTINUOUS
10
181.457
20
-109.186
11
181.314
21
-108.614
0
LINE
8
BLACK
6
CONTINUOUS
10
181.314
20
-108.614
11
181.314
21
-107.9
0
LINE
8
BLACK
6
CONTINUOUS
10
181.314
20
-107.9
11
181.457
21
-107.329
0
LINE
8
BLACK
6
CONTINUOUS
10
181.457
20
-107.329
11
181.6
21
-107.043
0
LINE
8
BLACK
6
CONTINUOUS
10
181.6
20
-107.043
11
181.743
21
-106.9
0
LINE
8
BLACK
6
CONTINUOUS
10
181.743
20
-106.9
11
182.029
21
-106.757
0
LINE
8
BLACK
6
CONTINUOUS
10
184.314
20
-109.757
11
184.314
21
-107.757
0
LINE
8
BLACK
6
CONTINUOUS
10
184.314
20
-108.043
11
184.457
21
-107.9
0
LINE
8
BLACK
6
CONTINUOUS
10
184.457
20
-107.9
11
184.743
21
-107.757
0
LINE
8
BLACK
6
CONTINUOUS
10
184.743
20
-107.757
11
185.171
21
-107.757
0
LINE
8
BLACK
6
CONTINUOUS
10
185.171
20
-107.757
11
185.457
21
-107.9
0
LINE
8
BLACK
6
CONTINUOUS
10
185.457
20
-107.9
11
185.6
21
-108.186
0
LINE
8
BLACK
6
CONTINUOUS
10
185.6
20
-108.186
11
185.6
21
-109.757
0
LINE
8
BLACK
6
CONTINUOUS
10
185.6
20
-108.186
11
185.743
21
-107.9
0
LINE
8
BLACK
6
CONTINUOUS
10
185.743
20
-107.9
11
186.029
21
-107.757
0
LINE
8
BLACK
6
CONTINUOUS
10
186.029
20
-107.757
11
186.457
21
-107.757
0
LINE
8
BLACK
6
CONTINUOUS
10
186.457
20
-107.757
11
186.743
21
-107.9
0
LINE
8
BLACK
6
CONTINUOUS
10
186.743
20
-107.9
11
186.886
21
-108.186
0
LINE
8
BLACK
6
CONTINUOUS
10
186.886
20
-108.186
11
186.886
21
-109.757
0
LINE
8
BLACK
6
CONTINUOUS
10
188.314
20
-109.757
11
188.314
21
-107.757
0
LINE
8
BLACK
6
CONTINUOUS
10
188.314
20
-108.043
11
188.457
21
-107.9
0
LINE
8
BLACK
6
CONTINUOUS
10
188.457
20
-107.9
11
188.743
21
-107.757
0
LINE
8
BLACK
6
CONTINUOUS
10
188.743
20
-107.757
11
189.171
21
-107.757
0
LINE
8
BLACK
6
CONTINUOUS
10
189.171
20
-107.757
11
189.457
21
-107.9
0
LINE
8
BLACK
6
CONTINUOUS
10
189.457
20
-107.9
11
189.6
21
-108.186
0
LINE
8
BLACK
6
CONTINUOUS
10
189.6
20
-108.186
11
189.6
21
-109.757
0
LINE
8
BLACK
6
CONTINUOUS
10
189.6
20
-108.186
11
189.743
21
-107.9
0
LINE
8
BLACK
6
CONTINUOUS
10
189.743
20
-107.9
11
190.029
21
-107.757
0
LINE
8
BLACK
6
CONTINUOUS
10
190.029
20
-107.757
11
190.457
21
-107.757
0
LINE
8
BLACK
6
CONTINUOUS
10
190.457
20
-107.757
11
190.743
21
-107.9
0
LINE
8
BLACK
6
CONTINUOUS
10
190.743
20
-107.9
11
190.886
21
-108.186
0
LINE
8
BLACK
6
CONTINUOUS
10
190.886
20
-108.186
11
190.886
21
-109.757
0
LINE
8
BLACK
6
CONTINUOUS
10
196.743
20
-106.614
11
194.171
21
-110.471
0
LINE
8
BLACK
6
CONTINUOUS
10
200.6
20
-106.757
11
200.886
21
-106.757
0
LINE
8
BLACK
6
CONTINUOUS
10
200.886
20
-106.757
11
201.171
21
-106.9
0
LINE
8
BLACK
6
CONTINUOUS
10
201.171
20
-106.9
11
201.314
21
-107.043
0
LINE
8
BLACK
6
CONTINUOUS
10
201.314
20
-107.043
11
201.457
21
-107.329
0
LINE
8
BLACK
6
CONTINUOUS
10
201.457
20
-107.329
11
201.6
21
-107.9
0
LINE
8
BLACK
6
CONTINUOUS
10
201.6
20
-107.9
11
201.6
21
-108.614
0
LINE
8
BLACK
6
CONTINUOUS
10
201.6
20
-108.614
11
201.457
21
-109.186
0
LINE
8
BLACK
6
CONTINUOUS
10
201.457
20
-109.186
11
201.314
21
-109.471
0
LINE
8
BLACK
6
CONTINUOUS
10
201.314
20
-109.471
11
201.171
21
-109.614
0
LINE
8
BLACK
6
CONTINUOUS
10
201.171
20
-109.614
11
200.886
21
-109.757
0
LINE
8
BLACK
6
CONTINUOUS
10
200.886
20
-109.757
11
200.6
21
-109.757
0
LINE
8
BLACK
6
CONTINUOUS
10
200.6
20
-109.757
11
200.314
21
-109.614
0
LINE
8
BLACK
6
CONTINUOUS
10
200.314
20
-109.614
11
200.171
21
-109.471
0
LINE
8
BLACK
6
CONTINUOUS
10
200.171
20
-109.471
11
200.029
21
-109.186
0
LINE
8
BLACK
6
CONTINUOUS
10
200.029
20
-109.186
11
199.886
21
-108.614
0
LINE
8
BLACK
6
CONTINUOUS
10
199.886
20
-108.614
11
199.886
21
-107.9
0
LINE
8
BLACK
6
CONTINUOUS
10
199.886
20
-107.9
11
200.029
21
-107.329
0
LINE
8
BLACK
6
CONTINUOUS
10
200.029
20
-107.329
11
200.171
21
-107.043
0
LINE
8
BLACK
6
CONTINUOUS
10
200.171
20
-107.043
11
200.314
21
-106.9
0
LINE
8
BLACK
6
CONTINUOUS
10
200.314
20
-106.9
11
200.6
21
-106.757
0
LINE
8
BLACK
6
CONTINUOUS
10
202.886
20
-109.471
11
203.029
21
-109.614
0
LINE
8
BLACK
6
CONTINUOUS
10
203.029
20
-109.614
11
202.886
21
-109.757
0
LINE
8
BLACK
6
CONTINUOUS
10
202.886
20
-109.757
11
202.743
21
-109.614
0
LINE
8
BLACK
6
CONTINUOUS
10
202.743
20
-109.614
11
202.886
21
-109.471
0
LINE
8
BLACK
6
CONTINUOUS
10
202.886
20
-109.471
11
202.886
21
-109.757
0
LINE
8
BLACK
6
CONTINUOUS
10
204.886
20
-106.757
11
205.171
21
-106.757
0
LINE
8
BLACK
6
CONTINUOUS
10
205.171
20
-106.757
11
205.457
21
-106.9
0
LINE
8
BLACK
6
CONTINUOUS
10
205.457
20
-106.9
11
205.6
21
-107.043
0
LINE
8
BLACK
6
CONTINUOUS
10
205.6
20
-107.043
11
205.743
21
-107.329
0
LINE
8
BLACK
6
CONTINUOUS
10
205.743
20
-107.329
11
205.886
21
-107.9
0
LINE
8
BLACK
6
CONTINUOUS
10
205.886
20
-107.9
11
205.886
21
-108.614
0
LINE
8
BLACK
6
CONTINUOUS
10
205.886
20
-108.614
11
205.743
21
-109.186
0
LINE
8
BLACK
6
CONTINUOUS
10
205.743
20
-109.186
11
205.6
21
-109.471
0
LINE
8
BLACK
6
CONTINUOUS
10
205.6
20
-109.471
11
205.457
21
-109.614
0
LINE
8
BLACK
6
CONTINUOUS
10
205.457
20
-109.614
11
205.171
21
-109.757
0
LINE
8
BLACK
6
CONTINUOUS
10
205.171
20
-109.757
11
204.886
21
-109.757
0
LINE
8
BLACK
6
CONTINUOUS
10
204.886
20
-109.757
11
204.6
21
-109.614
0
LINE
8
BLACK
6
CONTINUOUS
10
204.6
20
-109.614
11
204.457
21
-109.471
0
LINE
8
BLACK
6
CONTINUOUS
10
204.457
20
-109.471
11
204.314
21
-109.186
0
LINE
8
BLACK
6
CONTINUOUS
10
204.314
20
-109.186
11
204.171
21
-108.614
0
LINE
8
BLACK
6
CONTINUOUS
10
204.171
20
-108.614
11
204.171
21
-107.9
0
LINE
8
BLACK
6
CONTINUOUS
10
204.171
20
-107.9
11
204.314
21
-107.329
0
LINE
8
BLACK
6
CONTINUOUS
10
204.314
20
-107.329
11
204.457
21
-107.043
0
LINE
8
BLACK
6
CONTINUOUS
10
204.457
20
-107.043
11
204.6
21
-106.9
0
LINE
8
BLACK
6
CONTINUOUS
10
204.6
20
-106.9
11
204.886
21
-106.757
0
LINE
8
BLACK
6
CONTINUOUS
10
206.886
20
-106.757
11
208.743
21
-106.757
0
LINE
8
BLACK
6
CONTINUOUS
10
208.743
20
-106.757
11
207.743
21
-107.9
0
LINE
8
BLACK
6
CONTINUOUS
10
207.743
20
-107.9
11
208.171
21
-107.9
0
LINE
8
BLACK
6
CONTINUOUS
10
208.171
20
-107.9
11
208.457
21
-108.043
0
LINE
8
BLACK
6
CONTINUOUS
10
208.457
20
-108.043
11
208.6
21
-108.186
0
LINE
8
BLACK
6
CONTINUOUS
10
208.6
20
-108.186
11
208.743
21
-108.471
0
LINE
8
BLACK
6
CONTINUOUS
10
208.743
20
-108.471
11
208.743
21
-109.186
0
LINE
8
BLACK
6
CONTINUOUS
10
208.743
20
-109.186
11
208.6
21
-109.471
0
LINE
8
BLACK
6
CONTINUOUS
10
208.6
20
-109.471
11
208.457
21
-109.614
0
LINE
8
BLACK
6
CONTINUOUS
10
208.457
20
-109.614
11
208.171
21
-109.757
0
LINE
8
BLACK
6
CONTINUOUS
10
208.171
20
-109.757
11
207.314
21
-109.757
0
LINE
8
BLACK
6
CONTINUOUS
10
207.314
20
-109.757
11
207.029
21
-109.614
0
LINE
8
BLACK
6
CONTINUOUS
10
207.029
20
-109.614
11
206.886
21
-109.471
0
LINE
8
BLACK
6
CONTINUOUS
10
210.171
20
-109.757
11
210.743
21
-109.757
0
LINE
8
BLACK
6
CONTINUOUS
10
210.743
20
-109.757
11
211.029
21
-109.614
0
LINE
8
BLACK
6
CONTINUOUS
10
211.029
20
-109.614
11
211.171
21
-109.471
0
LINE
8
BLACK
6
CONTINUOUS
10
211.171
20
-109.471
11
211.457
21
-109.043
0
LINE
8
BLACK
6
CONTINUOUS
10
211.457
20
-109.043
11
211.6
21
-108.471
0
LINE
8
BLACK
6
CONTINUOUS
10
211.6
20
-108.471
11
211.6
21
-107.329
0
LINE
8
BLACK
6
CONTINUOUS
10
211.6
20
-107.329
11
211.457
21
-107.043
0
LINE
8
BLACK
6
CONTINUOUS
10
211.457
20
-107.043
11
211.314
21
-106.9
0
LINE
8
BLACK
6
CONTINUOUS
10
211.314
20
-106.9
11
211.029
21
-106.757
0
LINE
8
BLACK
6
CONTINUOUS
10
211.029
20
-106.757
11
210.457
21
-106.757
0
LINE
8
BLACK
6
CONTINUOUS
10
210.457
20
-106.757
11
210.171
21
-106.9
0
LINE
8
BLACK
6
CONTINUOUS
10
210.171
20
-106.9
11
210.029
21
-107.043
0
LINE
8
BLACK
6
CONTINUOUS
10
210.029
20
-107.043
11
209.886
21
-107.329
0
LINE
8
BLACK
6
CONTINUOUS
10
209.886
20
-107.329
11
209.886
21
-108.043
0
LINE
8
BLACK
6
CONTINUOUS
10
209.886
20
-108.043
11
210.029
21
-108.329
0
LINE
8
BLACK
6
CONTINUOUS
10
210.029
20
-108.329
11
210.171
21
-108.471
0
LINE
8
BLACK
6
CONTINUOUS
10
210.171
20
-108.471
11
210.457
21
-108.614
0
LINE
8
BLACK
6
CONTINUOUS
10
210.457
20
-108.614
11
211.029
21
-108.614
0
LINE
8
BLACK
6
CONTINUOUS
10
211.029
20
-108.614
11
211.314
21
-108.471
0
LINE
8
BLACK
6
CONTINUOUS
10
211.314
20
-108.471
11
211.457
21
-108.329
0
LINE
8
BLACK
6
CONTINUOUS
10
211.457
20
-108.329
11
211.6
21
-108.043
0
LINE
8
BLACK
6
CONTINUOUS
10
212.743
20
-106.757
11
212.743
21
-107.329
0
LINE
8
BLACK
6
CONTINUOUS
10
213.886
20
-106.757
11
213.886
21
-107.329
0
LINE
8
BLACK
6
CONTINUOUS
10
218.314
20
-110.9
11
218.171
21
-110.757
0
LINE
8
BLACK
6
CONTINUOUS
10
218.171
20
-110.757
11
217.886
21
-110.329
0
LINE
8
BLACK
6
CONTINUOUS
10
217.886
20
-110.329
11
217.743
21
-110.043
0
LINE
8
BLACK
6
CONTINUOUS
10
217.743
20
-110.043
11
217.6
21
-109.614
0
LINE
8
BLACK
6
CONTINUOUS
10
217.6
20
-109.614
11
217.457
21
-108.9
0
LINE
8
BLACK
6
CONTINUOUS
10
217.457
20
-108.9
11
217.457
21
-108.329
0
LINE
8
BLACK
6
CONTINUOUS
10
217.457
20
-108.329
11
217.6
21
-107.614
0
LINE
8
BLACK
6
CONTINUOUS
10
217.6
20
-107.614
11
217.743
21
-107.186
0
LINE
8
BLACK
6
CONTINUOUS
10
217.743
20
-107.186
11
217.886
21
-106.9
0
LINE
8
BLACK
6
CONTINUOUS
10
217.886
20
-106.9
11
218.171
21
-106.471
0
LINE
8
BLACK
6
CONTINUOUS
10
218.171
20
-106.471
11
218.314
21
-106.329
0
LINE
8
BLACK
6
CONTINUOUS
10
220.743
20
-107.757
11
220.743
21
-109.757
0
LINE
8
BLACK
6
CONTINUOUS
10
220.029
20
-106.614
11
219.314
21
-108.757
0
LINE
8
BLACK
6
CONTINUOUS
10
219.314
20
-108.757
11
221.171
21
-108.757
0
LINE
8
BLACK
6
CONTINUOUS
10
222.886
20
-106.757
11
223.171
21
-106.757
0
LINE
8
BLACK
6
CONTINUOUS
10
223.171
20
-106.757
11
223.457
21
-106.9
0
LINE
8
BLACK
6
CONTINUOUS
10
223.457
20
-106.9
11
223.6
21
-107.043
0
LINE
8
BLACK
6
CONTINUOUS
10
223.6
20
-107.043
11
223.743
21
-107.329
0
LINE
8
BLACK
6
CONTINUOUS
10
223.743
20
-107.329
11
223.886
21
-107.9
0
LINE
8
BLACK
6
CONTINUOUS
10
223.886
20
-107.9
11
223.886
21
-108.614
0
LINE
8
BLACK
6
CONTINUOUS
10
223.886
20
-108.614
11
223.743
21
-109.186
0
LINE
8
BLACK
6
CONTINUOUS
10
223.743
20
-109.186
11
223.6
21
-109.471
0
LINE
8
BLACK
6
CONTINUOUS
10
223.6
20
-109.471
11
223.457
21
-109.614
0
LINE
8
BLACK
6
CONTINUOUS
10
223.457
20
-109.614
11
223.171
21
-109.757
0
LINE
8
BLACK
6
CONTINUOUS
10
223.171
20
-109.757
11
222.886
21
-109.757
0
LINE
8
BLACK
6
CONTINUOUS
10
222.886
20
-109.757
11
222.6
21
-109.614
0
LINE
8
BLACK
6
CONTINUOUS
10
222.6
20
-109.614
11
222.457
21
-109.471
0
LINE
8
BLACK
6
CONTINUOUS
10
222.457
20
-109.471
11
222.314
21
-109.186
0
LINE
8
BLACK
6
CONTINUOUS
10
222.314
20
-109.186
11
222.171
21
-108.614
0
LINE
8
BLACK
6
CONTINUOUS
10
222.171
20
-108.614
11
222.171
21
-107.9
0
LINE
8
BLACK
6
CONTINUOUS
10
222.171
20
-107.9
11
222.314
21
-107.329
0
LINE
8
BLACK
6
CONTINUOUS
10
222.314
20
-107.329
11
222.457
21
-107.043
0
LINE
8
BLACK
6
CONTINUOUS
10
222.457
20
-107.043
11
222.6
21
-106.9
0
LINE
8
BLACK
6
CONTINUOUS
10
222.6
20
-106.9
11
222.886
21
-106.757
0
LINE
8
BLACK
6
CONTINUOUS
10
227.457
20
-109.757
11
227.457
21
-106.757
0
LINE
8
BLACK
6
CONTINUOUS
10
228.743
20
-109.757
11
228.743
21
-108.186
0
LINE
8
BLACK
6
CONTINUOUS
10
228.743
20
-108.186
11
228.6
21
-107.9
0
LINE
8
BLACK
6
CONTINUOUS
10
228.6
20
-107.9
11
228.314
21
-107.757
0
LINE
8
BLACK
6
CONTINUOUS
10
228.314
20
-107.757
11
227.886
21
-107.757
0
LINE
8
BLACK
6
CONTINUOUS
10
227.886
20
-107.757
11
227.6
21
-107.9
0
LINE
8
BLACK
6
CONTINUOUS
10
227.6
20
-107.9
11
227.457
21
-108.043
0
LINE
8
BLACK
6
CONTINUOUS
10
230.6
20
-109.757
11
230.314
21
-109.614
0
LINE
8
BLACK
6
CONTINUOUS
10
230.314
20
-109.614
11
230.171
21
-109.471
0
LINE
8
BLACK
6
CONTINUOUS
10
230.171
20
-109.471
11
230.029
21
-109.186
0
LINE
8
BLACK
6
CONTINUOUS
10
230.029
20
-109.186
11
230.029
21
-108.329
0
LINE
8
BLACK
6
CONTINUOUS
10
230.029
20
-108.329
11
230.171
21
-108.043
0
LINE
8
BLACK
6
CONTINUOUS
10
230.171
20
-108.043
11
230.314
21
-107.9
0
LINE
8
BLACK
6
CONTINUOUS
10
230.314
20
-107.9
11
230.6
21
-107.757
0
LINE
8
BLACK
6
CONTINUOUS
10
230.6
20
-107.757
11
231.029
21
-107.757
0
LINE
8
BLACK
6
CONTINUOUS
10
231.029
20
-107.757
11
231.314
21
-107.9
0
LINE
8
BLACK
6
CONTINUOUS
10
231.314
20
-107.9
11
231.457
21
-108.043
0
LINE
8
BLACK
6
CONTINUOUS
10
231.457
20
-108.043
11
231.6
21
-108.329
0
LINE
8
BLACK
6
CONTINUOUS
10
231.6
20
-108.329
11
231.6
21
-109.186
0
LINE
8
BLACK
6
CONTINUOUS
10
231.6
20
-109.186
11
231.457
21
-109.471
0
LINE
8
BLACK
6
CONTINUOUS
10
231.457
20
-109.471
11
231.314
21
-109.614
0
LINE
8
BLACK
6
CONTINUOUS
10
231.314
20
-109.614
11
231.029
21
-109.757
0
LINE
8
BLACK
6
CONTINUOUS
10
231.029
20
-109.757
11
230.6
21
-109.757
0
LINE
8
BLACK
6
CONTINUOUS
10
233.314
20
-109.757
11
233.029
21
-109.614
0
LINE
8
BLACK
6
CONTINUOUS
10
233.029
20
-109.614
11
232.886
21
-109.329
0
LINE
8
BLACK
6
CONTINUOUS
10
232.886
20
-109.329
11
232.886
21
-106.757
0
LINE
8
BLACK
6
CONTINUOUS
10
235.6
20
-109.614
11
235.314
21
-109.757
0
LINE
8
BLACK
6
CONTINUOUS
10
235.314
20
-109.757
11
234.743
21
-109.757
0
LINE
8
BLACK
6
CONTINUOUS
10
234.743
20
-109.757
11
234.457
21
-109.614
0
LINE
8
BLACK
6
CONTINUOUS
10
234.457
20
-109.614
11
234.314
21
-109.329
0
LINE
8
BLACK
6
CONTINUOUS
10
234.314
20
-109.329
11
234.314
21
-108.186
0
LINE
8
BLACK
6
CONTINUOUS
10
234.314
20
-108.186
11
234.457
21
-107.9
0
LINE
8
BLACK
6
CONTINUOUS
10
234.457
20
-107.9
11
234.743
21
-107.757
0
LINE
8
BLACK
6
CONTINUOUS
10
234.743
20
-107.757
11
235.314
21
-107.757
0
LINE
8
BLACK
6
CONTINUOUS
10
235.314
20
-107.757
11
235.6
21
-107.9
0
LINE
8
BLACK
6
CONTINUOUS
10
235.6
20
-107.9
11
235.743
21
-108.186
0
LINE
8
BLACK
6
CONTINUOUS
10
235.743
20
-108.186
11
235.743
21
-108.471
0
LINE
8
BLACK
6
CONTINUOUS
10
235.743
20
-108.471
11
234.314
21
-108.757
0
LINE
8
BLACK
6
CONTINUOUS
10
236.886
20
-109.614
11
237.171
21
-109.757
0
LINE
8
BLACK
6
CONTINUOUS
10
237.171
20
-109.757
11
237.743
21
-109.757
0
LINE
8
BLACK
6
CONTINUOUS
10
237.743
20
-109.757
11
238.029
21
-109.614
0
LINE
8
BLACK
6
CONTINUOUS
10
238.029
20
-109.614
11
238.171
21
-109.329
0
LINE
8
BLACK
6
CONTINUOUS
10
238.171
20
-109.329
11
238.171
21
-109.186
0
LINE
8
BLACK
6
CONTINUOUS
10
238.171
20
-109.186
11
238.029
21
-108.9
0
LINE
8
BLACK
6
CONTINUOUS
10
238.029
20
-108.9
11
237.743
21
-108.757
0
LINE
8
BLACK
6
CONTINUOUS
10
237.743
20
-108.757
11
237.314
21
-108.757
0
LINE
8
BLACK
6
CONTINUOUS
10
237.314
20
-108.757
11
237.029
21
-108.614
0
LINE
8
BLACK
6
CONTINUOUS
10
237.029
20
-108.614
11
236.886
21
-108.329
0
LINE
8
BLACK
6
CONTINUOUS
10
236.886
20
-108.329
11
236.886
21
-108.186
0
LINE
8
BLACK
6
CONTINUOUS
10
236.886
20
-108.186
11
237.029
21
-107.9
0
LINE
8
BLACK
6
CONTINUOUS
10
237.029
20
-107.9
11
237.314
21
-107.757
0
LINE
8
BLACK
6
CONTINUOUS
10
237.314
20
-107.757
11
237.743
21
-107.757
0
LINE
8
BLACK
6
CONTINUOUS
10
237.743
20
-107.757
11
238.029
21
-107.9
0
LINE
8
BLACK
6
CONTINUOUS
10
241.743
20
-108.614
11
244.029
21
-108.614
0
LINE
8
BLACK
6
CONTINUOUS
10
242.886
20
-109.757
11
242.886
21
-107.471
0
LINE
8
BLACK
6
CONTINUOUS
10
249.029
20
-107.757
11
249.029
21
-109.757
0
LINE
8
BLACK
6
CONTINUOUS
10
248.314
20
-106.614
11
247.6
21
-108.757
0
LINE
8
BLACK
6
CONTINUOUS
10
247.6
20
-108.757
11
249.457
21
-108.757
0
LINE
8
BLACK
6
CONTINUOUS
10
252.743
20
-109.614
11
253.029
21
-109.757
0
LINE
8
BLACK
6
CONTINUOUS
10
253.029
20
-109.757
11
253.6
21
-109.757
0
LINE
8
BLACK
6
CONTINUOUS
10
253.6
20
-109.757
11
253.886
21
-109.614
0
LINE
8
BLACK
6
CONTINUOUS
10
253.886
20
-109.614
11
254.029
21
-109.329
0
LINE
8
BLACK
6
CONTINUOUS
10
254.029
20
-109.329
11
254.029
21
-109.186
0
LINE
8
BLACK
6
CONTINUOUS
10
254.029
20
-109.186
11
253.886
21
-108.9
0
LINE
8
BLACK
6
CONTINUOUS
10
253.886
20
-108.9
11
253.6
21
-108.757
0
LINE
8
BLACK
6
CONTINUOUS
10
253.6
20
-108.757
11
253.171
21
-108.757
0
LINE
8
BLACK
6
CONTINUOUS
10
253.171
20
-108.757
11
252.886
21
-108.614
0
LINE
8
BLACK
6
CONTINUOUS
10
252.886
20
-108.614
11
252.743
21
-108.329
0
LINE
8
BLACK
6
CONTINUOUS
10
252.743
20
-108.329
11
252.743
21
-108.186
0
LINE
8
BLACK
6
CONTINUOUS
10
252.743
20
-108.186
11
252.886
21
-107.9
0
LINE
8
BLACK
6
CONTINUOUS
10
252.886
20
-107.9
11
253.171
21
-107.757
0
LINE
8
BLACK
6
CONTINUOUS
10
253.171
20
-107.757
11
253.6
21
-107.757
0
LINE
8
BLACK
6
CONTINUOUS
10
253.6
20
-107.757
11
253.886
21
-107.9
0
LINE
8
BLACK
6
CONTINUOUS
10
255.743
20
-109.757
11
255.457
21
-109.614
0
LINE
8
BLACK
6
CONTINUOUS
10
255.457
20
-109.614
11
255.314
21
-109.329
0
LINE
8
BLACK
6
CONTINUOUS
10
255.314
20
-109.329
11
255.314
21
-106.757
0
LINE
8
BLACK
6
CONTINUOUS
10
257.314
20
-109.757
11
257.029
21
-109.614
0
LINE
8
BLACK
6
CONTINUOUS
10
257.029
20
-109.614
11
256.886
21
-109.471
0
LINE
8
BLACK
6
CONTINUOUS
10
256.886
20
-109.471
11
256.743
21
-109.186
0
LINE
8
BLACK
6
CONTINUOUS
10
256.743
20
-109.186
11
256.743
21
-108.329
0
LINE
8
BLACK
6
CONTINUOUS
10
256.743
20
-108.329
11
256.886
21
-108.043
0
LINE
8
BLACK
6
CONTINUOUS
10
256.886
20
-108.043
11
257.029
21
-107.9
0
LINE
8
BLACK
6
CONTINUOUS
10
257.029
20
-107.9
11
257.314
21
-107.757
0
LINE
8
BLACK
6
CONTINUOUS
10
257.314
20
-107.757
11
257.743
21
-107.757
0
LINE
8
BLACK
6
CONTINUOUS
10
257.743
20
-107.757
11
258.029
21
-107.9
0
LINE
8
BLACK
6
CONTINUOUS
10
258.029
20
-107.9
11
258.171
21
-108.043
0
LINE
8
BLACK
6
CONTINUOUS
10
258.171
20
-108.043
11
258.314
21
-108.329
0
LINE
8
BLACK
6
CONTINUOUS
10
258.314
20
-108.329
11
258.314
21
-109.186
0
LINE
8
BLACK
6
CONTINUOUS
10
258.314
20
-109.186
11
258.171
21
-109.471
0
LINE
8
BLACK
6
CONTINUOUS
10
258.171
20
-109.471
11
258.029
21
-109.614
0
LINE
8
BLACK
6
CONTINUOUS
10
258.029
20
-109.614
11
257.743
21
-109.757
0
LINE
8
BLACK
6
CONTINUOUS
10
257.743
20
-109.757
11
257.314
21
-109.757
0
LINE
8
BLACK
6
CONTINUOUS
10
259.171
20
-107.757
11
260.314
21
-107.757
0
LINE
8
BLACK
6
CONTINUOUS
10
259.6
20
-106.757
11
259.6
21
-109.329
0
LINE
8
BLACK
6
CONTINUOUS
10
259.6
20
-109.329
11
259.743
21
-109.614
0
LINE
8
BLACK
6
CONTINUOUS
10
259.743
20
-109.614
11
260.029
21
-109.757
0
LINE
8
BLACK
6
CONTINUOUS
10
260.029
20
-109.757
11
260.314
21
-109.757
0
LINE
8
BLACK
6
CONTINUOUS
10
261.171
20
-109.614
11
261.457
21
-109.757
0
LINE
8
BLACK
6
CONTINUOUS
10
261.457
20
-109.757
11
262.029
21
-109.757
0
LINE
8
BLACK
6
CONTINUOUS
10
262.029
20
-109.757
11
262.314
21
-109.614
0
LINE
8
BLACK
6
CONTINUOUS
10
262.314
20
-109.614
11
262.457
21
-109.329
0
LINE
8
BLACK
6
CONTINUOUS
10
262.457
20
-109.329
11
262.457
21
-109.186
0
LINE
8
BLACK
6
CONTINUOUS
10
262.457
20
-109.186
11
262.314
21
-108.9
0
LINE
8
BLACK
6
CONTINUOUS
10
262.314
20
-108.9
11
262.029
21
-108.757
0
LINE
8
BLACK
6
CONTINUOUS
10
262.029
20
-108.757
11
261.6
21
-108.757
0
LINE
8
BLACK
6
CONTINUOUS
10
261.6
20
-108.757
11
261.314
21
-108.614
0
LINE
8
BLACK
6
CONTINUOUS
10
261.314
20
-108.614
11
261.171
21
-108.329
0
LINE
8
BLACK
6
CONTINUOUS
10
261.171
20
-108.329
11
261.171
21
-108.186
0
LINE
8
BLACK
6
CONTINUOUS
10
261.171
20
-108.186
11
261.314
21
-107.9
0
LINE
8
BLACK
6
CONTINUOUS
10
261.314
20
-107.9
11
261.6
21
-107.757
0
LINE
8
BLACK
6
CONTINUOUS
10
261.6
20
-107.757
11
262.029
21
-107.757
0
LINE
8
BLACK
6
CONTINUOUS
10
262.029
20
-107.757
11
262.314
21
-107.9
0
LINE
8
BLACK
6
CONTINUOUS
10
263.457
20
-110.9
11
263.6
21
-110.757
0
LINE
8
BLACK
6
CONTINUOUS
10
263.6
20
-110.757
11
263.886
21
-110.329
0
LINE
8
BLACK
6
CONTINUOUS
10
263.886
20
-110.329
11
264.029
21
-110.043
0
LINE
8
BLACK
6
CONTINUOUS
10
264.029
20
-110.043
11
264.171
21
-109.614
0
LINE
8
BLACK
6
CONTINUOUS
10
264.171
20
-109.614
11
264.314
21
-108.9
0
LINE
8
BLACK
6
CONTINUOUS
10
264.314
20
-108.9
11
264.314
21
-108.329
0
LINE
8
BLACK
6
CONTINUOUS
10
264.314
20
-108.329
11
264.171
21
-107.614
0
LINE
8
BLACK
6
CONTINUOUS
10
264.171
20
-107.614
11
264.029
21
-107.186
0
LINE
8
BLACK
6
CONTINUOUS
10
264.029
20
-107.186
11
263.886
21
-106.9
0
LINE
8
BLACK
6
CONTINUOUS
10
263.886
20
-106.9
11
263.6
21
-106.471
0
LINE
8
BLACK
6
CONTINUOUS
10
263.6
20
-106.471
11
263.457
21
-106.329
0
LINE
8
BLACK
6
CONTINUOUS
10
170.35
20
-111.81
11
171.45
21
-112.91
0
LINE
8
BLACK
6
CONTINUOUS
10
171.45
20
-111.81
11
170.35
21
-112.91
0
LINE
8
BLACK
6
CONTINUOUS
10
170.9
20
-111.81
11
170.9
21
-112.91
0
LINE
8
BLACK
6
CONTINUOUS
10
170.35
20
-112.36
11
171.45
21
-112.36
0
LINE
8
BLACK
6
CONTINUOUS
10
175.886
20
-113.717
11
174.171
21
-113.717
0
LINE
8
BLACK
6
CONTINUOUS
10
175.029
20
-113.717
11
175.029
21
-110.717
0
LINE
8
BLACK
6
CONTINUOUS
10
175.029
20
-110.717
11
174.743
21
-111.146
0
LINE
8
BLACK
6
CONTINUOUS
10
174.743
20
-111.146
11
174.457
21
-111.431
0
LINE
8
BLACK
6
CONTINUOUS
10
174.457
20
-111.431
11
174.171
21
-111.574
0
LINE
8
BLACK
6
CONTINUOUS
10
177.171
20
-113.431
11
177.314
21
-113.574
0
LINE
8
BLACK
6
CONTINUOUS
10
177.314
20
-113.574
11
177.171
21
-113.717
0
LINE
8
BLACK
6
CONTINUOUS
10
177.171
20
-113.717
11
177.029
21
-113.574
0
LINE
8
BLACK
6
CONTINUOUS
10
177.029
20
-113.574
11
177.171
21
-113.431
0
LINE
8
BLACK
6
CONTINUOUS
10
177.171
20
-113.431
11
177.171
21
-113.717
0
LINE
8
BLACK
6
CONTINUOUS
10
180.171
20
-113.717
11
178.457
21
-113.717
0
LINE
8
BLACK
6
CONTINUOUS
10
179.314
20
-113.717
11
179.314
21
-110.717
0
LINE
8
BLACK
6
CONTINUOUS
10
179.314
20
-110.717
11
179.029
21
-111.146
0
LINE
8
BLACK
6
CONTINUOUS
10
179.029
20
-111.146
11
178.743
21
-111.431
0
LINE
8
BLACK
6
CONTINUOUS
10
178.743
20
-111.431
11
178.457
21
-111.574
0
LINE
8
BLACK
6
CONTINUOUS
10
182.029
20
-110.717
11
182.314
21
-110.717
0
LINE
8
BLACK
6
CONTINUOUS
10
182.314
20
-110.717
11
182.6
21
-110.86
0
LINE
8
BLACK
6
CONTINUOUS
10
182.6
20
-110.86
11
182.743
21
-111.003
0
LINE
8
BLACK
6
CONTINUOUS
10
182.743
20
-111.003
11
182.886
21
-111.289
0
LINE
8
BLACK
6
CONTINUOUS
10
182.886
20
-111.289
11
183.029
21
-111.86
0
LINE
8
BLACK
6
CONTINUOUS
10
183.029
20
-111.86
11
183.029
21
-112.574
0
LINE
8
BLACK
6
CONTINUOUS
10
183.029
20
-112.574
11
182.886
21
-113.146
0
LINE
8
BLACK
6
CONTINUOUS
10
182.886
20
-113.146
11
182.743
21
-113.431
0
LINE
8
BLACK
6
CONTINUOUS
10
182.743
20
-113.431
11
182.6
21
-113.574
0
LINE
8
BLACK
6
CONTINUOUS
10
182.6
20
-113.574
11
182.314
21
-113.717
0
LINE
8
BLACK
6
CONTINUOUS
10
182.314
20
-113.717
11
182.029
21
-113.717
0
LINE
8
BLACK
6
CONTINUOUS
10
182.029
20
-113.717
11
181.743
21
-113.574
0
LINE
8
BLACK
6
CONTINUOUS
10
181.743
20
-113.574
11
181.6
21
-113.431
0
LINE
8
BLACK
6
CONTINUOUS
10
181.6
20
-113.431
11
181.457
21
-113.146
0
LINE
8
BLACK
6
CONTINUOUS
10
181.457
20
-113.146
11
181.314
21
-112.574
0
LINE
8
BLACK
6
CONTINUOUS
10
181.314
20
-112.574
11
181.314
21
-111.86
0
LINE
8
BLACK
6
CONTINUOUS
10
181.314
20
-111.86
11
181.457
21
-111.289
0
LINE
8
BLACK
6
CONTINUOUS
10
181.457
20
-111.289
11
181.6
21
-111.003
0
LINE
8
BLACK
6
CONTINUOUS
10
181.6
20
-111.003
11
181.743
21
-110.86
0
LINE
8
BLACK
6
CONTINUOUS
10
181.743
20
-110.86
11
182.029
21
-110.717
0
LINE
8
BLACK
6
CONTINUOUS
10
184.314
20
-113.717
11
184.314
21
-111.717
0
LINE
8
BLACK
6
CONTINUOUS
10
184.314
20
-112.003
11
184.457
21
-111.86
0
LINE
8
BLACK
6
CONTINUOUS
10
184.457
20
-111.86
11
184.743
21
-111.717
0
LINE
8
BLACK
6
CONTINUOUS
10
184.743
20
-111.717
11
185.171
21
-111.717
0
LINE
8
BLACK
6
CONTINUOUS
10
185.171
20
-111.717
11
185.457
21
-111.86
0
LINE
8
BLACK
6
CONTINUOUS
10
185.457
20
-111.86
11
185.6
21
-112.146
0
LINE
8
BLACK
6
CONTINUOUS
10
185.6
20
-112.146
11
185.6
21
-113.717
0
LINE
8
BLACK
6
CONTINUOUS
10
185.6
20
-112.146
11
185.743
21
-111.86
0
LINE
8
BLACK
6
CONTINUOUS
10
185.743
20
-111.86
11
186.029
21
-111.717
0
LINE
8
BLACK
6
CONTINUOUS
10
186.029
20
-111.717
11
186.457
21
-111.717
0
LINE
8
BLACK
6
CONTINUOUS
10
186.457
20
-111.717
11
186.743
21
-111.86
0
LINE
8
BLACK
6
CONTINUOUS
10
186.743
20
-111.86
11
186.886
21
-112.146
0
LINE
8
BLACK
6
CONTINUOUS
10
186.886
20
-112.146
11
186.886
21
-113.717
0
LINE
8
BLACK
6
CONTINUOUS
10
188.314
20
-113.717
11
188.314
21
-111.717
0
LINE
8
BLACK
6
CONTINUOUS
10
188.314
20
-112.003
11
188.457
21
-111.86
0
LINE
8
BLACK
6
CONTINUOUS
10
188.457
20
-111.86
11
188.743
21
-111.717
0
LINE
8
BLACK
6
CONTINUOUS
10
188.743
20
-111.717
11
189.171
21
-111.717
0
LINE
8
BLACK
6
CONTINUOUS
10
189.171
20
-111.717
11
189.457
21
-111.86
0
LINE
8
BLACK
6
CONTINUOUS
10
189.457
20
-111.86
11
189.6
21
-112.146
0
LINE
8
BLACK
6
CONTINUOUS
10
189.6
20
-112.146
11
189.6
21
-113.717
0
LINE
8
BLACK
6
CONTINUOUS
10
189.6
20
-112.146
11
189.743
21
-111.86
0
LINE
8
BLACK
6
CONTINUOUS
10
189.743
20
-111.86
11
190.029
21
-111.717
0
LINE
8
BLACK
6
CONTINUOUS
10
190.029
20
-111.717
11
190.457
21
-111.717
0
LINE
8
BLACK
6
CONTINUOUS
10
190.457
20
-111.717
11
190.743
21
-111.86
0
LINE
8
BLACK
6
CONTINUOUS
10
190.743
20
-111.86
11
190.886
21
-112.146
0
LINE
8
BLACK
6
CONTINUOUS
10
190.886
20
-112.146
11
190.886
21
-113.717
0
LINE
8
BLACK
6
CONTINUOUS
10
196.743
20
-110.574
11
194.171
21
-114.431
0
LINE
8
BLACK
6
CONTINUOUS
10
200.6
20
-110.717
11
200.886
21
-110.717
0
LINE
8
BLACK
6
CONTINUOUS
10
200.886
20
-110.717
11
201.171
21
-110.86
0
LINE
8
BLACK
6
CONTINUOUS
10
201.171
20
-110.86
11
201.314
21
-111.003
0
LINE
8
BLACK
6
CONTINUOUS
10
201.314
20
-111.003
11
201.457
21
-111.289
0
LINE
8
BLACK
6
CONTINUOUS
10
201.457
20
-111.289
11
201.6
21
-111.86
0
LINE
8
BLACK
6
CONTINUOUS
10
201.6
20
-111.86
11
201.6
21
-112.574
0
LINE
8
BLACK
6
CONTINUOUS
10
201.6
20
-112.574
11
201.457
21
-113.146
0
LINE
8
BLACK
6
CONTINUOUS
10
201.457
20
-113.146
11
201.314
21
-113.431
0
LINE
8
BLACK
6
CONTINUOUS
10
201.314
20
-113.431
11
201.171
21
-113.574
0
LINE
8
BLACK
6
CONTINUOUS
10
201.171
20
-113.574
11
200.886
21
-113.717
0
LINE
8
BLACK
6
CONTINUOUS
10
200.886
20
-113.717
11
200.6
21
-113.717
0
LINE
8
BLACK
6
CONTINUOUS
10
200.6
20
-113.717
11
200.314
21
-113.574
0
LINE
8
BLACK
6
CONTINUOUS
10
200.314
20
-113.574
11
200.171
21
-113.431
0
LINE
8
BLACK
6
CONTINUOUS
10
200.171
20
-113.431
11
200.029
21
-113.146
0
LINE
8
BLACK
6
CONTINUOUS
10
200.029
20
-113.146
11
199.886
21
-112.574
0
LINE
8
BLACK
6
CONTINUOUS
10
199.886
20
-112.574
11
199.886
21
-111.86
0
LINE
8
BLACK
6
CONTINUOUS
10
199.886
20
-111.86
11
200.029
21
-111.289
0
LINE
8
BLACK
6
CONTINUOUS
10
200.029
20
-111.289
11
200.171
21
-111.003
0
LINE
8
BLACK
6
CONTINUOUS
10
200.171
20
-111.003
11
200.314
21
-110.86
0
LINE
8
BLACK
6
CONTINUOUS
10
200.314
20
-110.86
11
200.6
21
-110.717
0
LINE
8
BLACK
6
CONTINUOUS
10
202.886
20
-113.431
11
203.029
21
-113.574
0
LINE
8
BLACK
6
CONTINUOUS
10
203.029
20
-113.574
11
202.886
21
-113.717
0
LINE
8
BLACK
6
CONTINUOUS
10
202.886
20
-113.717
11
202.743
21
-113.574
0
LINE
8
BLACK
6
CONTINUOUS
10
202.743
20
-113.574
11
202.886
21
-113.431
0
LINE
8
BLACK
6
CONTINUOUS
10
202.886
20
-113.431
11
202.886
21
-113.717
0
LINE
8
BLACK
6
CONTINUOUS
10
204.886
20
-110.717
11
205.171
21
-110.717
0
LINE
8
BLACK
6
CONTINUOUS
10
205.171
20
-110.717
11
205.457
21
-110.86
0
LINE
8
BLACK
6
CONTINUOUS
10
205.457
20
-110.86
11
205.6
21
-111.003
0
LINE
8
BLACK
6
CONTINUOUS
10
205.6
20
-111.003
11
205.743
21
-111.289
0
LINE
8
BLACK
6
CONTINUOUS
10
205.743
20
-111.289
11
205.886
21
-111.86
0
LINE
8
BLACK
6
CONTINUOUS
10
205.886
20
-111.86
11
205.886
21
-112.574
0
LINE
8
BLACK
6
CONTINUOUS
10
205.886
20
-112.574
11
205.743
21
-113.146
0
LINE
8
BLACK
6
CONTINUOUS
10
205.743
20
-113.146
11
205.6
21
-113.431
0
LINE
8
BLACK
6
CONTINUOUS
10
205.6
20
-113.431
11
205.457
21
-113.574
0
LINE
8
BLACK
6
CONTINUOUS
10
205.457
20
-113.574
11
205.171
21
-113.717
0
LINE
8
BLACK
6
CONTINUOUS
10
205.171
20
-113.717
11
204.886
21
-113.717
0
LINE
8
BLACK
6
CONTINUOUS
10
204.886
20
-113.717
11
204.6
21
-113.574
0
LINE
8
BLACK
6
CONTINUOUS
10
204.6
20
-113.574
11
204.457
21
-113.431
0
LINE
8
BLACK
6
CONTINUOUS
10
204.457
20
-113.431
11
204.314
21
-113.146
0
LINE
8
BLACK
6
CONTINUOUS
10
204.314
20
-113.146
11
204.171
21
-112.574
0
LINE
8
BLACK
6
CONTINUOUS
10
204.171
20
-112.574
11
204.171
21
-111.86
0
LINE
8
BLACK
6
CONTINUOUS
10
204.171
20
-111.86
11
204.314
21
-111.289
0
LINE
8
BLACK
6
CONTINUOUS
10
204.314
20
-111.289
11
204.457
21
-111.003
0
LINE
8
BLACK
6
CONTINUOUS
10
204.457
20
-111.003
11
204.6
21
-110.86
0
LINE
8
BLACK
6
CONTINUOUS
10
204.6
20
-110.86
11
204.886
21
-110.717
0
LINE
8
BLACK
6
CONTINUOUS
10
208.457
20
-111.717
11
208.457
21
-113.717
0
LINE
8
BLACK
6
CONTINUOUS
10
207.743
20
-110.574
11
207.029
21
-112.717
0
LINE
8
BLACK
6
CONTINUOUS
10
207.029
20
-112.717
11
208.886
21
-112.717
0
LINE
8
BLACK
6
CONTINUOUS
10
209.743
20
-110.717
11
211.6
21
-110.717
0
LINE
8
BLACK
6
CONTINUOUS
10
211.6
20
-110.717
11
210.6
21
-111.86
0
LINE
8
BLACK
6
CONTINUOUS
10
210.6
20
-111.86
11
211.029
21
-111.86
0
LINE
8
BLACK
6
CONTINUOUS
10
211.029
20
-111.86
11
211.314
21
-112.003
0
LINE
8
BLACK
6
CONTINUOUS
10
211.314
20
-112.003
11
211.457
21
-112.146
0
LINE
8
BLACK
6
CONTINUOUS
10
211.457
20
-112.146
11
211.6
21
-112.431
0
LINE
8
BLACK
6
CONTINUOUS
10
211.6
20
-112.431
11
211.6
21
-113.146
0
LINE
8
BLACK
6
CONTINUOUS
10
211.6
20
-113.146
11
211.457
21
-113.431
0
LINE
8
BLACK
6
CONTINUOUS
10
211.457
20
-113.431
11
211.314
21
-113.574
0
LINE
8
BLACK
6
CONTINUOUS
10
211.314
20
-113.574
11
211.029
21
-113.717
0
LINE
8
BLACK
6
CONTINUOUS
10
211.029
20
-113.717
11
210.171
21
-113.717
0
LINE
8
BLACK
6
CONTINUOUS
10
210.171
20
-113.717
11
209.886
21
-113.574
0
LINE
8
BLACK
6
CONTINUOUS
10
209.886
20
-113.574
11
209.743
21
-113.431
0
LINE
8
BLACK
6
CONTINUOUS
10
212.743
20
-110.717
11
212.743
21
-111.289
0
LINE
8
BLACK
6
CONTINUOUS
10
213.886
20
-110.717
11
213.886
21
-111.289
0
LINE
8
BLACK
6
CONTINUOUS
10
218.314
20
-114.86
11
218.171
21
-114.717
0
LINE
8
BLACK
6
CONTINUOUS
10
218.171
20
-114.717
11
217.886
21
-114.289
0
LINE
8
BLACK
6
CONTINUOUS
10
217.886
20
-114.289
11
217.743
21
-114.003
0
LINE
8
BLACK
6
CONTINUOUS
10
217.743
20
-114.003
11
217.6
21
-113.574
0
LINE
8
BLACK
6
CONTINUOUS
10
217.6
20
-113.574
11
217.457
21
-112.86
0
LINE
8
BLACK
6
CONTINUOUS
10
217.457
20
-112.86
11
217.457
21
-112.289
0
LINE
8
BLACK
6
CONTINUOUS
10
217.457
20
-112.289
11
217.6
21
-111.574
0
LINE
8
BLACK
6
CONTINUOUS
10
217.6
20
-111.574
11
217.743
21
-111.146
0
LINE
8
BLACK
6
CONTINUOUS
10
217.743
20
-111.146
11
217.886
21
-110.86
0
LINE
8
BLACK
6
CONTINUOUS
10
217.886
20
-110.86
11
218.171
21
-110.431
0
LINE
8
BLACK
6
CONTINUOUS
10
218.171
20
-110.431
11
218.314
21
-110.289
0
LINE
8
BLACK
6
CONTINUOUS
10
219.171
20
-110.717
11
221.029
21
-110.717
0
LINE
8
BLACK
6
CONTINUOUS
10
221.029
20
-110.717
11
220.029
21
-111.86
0
LINE
8
BLACK
6
CONTINUOUS
10
220.029
20
-111.86
11
220.457
21
-111.86
0
LINE
8
BLACK
6
CONTINUOUS
10
220.457
20
-111.86
11
220.743
21
-112.003
0
LINE
8
BLACK
6
CONTINUOUS
10
220.743
20
-112.003
11
220.886
21
-112.146
0
LINE
8
BLACK
6
CONTINUOUS
10
220.886
20
-112.146
11
221.029
21
-112.431
0
LINE
8
BLACK
6
CONTINUOUS
10
221.029
20
-112.431
11
221.029
21
-113.146
0
LINE
8
BLACK
6
CONTINUOUS
10
221.029
20
-113.146
11
220.886
21
-113.431
0
LINE
8
BLACK
6
CONTINUOUS
10
220.886
20
-113.431
11
220.743
21
-113.574
0
LINE
8
BLACK
6
CONTINUOUS
10
220.743
20
-113.574
11
220.457
21
-113.717
0
LINE
8
BLACK
6
CONTINUOUS
10
220.457
20
-113.717
11
219.6
21
-113.717
0
LINE
8
BLACK
6
CONTINUOUS
10
219.6
20
-113.717
11
219.314
21
-113.574
0
LINE
8
BLACK
6
CONTINUOUS
10
219.314
20
-113.574
11
219.171
21
-113.431
0
LINE
8
BLACK
6
CONTINUOUS
10
224.6
20
-113.717
11
224.6
21
-110.717
0
LINE
8
BLACK
6
CONTINUOUS
10
225.886
20
-113.717
11
225.886
21
-112.146
0
LINE
8
BLACK
6
CONTINUOUS
10
225.886
20
-112.146
11
225.743
21
-111.86
0
LINE
8
BLACK
6
CONTINUOUS
10
225.743
20
-111.86
11
225.457
21
-111.717
0
LINE
8
BLACK
6
CONTINUOUS
10
225.457
20
-111.717
11
225.029
21
-111.717
0
LINE
8
BLACK
6
CONTINUOUS
10
225.029
20
-111.717
11
224.743
21
-111.86
0
LINE
8
BLACK
6
CONTINUOUS
10
224.743
20
-111.86
11
224.6
21
-112.003
0
LINE
8
BLACK
6
CONTINUOUS
10
227.743
20
-113.717
11
227.457
21
-113.574
0
LINE
8
BLACK
6
CONTINUOUS
10
227.457
20
-113.574
11
227.314
21
-113.431
0
LINE
8
BLACK
6
CONTINUOUS
10
227.314
20
-113.431
11
227.171
21
-113.146
0
LINE
8
BLACK
6
CONTINUOUS
10
227.171
20
-113.146
11
227.171
21
-112.289
0
LINE
8
BLACK
6
CONTINUOUS
10
227.171
20
-112.289
11
227.314
21
-112.003
0
LINE
8
BLACK
6
CONTINUOUS
10
227.314
20
-112.003
11
227.457
21
-111.86
0
LINE
8
BLACK
6
CONTINUOUS
10
227.457
20
-111.86
11
227.743
21
-111.717
0
LINE
8
BLACK
6
CONTINUOUS
10
227.743
20
-111.717
11
228.171
21
-111.717
0
LINE
8
BLACK
6
CONTINUOUS
10
228.171
20
-111.717
11
228.457
21
-111.86
0
LINE
8
BLACK
6
CONTINUOUS
10
228.457
20
-111.86
11
228.6
21
-112.003
0
LINE
8
BLACK
6
CONTINUOUS
10
228.6
20
-112.003
11
228.743
21
-112.289
0
LINE
8
BLACK
6
CONTINUOUS
10
228.743
20
-112.289
11
228.743
21
-113.146
0
LINE
8
BLACK
6
CONTINUOUS
10
228.743
20
-113.146
11
228.6
21
-113.431
0
LINE
8
BLACK
6
CONTINUOUS
10
228.6
20
-113.431
11
228.457
21
-113.574
0
LINE
8
BLACK
6
CONTINUOUS
10
228.457
20
-113.574
11
228.171
21
-113.717
0
LINE
8
BLACK
6
CONTINUOUS
10
228.171
20
-113.717
11
227.743
21
-113.717
0
LINE
8
BLACK
6
CONTINUOUS
10
230.457
20
-113.717
11
230.171
21
-113.574
0
LINE
8
BLACK
6
CONTINUOUS
10
230.171
20
-113.574
11
230.029
21
-113.289
0
LINE
8
BLACK
6
CONTINUOUS
10
230.029
20
-113.289
11
230.029
21
-110.717
0
LINE
8
BLACK
6
CONTINUOUS
10
232.743
20
-113.574
11
232.457
21
-113.717
0
LINE
8
BLACK
6
CONTINUOUS
10
232.457
20
-113.717
11
231.886
21
-113.717
0
LINE
8
BLACK
6
CONTINUOUS
10
231.886
20
-113.717
11
231.6
21
-113.574
0
LINE
8
BLACK
6
CONTINUOUS
10
231.6
20
-113.574
11
231.457
21
-113.289
0
LINE
8
BLACK
6
CONTINUOUS
10
231.457
20
-113.289
11
231.457
21
-112.146
0
LINE
8
BLACK
6
CONTINUOUS
10
231.457
20
-112.146
11
231.6
21
-111.86
0
LINE
8
BLACK
6
CONTINUOUS
10
231.6
20
-111.86
11
231.886
21
-111.717
0
LINE
8
BLACK
6
CONTINUOUS
10
231.886
20
-111.717
11
232.457
21
-111.717
0
LINE
8
BLACK
6
CONTINUOUS
10
232.457
20
-111.717
11
232.743
21
-111.86
0
LINE
8
BLACK
6
CONTINUOUS
10
232.743
20
-111.86
11
232.886
21
-112.146
0
LINE
8
BLACK
6
CONTINUOUS
10
232.886
20
-112.146
11
232.886
21
-112.431
0
LINE
8
BLACK
6
CONTINUOUS
10
232.886
20
-112.431
11
231.457
21
-112.717
0
LINE
8
BLACK
6
CONTINUOUS
10
234.029
20
-113.574
11
234.314
21
-113.717
0
LINE
8
BLACK
6
CONTINUOUS
10
234.314
20
-113.717
11
234.886
21
-113.717
0
LINE
8
BLACK
6
CONTINUOUS
10
234.886
20
-113.717
11
235.171
21
-113.574
0
LINE
8
BLACK
6
CONTINUOUS
10
235.171
20
-113.574
11
235.314
21
-113.289
0
LINE
8
BLACK
6
CONTINUOUS
10
235.314
20
-113.289
11
235.314
21
-113.146
0
LINE
8
BLACK
6
CONTINUOUS
10
235.314
20
-113.146
11
235.171
21
-112.86
0
LINE
8
BLACK
6
CONTINUOUS
10
235.171
20
-112.86
11
234.886
21
-112.717
0
LINE
8
BLACK
6
CONTINUOUS
10
234.886
20
-112.717
11
234.457
21
-112.717
0
LINE
8
BLACK
6
CONTINUOUS
10
234.457
20
-112.717
11
234.171
21
-112.574
0
LINE
8
BLACK
6
CONTINUOUS
10
234.171
20
-112.574
11
234.029
21
-112.289
0
LINE
8
BLACK
6
CONTINUOUS
10
234.029
20
-112.289
11
234.029
21
-112.146
0
LINE
8
BLACK
6
CONTINUOUS
10
234.029
20
-112.146
11
234.171
21
-111.86
0
LINE
8
BLACK
6
CONTINUOUS
10
234.171
20
-111.86
11
234.457
21
-111.717
0
LINE
8
BLACK
6
CONTINUOUS
10
234.457
20
-111.717
11
234.886
21
-111.717
0
LINE
8
BLACK
6
CONTINUOUS
10
234.886
20
-111.717
11
235.171
21
-111.86
0
LINE
8
BLACK
6
CONTINUOUS
10
236.314
20
-114.86
11
236.457
21
-114.717
0
LINE
8
BLACK
6
CONTINUOUS
10
236.457
20
-114.717
11
236.743
21
-114.289
0
LINE
8
BLACK
6
CONTINUOUS
10
236.743
20
-114.289
11
236.886
21
-114.003
0
LINE
8
BLACK
6
CONTINUOUS
10
236.886
20
-114.003
11
237.029
21
-113.574
0
LINE
8
BLACK
6
CONTINUOUS
10
237.029
20
-113.574
11
237.171
21
-112.86
0
LINE
8
BLACK
6
CONTINUOUS
10
237.171
20
-112.86
11
237.171
21
-112.289
0
LINE
8
BLACK
6
CONTINUOUS
10
237.171
20
-112.289
11
237.029
21
-111.574
0
LINE
8
BLACK
6
CONTINUOUS
10
237.029
20
-111.574
11
236.886
21
-111.146
0
LINE
8
BLACK
6
CONTINUOUS
10
236.886
20
-111.146
11
236.743
21
-110.86
0
LINE
8
BLACK
6
CONTINUOUS
10
236.743
20
-110.86
11
236.457
21
-110.431
0
LINE
8
BLACK
6
CONTINUOUS
10
236.457
20
-110.431
11
236.314
21
-110.289
0
LINE
8
BLACK
6
CONTINUOUS
10
170.05
20
-115.62
11
171.45
21
-117.02
0
LINE
8
BLACK
6
CONTINUOUS
10
171.45
20
-115.62
11
170.05
21
-117.02
0
LINE
8
BLACK
6
CONTINUOUS
10
171.245
20
-116.815
11
171.245
21
-115.825
0
LINE
8
BLACK
6
CONTINUOUS
10
171.245
20
-115.825
11
170.255
21
-115.825
0
LINE
8
BLACK
6
CONTINUOUS
10
170.255
20
-115.825
11
170.255
21
-116.815
0
LINE
8
BLACK
6
CONTINUOUS
10
170.255
20
-116.815
11
171.245
21
-116.815
0
LINE
8
BLACK
6
CONTINUOUS
10
175.886
20
-117.677
11
174.171
21
-117.677
0
LINE
8
BLACK
6
CONTINUOUS
10
175.029
20
-117.677
11
175.029
21
-114.677
0
LINE
8
BLACK
6
CONTINUOUS
10
175.029
20
-114.677
11
174.743
21
-115.106
0
LINE
8
BLACK
6
CONTINUOUS
10
174.743
20
-115.106
11
174.457
21
-115.391
0
LINE
8
BLACK
6
CONTINUOUS
10
174.457
20
-115.391
11
174.171
21
-115.534
0
LINE
8
BLACK
6
CONTINUOUS
10
177.171
20
-117.391
11
177.314
21
-117.534
0
LINE
8
BLACK
6
CONTINUOUS
10
177.314
20
-117.534
11
177.171
21
-117.677
0
LINE
8
BLACK
6
CONTINUOUS
10
177.171
20
-117.677
11
177.029
21
-117.534
0
LINE
8
BLACK
6
CONTINUOUS
10
177.029
20
-117.534
11
177.171
21
-117.391
0
LINE
8
BLACK
6
CONTINUOUS
10
177.171
20
-117.391
11
177.171
21
-117.677
0
LINE
8
BLACK
6
CONTINUOUS
10
179.886
20
-115.677
11
179.886
21
-117.677
0
LINE
8
BLACK
6
CONTINUOUS
10
179.171
20
-114.534
11
178.457
21
-116.677
0
LINE
8
BLACK
6
CONTINUOUS
10
178.457
20
-116.677
11
180.314
21
-116.677
0
LINE
8
BLACK
6
CONTINUOUS
10
182.029
20
-114.677
11
182.314
21
-114.677
0
LINE
8
BLACK
6
CONTINUOUS
10
182.314
20
-114.677
11
182.6
21
-114.82
0
LINE
8
BLACK
6
CONTINUOUS
10
182.6
20
-114.82
11
182.743
21
-114.963
0
LINE
8
BLACK
6
CONTINUOUS
10
182.743
20
-114.963
11
182.886
21
-115.249
0
LINE
8
BLACK
6
CONTINUOUS
10
182.886
20
-115.249
11
183.029
21
-115.82
0
LINE
8
BLACK
6
CONTINUOUS
10
183.029
20
-115.82
11
183.029
21
-116.534
0
LINE
8
BLACK
6
CONTINUOUS
10
183.029
20
-116.534
11
182.886
21
-117.106
0
LINE
8
BLACK
6
CONTINUOUS
10
182.886
20
-117.106
11
182.743
21
-117.391
0
LINE
8
BLACK
6
CONTINUOUS
10
182.743
20
-117.391
11
182.6
21
-117.534
0
LINE
8
BLACK
6
CONTINUOUS
10
182.6
20
-117.534
11
182.314
21
-117.677
0
LINE
8
BLACK
6
CONTINUOUS
10
182.314
20
-117.677
11
182.029
21
-117.677
0
LINE
8
BLACK
6
CONTINUOUS
10
182.029
20
-117.677
11
181.743
21
-117.534
0
LINE
8
BLACK
6
CONTINUOUS
10
181.743
20
-117.534
11
181.6
21
-117.391
0
LINE
8
BLACK
6
CONTINUOUS
10
181.6
20
-117.391
11
181.457
21
-117.106
0
LINE
8
BLACK
6
CONTINUOUS
10
181.457
20
-117.106
11
181.314
21
-116.534
0
LINE
8
BLACK
6
CONTINUOUS
10
181.314
20
-116.534
11
181.314
21
-115.82
0
LINE
8
BLACK
6
CONTINUOUS
10
181.314
20
-115.82
11
181.457
21
-115.249
0
LINE
8
BLACK
6
CONTINUOUS
10
181.457
20
-115.249
11
181.6
21
-114.963
0
LINE
8
BLACK
6
CONTINUOUS
10
181.6
20
-114.963
11
181.743
21
-114.82
0
LINE
8
BLACK
6
CONTINUOUS
10
181.743
20
-114.82
11
182.029
21
-114.677
0
LINE
8
BLACK
6
CONTINUOUS
10
184.314
20
-117.677
11
184.314
21
-115.677
0
LINE
8
BLACK
6
CONTINUOUS
10
184.314
20
-115.963
11
184.457
21
-115.82
0
LINE
8
BLACK
6
CONTINUOUS
10
184.457
20
-115.82
11
184.743
21
-115.677
0
LINE
8
BLACK
6
CONTINUOUS
10
184.743
20
-115.677
11
185.171
21
-115.677
0
LINE
8
BLACK
6
CONTINUOUS
10
185.171
20
-115.677
11
185.457
21
-115.82
0
LINE
8
BLACK
6
CONTINUOUS
10
185.457
20
-115.82
11
185.6
21
-116.106
0
LINE
8
BLACK
6
CONTINUOUS
10
185.6
20
-116.106
11
185.6
21
-117.677
0
LINE
8
BLACK
6
CONTINUOUS
10
185.6
20
-116.106
11
185.743
21
-115.82
0
LINE
8
BLACK
6
CONTINUOUS
10
185.743
20
-115.82
11
186.029
21
-115.677
0
LINE
8
BLACK
6
CONTINUOUS
10
186.029
20
-115.677
11
186.457
21
-115.677
0
LINE
8
BLACK
6
CONTINUOUS
10
186.457
20
-115.677
11
186.743
21
-115.82
0
LINE
8
BLACK
6
CONTINUOUS
10
186.743
20
-115.82
11
186.886
21
-116.106
0
LINE
8
BLACK
6
CONTINUOUS
10
186.886
20
-116.106
11
186.886
21
-117.677
0
LINE
8
BLACK
6
CONTINUOUS
10
188.314
20
-117.677
11
188.314
21
-115.677
0
LINE
8
BLACK
6
CONTINUOUS
10
188.314
20
-115.963
11
188.457
21
-115.82
0
LINE
8
BLACK
6
CONTINUOUS
10
188.457
20
-115.82
11
188.743
21
-115.677
0
LINE
8
BLACK
6
CONTINUOUS
10
188.743
20
-115.677
11
189.171
21
-115.677
0
LINE
8
BLACK
6
CONTINUOUS
10
189.171
20
-115.677
11
189.457
21
-115.82
0
LINE
8
BLACK
6
CONTINUOUS
10
189.457
20
-115.82
11
189.6
21
-116.106
0
LINE
8
BLACK
6
CONTINUOUS
10
189.6
20
-116.106
11
189.6
21
-117.677
0
LINE
8
BLACK
6
CONTINUOUS
10
189.6
20
-116.106
11
189.743
21
-115.82
0
LINE
8
BLACK
6
CONTINUOUS
10
189.743
20
-115.82
11
190.029
21
-115.677
0
LINE
8
BLACK
6
CONTINUOUS
10
190.029
20
-115.677
11
190.457
21
-115.677
0
LINE
8
BLACK
6
CONTINUOUS
10
190.457
20
-115.677
11
190.743
21
-115.82
0
LINE
8
BLACK
6
CONTINUOUS
10
190.743
20
-115.82
11
190.886
21
-116.106
0
LINE
8
BLACK
6
CONTINUOUS
10
190.886
20
-116.106
11
190.886
21
-117.677
0
LINE
8
BLACK
6
CONTINUOUS
10
196.743
20
-114.534
11
194.171
21
-118.391
0
LINE
8
BLACK
6
CONTINUOUS
10
200.6
20
-114.677
11
200.886
21
-114.677
0
LINE
8
BLACK
6
CONTINUOUS
10
200.886
20
-114.677
11
201.171
21
-114.82
0
LINE
8
BLACK
6
CONTINUOUS
10
201.171
20
-114.82
11
201.314
21
-114.963
0
LINE
8
BLACK
6
CONTINUOUS
10
201.314
20
-114.963
11
201.457
21
-115.249
0
LINE
8
BLACK
6
CONTINUOUS
10
201.457
20
-115.249
11
201.6
21
-115.82
0
LINE
8
BLACK
6
CONTINUOUS
10
201.6
20
-115.82
11
201.6
21
-116.534
0
LINE
8
BLACK
6
CONTINUOUS
10
201.6
20
-116.534
11
201.457
21
-117.106
0
LINE
8
BLACK
6
CONTINUOUS
10
201.457
20
-117.106
11
201.314
21
-117.391
0
LINE
8
BLACK
6
CONTINUOUS
10
201.314
20
-117.391
11
201.171
21
-117.534
0
LINE
8
BLACK
6
CONTINUOUS
10
201.171
20
-117.534
11
200.886
21
-117.677
0
LINE
8
BLACK
6
CONTINUOUS
10
200.886
20
-117.677
11
200.6
21
-117.677
0
LINE
8
BLACK
6
CONTINUOUS
10
200.6
20
-117.677
11
200.314
21
-117.534
0
LINE
8
BLACK
6
CONTINUOUS
10
200.314
20
-117.534
11
200.171
21
-117.391
0
LINE
8
BLACK
6
CONTINUOUS
10
200.171
20
-117.391
11
200.029
21
-117.106
0
LINE
8
BLACK
6
CONTINUOUS
10
200.029
20
-117.106
11
199.886
21
-116.534
0
LINE
8
BLACK
6
CONTINUOUS
10
199.886
20
-116.534
11
199.886
21
-115.82
0
LINE
8
BLACK
6
CONTINUOUS
10
199.886
20
-115.82
11
200.029
21
-115.249
0
LINE
8
BLACK
6
CONTINUOUS
10
200.029
20
-115.249
11
200.171
21
-114.963
0
LINE
8
BLACK
6
CONTINUOUS
10
200.171
20
-114.963
11
200.314
21
-114.82
0
LINE
8
BLACK
6
CONTINUOUS
10
200.314
20
-114.82
11
200.6
21
-114.677
0
LINE
8
BLACK
6
CONTINUOUS
10
202.886
20
-117.391
11
203.029
21
-117.534
0
LINE
8
BLACK
6
CONTINUOUS
10
203.029
20
-117.534
11
202.886
21
-117.677
0
LINE
8
BLACK
6
CONTINUOUS
10
202.886
20
-117.677
11
202.743
21
-117.534
0
LINE
8
BLACK
6
CONTINUOUS
10
202.743
20
-117.534
11
202.886
21
-117.391
0
LINE
8
BLACK
6
CONTINUOUS
10
202.886
20
-117.391
11
202.886
21
-117.677
0
LINE
8
BLACK
6
CONTINUOUS
10
204.886
20
-114.677
11
205.171
21
-114.677
0
LINE
8
BLACK
6
CONTINUOUS
10
205.171
20
-114.677
11
205.457
21
-114.82
0
LINE
8
BLACK
6
CONTINUOUS
10
205.457
20
-114.82
11
205.6
21
-114.963
0
LINE
8
BLACK
6
CONTINUOUS
10
205.6
20
-114.963
11
205.743
21
-115.249
0
LINE
8
BLACK
6
CONTINUOUS
10
205.743
20
-115.249
11
205.886
21
-115.82
0
LINE
8
BLACK
6
CONTINUOUS
10
205.886
20
-115.82
11
205.886
21
-116.534
0
LINE
8
BLACK
6
CONTINUOUS
10
205.886
20
-116.534
11
205.743
21
-117.106
0
LINE
8
BLACK
6
CONTINUOUS
10
205.743
20
-117.106
11
205.6
21
-117.391
0
LINE
8
BLACK
6
CONTINUOUS
10
205.6
20
-117.391
11
205.457
21
-117.534
0
LINE
8
BLACK
6
CONTINUOUS
10
205.457
20
-117.534
11
205.171
21
-117.677
0
LINE
8
BLACK
6
CONTINUOUS
10
205.171
20
-117.677
11
204.886
21
-117.677
0
LINE
8
BLACK
6
CONTINUOUS
10
204.886
20
-117.677
11
204.6
21
-117.534
0
LINE
8
BLACK
6
CONTINUOUS
10
204.6
20
-117.534
11
204.457
21
-117.391
0
LINE
8
BLACK
6
CONTINUOUS
10
204.457
20
-117.391
11
204.314
21
-117.106
0
LINE
8
BLACK
6
CONTINUOUS
10
204.314
20
-117.106
11
204.171
21
-116.534
0
LINE
8
BLACK
6
CONTINUOUS
10
204.171
20
-116.534
11
204.171
21
-115.82
0
LINE
8
BLACK
6
CONTINUOUS
10
204.171
20
-115.82
11
204.314
21
-115.249
0
LINE
8
BLACK
6
CONTINUOUS
10
204.314
20
-115.249
11
204.457
21
-114.963
0
LINE
8
BLACK
6
CONTINUOUS
10
204.457
20
-114.963
11
204.6
21
-114.82
0
LINE
8
BLACK
6
CONTINUOUS
10
204.6
20
-114.82
11
204.886
21
-114.677
0
LINE
8
BLACK
6
CONTINUOUS
10
208.6
20
-114.677
11
207.171
21
-114.677
0
LINE
8
BLACK
6
CONTINUOUS
10
207.171
20
-114.677
11
207.029
21
-116.106
0
LINE
8
BLACK
6
CONTINUOUS
10
207.029
20
-116.106
11
207.171
21
-115.963
0
LINE
8
BLACK
6
CONTINUOUS
10
207.171
20
-115.963
11
207.457
21
-115.82
0
LINE
8
BLACK
6
CONTINUOUS
10
207.457
20
-115.82
11
208.171
21
-115.82
0
LINE
8
BLACK
6
CONTINUOUS
10
208.171
20
-115.82
11
208.457
21
-115.963
0
LINE
8
BLACK
6
CONTINUOUS
10
208.457
20
-115.963
11
208.6
21
-116.106
0
LINE
8
BLACK
6
CONTINUOUS
10
208.6
20
-116.106
11
208.743
21
-116.391
0
LINE
8
BLACK
6
CONTINUOUS
10
208.743
20
-116.391
11
208.743
21
-117.106
0
LINE
8
BLACK
6
CONTINUOUS
10
208.743
20
-117.106
11
208.6
21
-117.391
0
LINE
8
BLACK
6
CONTINUOUS
10
208.6
20
-117.391
11
208.457
21
-117.534
0
LINE
8
BLACK
6
CONTINUOUS
10
208.457
20
-117.534
11
208.171
21
-117.677
0
LINE
8
BLACK
6
CONTINUOUS
10
208.171
20
-117.677
11
207.457
21
-117.677
0
LINE
8
BLACK
6
CONTINUOUS
10
207.457
20
-117.677
11
207.171
21
-117.534
0
LINE
8
BLACK
6
CONTINUOUS
10
207.171
20
-117.534
11
207.029
21
-117.391
0
LINE
8
BLACK
6
CONTINUOUS
10
211.457
20
-114.677
11
210.029
21
-114.677
0
LINE
8
BLACK
6
CONTINUOUS
10
210.029
20
-114.677
11
209.886
21
-116.106
0
LINE
8
BLACK
6
CONTINUOUS
10
209.886
20
-116.106
11
210.029
21
-115.963
0
LINE
8
BLACK
6
CONTINUOUS
10
210.029
20
-115.963
11
210.314
21
-115.82
0
LINE
8
BLACK
6
CONTINUOUS
10
210.314
20
-115.82
11
211.029
21
-115.82
0
LINE
8
BLACK
6
CONTINUOUS
10
211.029
20
-115.82
11
211.314
21
-115.963
0
LINE
8
BLACK
6
CONTINUOUS
10
211.314
20
-115.963
11
211.457
21
-116.106
0
LINE
8
BLACK
6
CONTINUOUS
10
211.457
20
-116.106
11
211.6
21
-116.391
0
LINE
8
BLACK
6
CONTINUOUS
10
211.6
20
-116.391
11
211.6
21
-117.106
0
LINE
8
BLACK
6
CONTINUOUS
10
211.6
20
-117.106
11
211.457
21
-117.391
0
LINE
8
BLACK
6
CONTINUOUS
10
211.457
20
-117.391
11
211.314
21
-117.534
0
LINE
8
BLACK
6
CONTINUOUS
10
211.314
20
-117.534
11
211.029
21
-117.677
0
LINE
8
BLACK
6
CONTINUOUS
10
211.029
20
-117.677
11
210.314
21
-117.677
0
LINE
8
BLACK
6
CONTINUOUS
10
210.314
20
-117.677
11
210.029
21
-117.534
0
LINE
8
BLACK
6
CONTINUOUS
10
210.029
20
-117.534
11
209.886
21
-117.391
0
LINE
8
BLACK
6
CONTINUOUS
10
212.743
20
-114.677
11
212.743
21
-115.249
0
LINE
8
BLACK
6
CONTINUOUS
10
213.886
20
-114.677
11
213.886
21
-115.249
0
LINE
8
BLACK
6
CONTINUOUS
10
218.314
20
-118.82
11
218.171
21
-118.677
0
LINE
8
BLACK
6
CONTINUOUS
10
218.171
20
-118.677
11
217.886
21
-118.249
0
LINE
8
BLACK
6
CONTINUOUS
10
217.886
20
-118.249
11
217.743
21
-117.963
0
LINE
8
BLACK
6
CONTINUOUS
10
217.743
20
-117.963
11
217.6
21
-117.534
0
LINE
8
BLACK
6
CONTINUOUS
10
217.6
20
-117.534
11
217.457
21
-116.82
0
LINE
8
BLACK
6
CONTINUOUS
10
217.457
20
-116.82
11
217.457
21
-116.249
0
LINE
8
BLACK
6
CONTINUOUS
10
217.457
20
-116.249
11
217.6
21
-115.534
0
LINE
8
BLACK
6
CONTINUOUS
10
217.6
20
-115.534
11
217.743
21
-115.106
0
LINE
8
BLACK
6
CONTINUOUS
10
217.743
20
-115.106
11
217.886
21
-114.82
0
LINE
8
BLACK
6
CONTINUOUS
10
217.886
20
-114.82
11
218.171
21
-114.391
0
LINE
8
BLACK
6
CONTINUOUS
10
218.171
20
-114.391
11
218.314
21
-114.249
0
LINE
8
BLACK
6
CONTINUOUS
10
219.171
20
-114.677
11
221.029
21
-114.677
0
LINE
8
BLACK
6
CONTINUOUS
10
221.029
20
-114.677
11
220.029
21
-115.82
0
LINE
8
BLACK
6
CONTINUOUS
10
220.029
20
-115.82
11
220.457
21
-115.82
0
LINE
8
BLACK
6
CONTINUOUS
10
220.457
20
-115.82
11
220.743
21
-115.963
0
LINE
8
BLACK
6
CONTINUOUS
10
220.743
20
-115.963
11
220.886
21
-116.106
0
LINE
8
BLACK
6
CONTINUOUS
10
220.886
20
-116.106
11
221.029
21
-116.391
0
LINE
8
BLACK
6
CONTINUOUS
10
221.029
20
-116.391
11
221.029
21
-117.106
0
LINE
8
BLACK
6
CONTINUOUS
10
221.029
20
-117.106
11
220.886
21
-117.391
0
LINE
8
BLACK
6
CONTINUOUS
10
220.886
20
-117.391
11
220.743
21
-117.534
0
LINE
8
BLACK
6
CONTINUOUS
10
220.743
20
-117.534
11
220.457
21
-117.677
0
LINE
8
BLACK
6
CONTINUOUS
10
220.457
20
-117.677
11
219.6
21
-117.677
0
LINE
8
BLACK
6
CONTINUOUS
10
219.6
20
-117.677
11
219.314
21
-117.534
0
LINE
8
BLACK
6
CONTINUOUS
10
219.314
20
-117.534
11
219.171
21
-117.391
0
LINE
8
BLACK
6
CONTINUOUS
10
224.6
20
-117.677
11
224.6
21
-114.677
0
LINE
8
BLACK
6
CONTINUOUS
10
225.886
20
-117.677
11
225.886
21
-116.106
0
LINE
8
BLACK
6
CONTINUOUS
10
225.886
20
-116.106
11
225.743
21
-115.82
0
LINE
8
BLACK
6
CONTINUOUS
10
225.743
20
-115.82
11
225.457
21
-115.677
0
LINE
8
BLACK
6
CONTINUOUS
10
225.457
20
-115.677
11
225.029
21
-115.677
0
LINE
8
BLACK
6
CONTINUOUS
10
225.029
20
-115.677
11
224.743
21
-115.82
0
LINE
8
BLACK
6
CONTINUOUS
10
224.743
20
-115.82
11
224.6
21
-115.963
0
LINE
8
BLACK
6
CONTINUOUS
10
227.743
20
-117.677
11
227.457
21
-117.534
0
LINE
8
BLACK
6
CONTINUOUS
10
227.457
20
-117.534
11
227.314
21
-117.391
0
LINE
8
BLACK
6
CONTINUOUS
10
227.314
20
-117.391
11
227.171
21
-117.106
0
LINE
8
BLACK
6
CONTINUOUS
10
227.171
20
-117.106
11
227.171
21
-116.249
0
LINE
8
BLACK
6
CONTINUOUS
10
227.171
20
-116.249
11
227.314
21
-115.963
0
LINE
8
BLACK
6
CONTINUOUS
10
227.314
20
-115.963
11
227.457
21
-115.82
0
LINE
8
BLACK
6
CONTINUOUS
10
227.457
20
-115.82
11
227.743
21
-115.677
0
LINE
8
BLACK
6
CONTINUOUS
10
227.743
20
-115.677
11
228.171
21
-115.677
0
LINE
8
BLACK
6
CONTINUOUS
10
228.171
20
-115.677
11
228.457
21
-115.82
0
LINE
8
BLACK
6
CONTINUOUS
10
228.457
20
-115.82
11
228.6
21
-115.963
0
LINE
8
BLACK
6
CONTINUOUS
10
228.6
20
-115.963
11
228.743
21
-116.249
0
LINE
8
BLACK
6
CONTINUOUS
10
228.743
20
-116.249
11
228.743
21
-117.106
0
LINE
8
BLACK
6
CONTINUOUS
10
228.743
20
-117.106
11
228.6
21
-117.391
0
LINE
8
BLACK
6
CONTINUOUS
10
228.6
20
-117.391
11
228.457
21
-117.534
0
LINE
8
BLACK
6
CONTINUOUS
10
228.457
20
-117.534
11
228.171
21
-117.677
0
LINE
8
BLACK
6
CONTINUOUS
10
228.171
20
-117.677
11
227.743
21
-117.677
0
LINE
8
BLACK
6
CONTINUOUS
10
230.457
20
-117.677
11
230.171
21
-117.534
0
LINE
8
BLACK
6
CONTINUOUS
10
230.171
20
-117.534
11
230.029
21
-117.249
0
LINE
8
BLACK
6
CONTINUOUS
10
230.029
20
-117.249
11
230.029
21
-114.677
0
LINE
8
BLACK
6
CONTINUOUS
10
232.743
20
-117.534
11
232.457
21
-117.677
0
LINE
8
BLACK
6
CONTINUOUS
10
232.457
20
-117.677
11
231.886
21
-117.677
0
LINE
8
BLACK
6
CONTINUOUS
10
231.886
20
-117.677
11
231.6
21
-117.534
0
LINE
8
BLACK
6
CONTINUOUS
10
231.6
20
-117.534
11
231.457
21
-117.249
0
LINE
8
BLACK
6
CONTINUOUS
10
231.457
20
-117.249
11
231.457
21
-116.106
0
LINE
8
BLACK
6
CONTINUOUS
10
231.457
20
-116.106
11
231.6
21
-115.82
0
LINE
8
BLACK
6
CONTINUOUS
10
231.6
20
-115.82
11
231.886
21
-115.677
0
LINE
8
BLACK
6
CONTINUOUS
10
231.886
20
-115.677
11
232.457
21
-115.677
0
LINE
8
BLACK
6
CONTINUOUS
10
232.457
20
-115.677
11
232.743
21
-115.82
0
LINE
8
BLACK
6
CONTINUOUS
10
232.743
20
-115.82
11
232.886
21
-116.106
0
LINE
8
BLACK
6
CONTINUOUS
10
232.886
20
-116.106
11
232.886
21
-116.391
0
LINE
8
BLACK
6
CONTINUOUS
10
232.886
20
-116.391
11
231.457
21
-116.677
0
LINE
8
BLACK
6
CONTINUOUS
10
234.029
20
-117.534
11
234.314
21
-117.677
0
LINE
8
BLACK
6
CONTINUOUS
10
234.314
20
-117.677
11
234.886
21
-117.677
0
LINE
8
BLACK
6
CONTINUOUS
10
234.886
20
-117.677
11
235.171
21
-117.534
0
LINE
8
BLACK
6
CONTINUOUS
10
235.171
20
-117.534
11
235.314
21
-117.249
0
LINE
8
BLACK
6
CONTINUOUS
10
235.314
20
-117.249
11
235.314
21
-117.106
0
LINE
8
BLACK
6
CONTINUOUS
10
235.314
20
-117.106
11
235.171
21
-116.82
0
LINE
8
BLACK
6
CONTINUOUS
10
235.171
20
-116.82
11
234.886
21
-116.677
0
LINE
8
BLACK
6
CONTINUOUS
10
234.886
20
-116.677
11
234.457
21
-116.677
0
LINE
8
BLACK
6
CONTINUOUS
10
234.457
20
-116.677
11
234.171
21
-116.534
0
LINE
8
BLACK
6
CONTINUOUS
10
234.171
20
-116.534
11
234.029
21
-116.249
0
LINE
8
BLACK
6
CONTINUOUS
10
234.029
20
-116.249
11
234.029
21
-116.106
0
LINE
8
BLACK
6
CONTINUOUS
10
234.029
20
-116.106
11
234.171
21
-115.82
0
LINE
8
BLACK
6
CONTINUOUS
10
234.171
20
-115.82
11
234.457
21
-115.677
0
LINE
8
BLACK
6
CONTINUOUS
10
234.457
20
-115.677
11
234.886
21
-115.677
0
LINE
8
BLACK
6
CONTINUOUS
10
234.886
20
-115.677
11
235.171
21
-115.82
0
LINE
8
BLACK
6
CONTINUOUS
10
236.314
20
-118.82
11
236.457
21
-118.677
0
LINE
8
BLACK
6
CONTINUOUS
10
236.457
20
-118.677
11
236.743
21
-118.249
0
LINE
8
BLACK
6
CONTINUOUS
10
236.743
20
-118.249
11
236.886
21
-117.963
0
LINE
8
BLACK
6
CONTINUOUS
10
236.886
20
-117.963
11
237.029
21
-117.534
0
LINE
8
BLACK
6
CONTINUOUS
10
237.029
20
-117.534
11
237.171
21
-116.82
0
LINE
8
BLACK
6
CONTINUOUS
10
237.171
20
-116.82
11
237.171
21
-116.249
0
LINE
8
BLACK
6
CONTINUOUS
10
237.171
20
-116.249
11
237.029
21
-115.534
0
LINE
8
BLACK
6
CONTINUOUS
10
237.029
20
-115.534
11
236.886
21
-115.106
0
LINE
8
BLACK
6
CONTINUOUS
10
236.886
20
-115.106
11
236.743
21
-114.82
0
LINE
8
BLACK
6
CONTINUOUS
10
236.743
20
-114.82
11
236.457
21
-114.391
0
LINE
8
BLACK
6
CONTINUOUS
10
236.457
20
-114.391
11
236.314
21
-114.249
  0
ENDSEC
  0
EOF
