  0
SECTION
  2
HEADER
  9
$ANGBASE
  50
0.0
  9
$ANGDIR
  70
1
  9
$MEASUREMENT
  70
1
  0
ENDSEC
  0
SECTION
  2
TABLES
  0
TABLE
  2
LTYPE
  70
4
  0
LTYPE
  5
40F
  2
CONTINUOUS
  70
0
  3
Solid line
  72
65
  73
0
  40
0.0
  0
LTYPE
  5
410
  2
DASHDOT
 70
0
  3
Dash Dot ____ _ ____ _
 72
65
 73
4
 40
2.0
 49
1.25
 49
-0.25
 49
0.25
 49
-0.25
  0
LTYPE
  5
411
  2
DASHED
 70
0
  3
Dashed __ __ __ __ __
 72
65
 73
2
 40
0.75
 49
0.5
 49
-0.25
  0
LTYPE
  5
43B
  2
DOTTED
 70
0
  3
Dotted .  .  .  .
 72
65
 73
2
 40
0.2
 49
0.0
 49
-0.2
  0
ENDTAB
  0
TABLE
  2
STYLE
  70
4
  0
STYLE
  2
KICAD
  70
0
  40
0
  41
1
  42
1
  50
0
  71
0
  3
isocp.shx
  0
STYLE
  2
KICADB
  70
0
  40
0
  41
1
  42
1
  50
0
  71
0
  3
isocp.shx
  0
STYLE
  2
KICADI
  70
0
  40
0
  41
1
  42
1
  50
15
  71
0
  3
isocp.shx
  0
STYLE
  2
KICADBI
  70
0
  40
0
  41
1
  42
1
  50
15
  71
0
  3
isocp.shx
  0
ENDTAB
  0
TABLE
  2
LAYER
  70
1
  0
LAYER
  2
BLACK
  70
0
  62
7
  6
CONTINUOUS
  0
ENDTAB
  0
ENDSEC
  0
SECTION
  2
ENTITIES
0
LINE
8
BLACK
6
CONTINUOUS
10
190
20
-33.9
11
263.8
21
-33.9
0
LINE
8
BLACK
6
CONTINUOUS
10
190
20
-39
11
190
21
-33.9
0
LINE
8
BLACK
6
CONTINUOUS
10
188
20
-39
11
190
21
-39
0
LINE
8
BLACK
6
CONTINUOUS
10
188
20
-38
11
188
21
-39
0
LINE
8
BLACK
6
CONTINUOUS
10
171.5
20
-38
11
188
21
-38
0
LINE
8
BLACK
6
CONTINUOUS
10
171.5
20
-76
11
171.5
21
-38
0
LINE
8
BLACK
6
CONTINUOUS
10
188
20
-76
11
171.5
21
-76
0
LINE
8
BLACK
6
CONTINUOUS
10
188
20
-75
11
188
21
-76
0
LINE
8
BLACK
6
CONTINUOUS
10
190
20
-75
11
188
21
-75
0
LINE
8
BLACK
6
CONTINUOUS
10
190
20
-76.5
11
190
21
-75
0
LINE
8
BLACK
6
CONTINUOUS
10
264.7
20
-76.5
11
190
21
-76.5
0
LINE
8
BLACK
6
CONTINUOUS
10
264.7
20
-33.9
11
264.7
21
-76.5
0
LINE
8
BLACK
6
CONTINUOUS
10
263.8
20
-33.9
11
264.7
21
-33.9
0
LINE
8
BLACK
6
CONTINUOUS
10
190
20
-40
11
188
21
-40
0
LINE
8
BLACK
6
CONTINUOUS
10
190
20
-74
11
190
21
-40
0
LINE
8
BLACK
6
CONTINUOUS
10
188
20
-74
11
190
21
-74
0
LINE
8
BLACK
6
CONTINUOUS
10
188
20
-40
11
188
21
-74
0
LINE
8
BLACK
6
CONTINUOUS
10
177
20
-71.7
11
178.6
21
-73.3
0
LINE
8
BLACK
6
CONTINUOUS
10
178.6
20
-71.7
11
177
21
-73.3
0
CIRCLE
8
BLACK
10
179.705
20
-52.705
40
1.1
0
CIRCLE
8
BLACK
10
186.055
20
-70.485
40
1.1
0
CIRCLE
8
BLACK
10
192.2
20
-36.1
40
1.1
0
CIRCLE
8
BLACK
10
203.5
20
-73.3
40
1.1
0
CIRCLE
8
BLACK
10
262.4
20
-36.2
40
1.1
0
CIRCLE
8
BLACK
10
262.4
20
-74.2
40
1.1
0
LINE
8
BLACK
6
CONTINUOUS
10
174.314
20
-83.6571
11
174.314
21
-80.6571
0
LINE
8
BLACK
6
CONTINUOUS
10
174.314
20
-80.6571
11
175.029
21
-80.6571
0
LINE
8
BLACK
6
CONTINUOUS
10
175.029
20
-80.6571
11
175.457
21
-80.8
0
LINE
8
BLACK
6
CONTINUOUS
10
175.457
20
-80.8
11
175.743
21
-81.0857
0
LINE
8
BLACK
6
CONTINUOUS
10
175.743
20
-81.0857
11
175.886
21
-81.3714
0
LINE
8
BLACK
6
CONTINUOUS
10
175.886
20
-81.3714
11
176.029
21
-81.9429
0
LINE
8
BLACK
6
CONTINUOUS
10
176.029
20
-81.9429
11
176.029
21
-82.3714
0
LINE
8
BLACK
6
CONTINUOUS
10
176.029
20
-82.3714
11
175.886
21
-82.9429
0
LINE
8
BLACK
6
CONTINUOUS
10
175.886
20
-82.9429
11
175.743
21
-83.2286
0
LINE
8
BLACK
6
CONTINUOUS
10
175.743
20
-83.2286
11
175.457
21
-83.5143
0
LINE
8
BLACK
6
CONTINUOUS
10
175.457
20
-83.5143
11
175.029
21
-83.6571
0
LINE
8
BLACK
6
CONTINUOUS
10
175.029
20
-83.6571
11
174.314
21
-83.6571
0
LINE
8
BLACK
6
CONTINUOUS
10
177.314
20
-83.6571
11
177.314
21
-81.6571
0
LINE
8
BLACK
6
CONTINUOUS
10
177.314
20
-82.2286
11
177.457
21
-81.9429
0
LINE
8
BLACK
6
CONTINUOUS
10
177.457
20
-81.9429
11
177.6
21
-81.8
0
LINE
8
BLACK
6
CONTINUOUS
10
177.6
20
-81.8
11
177.886
21
-81.6571
0
LINE
8
BLACK
6
CONTINUOUS
10
177.886
20
-81.6571
11
178.171
21
-81.6571
0
LINE
8
BLACK
6
CONTINUOUS
10
179.171
20
-83.6571
11
179.171
21
-81.6571
0
LINE
8
BLACK
6
CONTINUOUS
10
179.171
20
-80.6571
11
179.029
21
-80.8
0
LINE
8
BLACK
6
CONTINUOUS
10
179.029
20
-80.8
11
179.171
21
-80.9429
0
LINE
8
BLACK
6
CONTINUOUS
10
179.171
20
-80.9429
11
179.314
21
-80.8
0
LINE
8
BLACK
6
CONTINUOUS
10
179.314
20
-80.8
11
179.171
21
-80.6571
0
LINE
8
BLACK
6
CONTINUOUS
10
179.171
20
-80.6571
11
179.171
21
-80.9429
0
LINE
8
BLACK
6
CONTINUOUS
10
181.029
20
-83.6571
11
180.743
21
-83.5143
0
LINE
8
BLACK
6
CONTINUOUS
10
180.743
20
-83.5143
11
180.6
21
-83.2286
0
LINE
8
BLACK
6
CONTINUOUS
10
180.6
20
-83.2286
11
180.6
21
-80.6571
0
LINE
8
BLACK
6
CONTINUOUS
10
182.6
20
-83.6571
11
182.314
21
-83.5143
0
LINE
8
BLACK
6
CONTINUOUS
10
182.314
20
-83.5143
11
182.171
21
-83.2286
0
LINE
8
BLACK
6
CONTINUOUS
10
182.171
20
-83.2286
11
182.171
21
-80.6571
0
LINE
8
BLACK
6
CONTINUOUS
10
186.029
20
-83.6571
11
186.029
21
-80.6571
0
LINE
8
BLACK
6
CONTINUOUS
10
186.029
20
-80.6571
11
187.029
21
-82.8
0
LINE
8
BLACK
6
CONTINUOUS
10
187.029
20
-82.8
11
188.029
21
-80.6571
0
LINE
8
BLACK
6
CONTINUOUS
10
188.029
20
-80.6571
11
188.029
21
-83.6571
0
LINE
8
BLACK
6
CONTINUOUS
10
190.743
20
-83.6571
11
190.743
21
-82.0857
0
LINE
8
BLACK
6
CONTINUOUS
10
190.743
20
-82.0857
11
190.6
21
-81.8
0
LINE
8
BLACK
6
CONTINUOUS
10
190.6
20
-81.8
11
190.314
21
-81.6571
0
LINE
8
BLACK
6
CONTINUOUS
10
190.314
20
-81.6571
11
189.743
21
-81.6571
0
LINE
8
BLACK
6
CONTINUOUS
10
189.743
20
-81.6571
11
189.457
21
-81.8
0
LINE
8
BLACK
6
CONTINUOUS
10
190.743
20
-83.5143
11
190.457
21
-83.6571
0
LINE
8
BLACK
6
CONTINUOUS
10
190.457
20
-83.6571
11
189.743
21
-83.6571
0
LINE
8
BLACK
6
CONTINUOUS
10
189.743
20
-83.6571
11
189.457
21
-83.5143
0
LINE
8
BLACK
6
CONTINUOUS
10
189.457
20
-83.5143
11
189.314
21
-83.2286
0
LINE
8
BLACK
6
CONTINUOUS
10
189.314
20
-83.2286
11
189.314
21
-82.9429
0
LINE
8
BLACK
6
CONTINUOUS
10
189.314
20
-82.9429
11
189.457
21
-82.6571
0
LINE
8
BLACK
6
CONTINUOUS
10
189.457
20
-82.6571
11
189.743
21
-82.5143
0
LINE
8
BLACK
6
CONTINUOUS
10
189.743
20
-82.5143
11
190.457
21
-82.5143
0
LINE
8
BLACK
6
CONTINUOUS
10
190.457
20
-82.5143
11
190.743
21
-82.3714
0
LINE
8
BLACK
6
CONTINUOUS
10
192.171
20
-81.6571
11
192.171
21
-84.6571
0
LINE
8
BLACK
6
CONTINUOUS
10
192.171
20
-81.8
11
192.457
21
-81.6571
0
LINE
8
BLACK
6
CONTINUOUS
10
192.457
20
-81.6571
11
193.029
21
-81.6571
0
LINE
8
BLACK
6
CONTINUOUS
10
193.029
20
-81.6571
11
193.314
21
-81.8
0
LINE
8
BLACK
6
CONTINUOUS
10
193.314
20
-81.8
11
193.457
21
-81.9429
0
LINE
8
BLACK
6
CONTINUOUS
10
193.457
20
-81.9429
11
193.6
21
-82.2286
0
LINE
8
BLACK
6
CONTINUOUS
10
193.6
20
-82.2286
11
193.6
21
-83.0857
0
LINE
8
BLACK
6
CONTINUOUS
10
193.6
20
-83.0857
11
193.457
21
-83.3714
0
LINE
8
BLACK
6
CONTINUOUS
10
193.457
20
-83.3714
11
193.314
21
-83.5143
0
LINE
8
BLACK
6
CONTINUOUS
10
193.314
20
-83.5143
11
193.029
21
-83.6571
0
LINE
8
BLACK
6
CONTINUOUS
10
193.029
20
-83.6571
11
192.457
21
-83.6571
0
LINE
8
BLACK
6
CONTINUOUS
10
192.457
20
-83.6571
11
192.171
21
-83.5143
0
LINE
8
BLACK
6
CONTINUOUS
10
194.886
20
-83.3714
11
195.029
21
-83.5143
0
LINE
8
BLACK
6
CONTINUOUS
10
195.029
20
-83.5143
11
194.886
21
-83.6571
0
LINE
8
BLACK
6
CONTINUOUS
10
194.886
20
-83.6571
11
194.743
21
-83.5143
0
LINE
8
BLACK
6
CONTINUOUS
10
194.743
20
-83.5143
11
194.886
21
-83.3714
0
LINE
8
BLACK
6
CONTINUOUS
10
194.886
20
-83.3714
11
194.886
21
-83.6571
0
LINE
8
BLACK
6
CONTINUOUS
10
194.886
20
-81.8
11
195.029
21
-81.9429
0
LINE
8
BLACK
6
CONTINUOUS
10
195.029
20
-81.9429
11
194.886
21
-82.0857
0
LINE
8
BLACK
6
CONTINUOUS
10
194.886
20
-82.0857
11
194.743
21
-81.9429
0
LINE
8
BLACK
6
CONTINUOUS
10
194.743
20
-81.9429
11
194.886
21
-81.8
0
LINE
8
BLACK
6
CONTINUOUS
10
194.886
20
-81.8
11
194.886
21
-82.0857
0
LINE
8
BLACK
6
CONTINUOUS
10
169.85
20
-87.8
11
171.45
21
-89.4
0
LINE
8
BLACK
6
CONTINUOUS
10
171.45
20
-87.8
11
169.85
21
-89.4
0
LINE
8
BLACK
6
CONTINUOUS
10
175.886
20
-89.9571
11
174.171
21
-89.9571
0
LINE
8
BLACK
6
CONTINUOUS
10
175.029
20
-89.9571
11
175.029
21
-86.9571
0
LINE
8
BLACK
6
CONTINUOUS
10
175.029
20
-86.9571
11
174.743
21
-87.3857
0
LINE
8
BLACK
6
CONTINUOUS
10
174.743
20
-87.3857
11
174.457
21
-87.6714
0
LINE
8
BLACK
6
CONTINUOUS
10
174.457
20
-87.6714
11
174.171
21
-87.8143
0
LINE
8
BLACK
6
CONTINUOUS
10
177.171
20
-89.6714
11
177.314
21
-89.8143
0
LINE
8
BLACK
6
CONTINUOUS
10
177.314
20
-89.8143
11
177.171
21
-89.9571
0
LINE
8
BLACK
6
CONTINUOUS
10
177.171
20
-89.9571
11
177.029
21
-89.8143
0
LINE
8
BLACK
6
CONTINUOUS
10
177.029
20
-89.8143
11
177.171
21
-89.6714
0
LINE
8
BLACK
6
CONTINUOUS
10
177.171
20
-89.6714
11
177.171
21
-89.9571
0
LINE
8
BLACK
6
CONTINUOUS
10
179.886
20
-86.9571
11
179.314
21
-86.9571
0
LINE
8
BLACK
6
CONTINUOUS
10
179.314
20
-86.9571
11
179.029
21
-87.1
0
LINE
8
BLACK
6
CONTINUOUS
10
179.029
20
-87.1
11
178.886
21
-87.2429
0
LINE
8
BLACK
6
CONTINUOUS
10
178.886
20
-87.2429
11
178.6
21
-87.6714
0
LINE
8
BLACK
6
CONTINUOUS
10
178.6
20
-87.6714
11
178.457
21
-88.2429
0
LINE
8
BLACK
6
CONTINUOUS
10
178.457
20
-88.2429
11
178.457
21
-89.3857
0
LINE
8
BLACK
6
CONTINUOUS
10
178.457
20
-89.3857
11
178.6
21
-89.6714
0
LINE
8
BLACK
6
CONTINUOUS
10
178.6
20
-89.6714
11
178.743
21
-89.8143
0
LINE
8
BLACK
6
CONTINUOUS
10
178.743
20
-89.8143
11
179.029
21
-89.9571
0
LINE
8
BLACK
6
CONTINUOUS
10
179.029
20
-89.9571
11
179.6
21
-89.9571
0
LINE
8
BLACK
6
CONTINUOUS
10
179.6
20
-89.9571
11
179.886
21
-89.8143
0
LINE
8
BLACK
6
CONTINUOUS
10
179.886
20
-89.8143
11
180.029
21
-89.6714
0
LINE
8
BLACK
6
CONTINUOUS
10
180.029
20
-89.6714
11
180.171
21
-89.3857
0
LINE
8
BLACK
6
CONTINUOUS
10
180.171
20
-89.3857
11
180.171
21
-88.6714
0
LINE
8
BLACK
6
CONTINUOUS
10
180.171
20
-88.6714
11
180.029
21
-88.3857
0
LINE
8
BLACK
6
CONTINUOUS
10
180.029
20
-88.3857
11
179.886
21
-88.2429
0
LINE
8
BLACK
6
CONTINUOUS
10
179.886
20
-88.2429
11
179.6
21
-88.1
0
LINE
8
BLACK
6
CONTINUOUS
10
179.6
20
-88.1
11
179.029
21
-88.1
0
LINE
8
BLACK
6
CONTINUOUS
10
179.029
20
-88.1
11
178.743
21
-88.2429
0
LINE
8
BLACK
6
CONTINUOUS
10
178.743
20
-88.2429
11
178.6
21
-88.3857
0
LINE
8
BLACK
6
CONTINUOUS
10
178.6
20
-88.3857
11
178.457
21
-88.6714
0
LINE
8
BLACK
6
CONTINUOUS
10
182.029
20
-86.9571
11
182.314
21
-86.9571
0
LINE
8
BLACK
6
CONTINUOUS
10
182.314
20
-86.9571
11
182.6
21
-87.1
0
LINE
8
BLACK
6
CONTINUOUS
10
182.6
20
-87.1
11
182.743
21
-87.2429
0
LINE
8
BLACK
6
CONTINUOUS
10
182.743
20
-87.2429
11
182.886
21
-87.5286
0
LINE
8
BLACK
6
CONTINUOUS
10
182.886
20
-87.5286
11
183.029
21
-88.1
0
LINE
8
BLACK
6
CONTINUOUS
10
183.029
20
-88.1
11
183.029
21
-88.8143
0
LINE
8
BLACK
6
CONTINUOUS
10
183.029
20
-88.8143
11
182.886
21
-89.3857
0
LINE
8
BLACK
6
CONTINUOUS
10
182.886
20
-89.3857
11
182.743
21
-89.6714
0
LINE
8
BLACK
6
CONTINUOUS
10
182.743
20
-89.6714
11
182.6
21
-89.8143
0
LINE
8
BLACK
6
CONTINUOUS
10
182.6
20
-89.8143
11
182.314
21
-89.9571
0
LINE
8
BLACK
6
CONTINUOUS
10
182.314
20
-89.9571
11
182.029
21
-89.9571
0
LINE
8
BLACK
6
CONTINUOUS
10
182.029
20
-89.9571
11
181.743
21
-89.8143
0
LINE
8
BLACK
6
CONTINUOUS
10
181.743
20
-89.8143
11
181.6
21
-89.6714
0
LINE
8
BLACK
6
CONTINUOUS
10
181.6
20
-89.6714
11
181.457
21
-89.3857
0
LINE
8
BLACK
6
CONTINUOUS
10
181.457
20
-89.3857
11
181.314
21
-88.8143
0
LINE
8
BLACK
6
CONTINUOUS
10
181.314
20
-88.8143
11
181.314
21
-88.1
0
LINE
8
BLACK
6
CONTINUOUS
10
181.314
20
-88.1
11
181.457
21
-87.5286
0
LINE
8
BLACK
6
CONTINUOUS
10
181.457
20
-87.5286
11
181.6
21
-87.2429
0
LINE
8
BLACK
6
CONTINUOUS
10
181.6
20
-87.2429
11
181.743
21
-87.1
0
LINE
8
BLACK
6
CONTINUOUS
10
181.743
20
-87.1
11
182.029
21
-86.9571
0
LINE
8
BLACK
6
CONTINUOUS
10
184.314
20
-89.9571
11
184.314
21
-87.9571
0
LINE
8
BLACK
6
CONTINUOUS
10
184.314
20
-88.2429
11
184.457
21
-88.1
0
LINE
8
BLACK
6
CONTINUOUS
10
184.457
20
-88.1
11
184.743
21
-87.9571
0
LINE
8
BLACK
6
CONTINUOUS
10
184.743
20
-87.9571
11
185.171
21
-87.9571
0
LINE
8
BLACK
6
CONTINUOUS
10
185.171
20
-87.9571
11
185.457
21
-88.1
0
LINE
8
BLACK
6
CONTINUOUS
10
185.457
20
-88.1
11
185.6
21
-88.3857
0
LINE
8
BLACK
6
CONTINUOUS
10
185.6
20
-88.3857
11
185.6
21
-89.9571
0
LINE
8
BLACK
6
CONTINUOUS
10
185.6
20
-88.3857
11
185.743
21
-88.1
0
LINE
8
BLACK
6
CONTINUOUS
10
185.743
20
-88.1
11
186.029
21
-87.9571
0
LINE
8
BLACK
6
CONTINUOUS
10
186.029
20
-87.9571
11
186.457
21
-87.9571
0
LINE
8
BLACK
6
CONTINUOUS
10
186.457
20
-87.9571
11
186.743
21
-88.1
0
LINE
8
BLACK
6
CONTINUOUS
10
186.743
20
-88.1
11
186.886
21
-88.3857
0
LINE
8
BLACK
6
CONTINUOUS
10
186.886
20
-88.3857
11
186.886
21
-89.9571
0
LINE
8
BLACK
6
CONTINUOUS
10
188.314
20
-89.9571
11
188.314
21
-87.9571
0
LINE
8
BLACK
6
CONTINUOUS
10
188.314
20
-88.2429
11
188.457
21
-88.1
0
LINE
8
BLACK
6
CONTINUOUS
10
188.457
20
-88.1
11
188.743
21
-87.9571
0
LINE
8
BLACK
6
CONTINUOUS
10
188.743
20
-87.9571
11
189.171
21
-87.9571
0
LINE
8
BLACK
6
CONTINUOUS
10
189.171
20
-87.9571
11
189.457
21
-88.1
0
LINE
8
BLACK
6
CONTINUOUS
10
189.457
20
-88.1
11
189.6
21
-88.3857
0
LINE
8
BLACK
6
CONTINUOUS
10
189.6
20
-88.3857
11
189.6
21
-89.9571
0
LINE
8
BLACK
6
CONTINUOUS
10
189.6
20
-88.3857
11
189.743
21
-88.1
0
LINE
8
BLACK
6
CONTINUOUS
10
189.743
20
-88.1
11
190.029
21
-87.9571
0
LINE
8
BLACK
6
CONTINUOUS
10
190.029
20
-87.9571
11
190.457
21
-87.9571
0
LINE
8
BLACK
6
CONTINUOUS
10
190.457
20
-87.9571
11
190.743
21
-88.1
0
LINE
8
BLACK
6
CONTINUOUS
10
190.743
20
-88.1
11
190.886
21
-88.3857
0
LINE
8
BLACK
6
CONTINUOUS
10
190.886
20
-88.3857
11
190.886
21
-89.9571
0
LINE
8
BLACK
6
CONTINUOUS
10
196.743
20
-86.8143
11
194.171
21
-90.6714
0
LINE
8
BLACK
6
CONTINUOUS
10
200.6
20
-86.9571
11
200.886
21
-86.9571
0
LINE
8
BLACK
6
CONTINUOUS
10
200.886
20
-86.9571
11
201.171
21
-87.1
0
LINE
8
BLACK
6
CONTINUOUS
10
201.171
20
-87.1
11
201.314
21
-87.2429
0
LINE
8
BLACK
6
CONTINUOUS
10
201.314
20
-87.2429
11
201.457
21
-87.5286
0
LINE
8
BLACK
6
CONTINUOUS
10
201.457
20
-87.5286
11
201.6
21
-88.1
0
LINE
8
BLACK
6
CONTINUOUS
10
201.6
20
-88.1
11
201.6
21
-88.8143
0
LINE
8
BLACK
6
CONTINUOUS
10
201.6
20
-88.8143
11
201.457
21
-89.3857
0
LINE
8
BLACK
6
CONTINUOUS
10
201.457
20
-89.3857
11
201.314
21
-89.6714
0
LINE
8
BLACK
6
CONTINUOUS
10
201.314
20
-89.6714
11
201.171
21
-89.8143
0
LINE
8
BLACK
6
CONTINUOUS
10
201.171
20
-89.8143
11
200.886
21
-89.9571
0
LINE
8
BLACK
6
CONTINUOUS
10
200.886
20
-89.9571
11
200.6
21
-89.9571
0
LINE
8
BLACK
6
CONTINUOUS
10
200.6
20
-89.9571
11
200.314
21
-89.8143
0
LINE
8
BLACK
6
CONTINUOUS
10
200.314
20
-89.8143
11
200.171
21
-89.6714
0
LINE
8
BLACK
6
CONTINUOUS
10
200.171
20
-89.6714
11
200.029
21
-89.3857
0
LINE
8
BLACK
6
CONTINUOUS
10
200.029
20
-89.3857
11
199.886
21
-88.8143
0
LINE
8
BLACK
6
CONTINUOUS
10
199.886
20
-88.8143
11
199.886
21
-88.1
0
LINE
8
BLACK
6
CONTINUOUS
10
199.886
20
-88.1
11
200.029
21
-87.5286
0
LINE
8
BLACK
6
CONTINUOUS
10
200.029
20
-87.5286
11
200.171
21
-87.2429
0
LINE
8
BLACK
6
CONTINUOUS
10
200.171
20
-87.2429
11
200.314
21
-87.1
0
LINE
8
BLACK
6
CONTINUOUS
10
200.314
20
-87.1
11
200.6
21
-86.9571
0
LINE
8
BLACK
6
CONTINUOUS
10
202.886
20
-89.6714
11
203.029
21
-89.8143
0
LINE
8
BLACK
6
CONTINUOUS
10
203.029
20
-89.8143
11
202.886
21
-89.9571
0
LINE
8
BLACK
6
CONTINUOUS
10
202.886
20
-89.9571
11
202.743
21
-89.8143
0
LINE
8
BLACK
6
CONTINUOUS
10
202.743
20
-89.8143
11
202.886
21
-89.6714
0
LINE
8
BLACK
6
CONTINUOUS
10
202.886
20
-89.6714
11
202.886
21
-89.9571
0
LINE
8
BLACK
6
CONTINUOUS
10
204.886
20
-86.9571
11
205.171
21
-86.9571
0
LINE
8
BLACK
6
CONTINUOUS
10
205.171
20
-86.9571
11
205.457
21
-87.1
0
LINE
8
BLACK
6
CONTINUOUS
10
205.457
20
-87.1
11
205.6
21
-87.2429
0
LINE
8
BLACK
6
CONTINUOUS
10
205.6
20
-87.2429
11
205.743
21
-87.5286
0
LINE
8
BLACK
6
CONTINUOUS
10
205.743
20
-87.5286
11
205.886
21
-88.1
0
LINE
8
BLACK
6
CONTINUOUS
10
205.886
20
-88.1
11
205.886
21
-88.8143
0
LINE
8
BLACK
6
CONTINUOUS
10
205.886
20
-88.8143
11
205.743
21
-89.3857
0
LINE
8
BLACK
6
CONTINUOUS
10
205.743
20
-89.3857
11
205.6
21
-89.6714
0
LINE
8
BLACK
6
CONTINUOUS
10
205.6
20
-89.6714
11
205.457
21
-89.8143
0
LINE
8
BLACK
6
CONTINUOUS
10
205.457
20
-89.8143
11
205.171
21
-89.9571
0
LINE
8
BLACK
6
CONTINUOUS
10
205.171
20
-89.9571
11
204.886
21
-89.9571
0
LINE
8
BLACK
6
CONTINUOUS
10
204.886
20
-89.9571
11
204.6
21
-89.8143
0
LINE
8
BLACK
6
CONTINUOUS
10
204.6
20
-89.8143
11
204.457
21
-89.6714
0
LINE
8
BLACK
6
CONTINUOUS
10
204.457
20
-89.6714
11
204.314
21
-89.3857
0
LINE
8
BLACK
6
CONTINUOUS
10
204.314
20
-89.3857
11
204.171
21
-88.8143
0
LINE
8
BLACK
6
CONTINUOUS
10
204.171
20
-88.8143
11
204.171
21
-88.1
0
LINE
8
BLACK
6
CONTINUOUS
10
204.171
20
-88.1
11
204.314
21
-87.5286
0
LINE
8
BLACK
6
CONTINUOUS
10
204.314
20
-87.5286
11
204.457
21
-87.2429
0
LINE
8
BLACK
6
CONTINUOUS
10
204.457
20
-87.2429
11
204.6
21
-87.1
0
LINE
8
BLACK
6
CONTINUOUS
10
204.6
20
-87.1
11
204.886
21
-86.9571
0
LINE
8
BLACK
6
CONTINUOUS
10
208.457
20
-86.9571
11
207.886
21
-86.9571
0
LINE
8
BLACK
6
CONTINUOUS
10
207.886
20
-86.9571
11
207.6
21
-87.1
0
LINE
8
BLACK
6
CONTINUOUS
10
207.6
20
-87.1
11
207.457
21
-87.2429
0
LINE
8
BLACK
6
CONTINUOUS
10
207.457
20
-87.2429
11
207.171
21
-87.6714
0
LINE
8
BLACK
6
CONTINUOUS
10
207.171
20
-87.6714
11
207.029
21
-88.2429
0
LINE
8
BLACK
6
CONTINUOUS
10
207.029
20
-88.2429
11
207.029
21
-89.3857
0
LINE
8
BLACK
6
CONTINUOUS
10
207.029
20
-89.3857
11
207.171
21
-89.6714
0
LINE
8
BLACK
6
CONTINUOUS
10
207.171
20
-89.6714
11
207.314
21
-89.8143
0
LINE
8
BLACK
6
CONTINUOUS
10
207.314
20
-89.8143
11
207.6
21
-89.9571
0
LINE
8
BLACK
6
CONTINUOUS
10
207.6
20
-89.9571
11
208.171
21
-89.9571
0
LINE
8
BLACK
6
CONTINUOUS
10
208.171
20
-89.9571
11
208.457
21
-89.8143
0
LINE
8
BLACK
6
CONTINUOUS
10
208.457
20
-89.8143
11
208.6
21
-89.6714
0
LINE
8
BLACK
6
CONTINUOUS
10
208.6
20
-89.6714
11
208.743
21
-89.3857
0
LINE
8
BLACK
6
CONTINUOUS
10
208.743
20
-89.3857
11
208.743
21
-88.6714
0
LINE
8
BLACK
6
CONTINUOUS
10
208.743
20
-88.6714
11
208.6
21
-88.3857
0
LINE
8
BLACK
6
CONTINUOUS
10
208.6
20
-88.3857
11
208.457
21
-88.2429
0
LINE
8
BLACK
6
CONTINUOUS
10
208.457
20
-88.2429
11
208.171
21
-88.1
0
LINE
8
BLACK
6
CONTINUOUS
10
208.171
20
-88.1
11
207.6
21
-88.1
0
LINE
8
BLACK
6
CONTINUOUS
10
207.6
20
-88.1
11
207.314
21
-88.2429
0
LINE
8
BLACK
6
CONTINUOUS
10
207.314
20
-88.2429
11
207.171
21
-88.3857
0
LINE
8
BLACK
6
CONTINUOUS
10
207.171
20
-88.3857
11
207.029
21
-88.6714
0
LINE
8
BLACK
6
CONTINUOUS
10
209.743
20
-86.9571
11
211.6
21
-86.9571
0
LINE
8
BLACK
6
CONTINUOUS
10
211.6
20
-86.9571
11
210.6
21
-88.1
0
LINE
8
BLACK
6
CONTINUOUS
10
210.6
20
-88.1
11
211.029
21
-88.1
0
LINE
8
BLACK
6
CONTINUOUS
10
211.029
20
-88.1
11
211.314
21
-88.2429
0
LINE
8
BLACK
6
CONTINUOUS
10
211.314
20
-88.2429
11
211.457
21
-88.3857
0
LINE
8
BLACK
6
CONTINUOUS
10
211.457
20
-88.3857
11
211.6
21
-88.6714
0
LINE
8
BLACK
6
CONTINUOUS
10
211.6
20
-88.6714
11
211.6
21
-89.3857
0
LINE
8
BLACK
6
CONTINUOUS
10
211.6
20
-89.3857
11
211.457
21
-89.6714
0
LINE
8
BLACK
6
CONTINUOUS
10
211.457
20
-89.6714
11
211.314
21
-89.8143
0
LINE
8
BLACK
6
CONTINUOUS
10
211.314
20
-89.8143
11
211.029
21
-89.9571
0
LINE
8
BLACK
6
CONTINUOUS
10
211.029
20
-89.9571
11
210.171
21
-89.9571
0
LINE
8
BLACK
6
CONTINUOUS
10
210.171
20
-89.9571
11
209.886
21
-89.8143
0
LINE
8
BLACK
6
CONTINUOUS
10
209.886
20
-89.8143
11
209.743
21
-89.6714
0
LINE
8
BLACK
6
CONTINUOUS
10
212.743
20
-86.9571
11
212.743
21
-87.5286
0
LINE
8
BLACK
6
CONTINUOUS
10
213.886
20
-86.9571
11
213.886
21
-87.5286
0
LINE
8
BLACK
6
CONTINUOUS
10
218.314
20
-91.1
11
218.171
21
-90.9571
0
LINE
8
BLACK
6
CONTINUOUS
10
218.171
20
-90.9571
11
217.886
21
-90.5286
0
LINE
8
BLACK
6
CONTINUOUS
10
217.886
20
-90.5286
11
217.743
21
-90.2429
0
LINE
8
BLACK
6
CONTINUOUS
10
217.743
20
-90.2429
11
217.6
21
-89.8143
0
LINE
8
BLACK
6
CONTINUOUS
10
217.6
20
-89.8143
11
217.457
21
-89.1
0
LINE
8
BLACK
6
CONTINUOUS
10
217.457
20
-89.1
11
217.457
21
-88.5286
0
LINE
8
BLACK
6
CONTINUOUS
10
217.457
20
-88.5286
11
217.6
21
-87.8143
0
LINE
8
BLACK
6
CONTINUOUS
10
217.6
20
-87.8143
11
217.743
21
-87.3857
0
LINE
8
BLACK
6
CONTINUOUS
10
217.743
20
-87.3857
11
217.886
21
-87.1
0
LINE
8
BLACK
6
CONTINUOUS
10
217.886
20
-87.1
11
218.171
21
-86.6714
0
LINE
8
BLACK
6
CONTINUOUS
10
218.171
20
-86.6714
11
218.314
21
-86.5286
0
LINE
8
BLACK
6
CONTINUOUS
10
221.029
20
-89.9571
11
219.314
21
-89.9571
0
LINE
8
BLACK
6
CONTINUOUS
10
220.171
20
-89.9571
11
220.171
21
-86.9571
0
LINE
8
BLACK
6
CONTINUOUS
10
220.171
20
-86.9571
11
219.886
21
-87.3857
0
LINE
8
BLACK
6
CONTINUOUS
10
219.886
20
-87.3857
11
219.6
21
-87.6714
0
LINE
8
BLACK
6
CONTINUOUS
10
219.6
20
-87.6714
11
219.314
21
-87.8143
0
LINE
8
BLACK
6
CONTINUOUS
10
224.6
20
-89.9571
11
224.6
21
-86.9571
0
LINE
8
BLACK
6
CONTINUOUS
10
225.886
20
-89.9571
11
225.886
21
-88.3857
0
LINE
8
BLACK
6
CONTINUOUS
10
225.886
20
-88.3857
11
225.743
21
-88.1
0
LINE
8
BLACK
6
CONTINUOUS
10
225.743
20
-88.1
11
225.457
21
-87.9571
0
LINE
8
BLACK
6
CONTINUOUS
10
225.457
20
-87.9571
11
225.029
21
-87.9571
0
LINE
8
BLACK
6
CONTINUOUS
10
225.029
20
-87.9571
11
224.743
21
-88.1
0
LINE
8
BLACK
6
CONTINUOUS
10
224.743
20
-88.1
11
224.6
21
-88.2429
0
LINE
8
BLACK
6
CONTINUOUS
10
227.743
20
-89.9571
11
227.457
21
-89.8143
0
LINE
8
BLACK
6
CONTINUOUS
10
227.457
20
-89.8143
11
227.314
21
-89.6714
0
LINE
8
BLACK
6
CONTINUOUS
10
227.314
20
-89.6714
11
227.171
21
-89.3857
0
LINE
8
BLACK
6
CONTINUOUS
10
227.171
20
-89.3857
11
227.171
21
-88.5286
0
LINE
8
BLACK
6
CONTINUOUS
10
227.171
20
-88.5286
11
227.314
21
-88.2429
0
LINE
8
BLACK
6
CONTINUOUS
10
227.314
20
-88.2429
11
227.457
21
-88.1
0
LINE
8
BLACK
6
CONTINUOUS
10
227.457
20
-88.1
11
227.743
21
-87.9571
0
LINE
8
BLACK
6
CONTINUOUS
10
227.743
20
-87.9571
11
228.171
21
-87.9571
0
LINE
8
BLACK
6
CONTINUOUS
10
228.171
20
-87.9571
11
228.457
21
-88.1
0
LINE
8
BLACK
6
CONTINUOUS
10
228.457
20
-88.1
11
228.6
21
-88.2429
0
LINE
8
BLACK
6
CONTINUOUS
10
228.6
20
-88.2429
11
228.743
21
-88.5286
0
LINE
8
BLACK
6
CONTINUOUS
10
228.743
20
-88.5286
11
228.743
21
-89.3857
0
LINE
8
BLACK
6
CONTINUOUS
10
228.743
20
-89.3857
11
228.6
21
-89.6714
0
LINE
8
BLACK
6
CONTINUOUS
10
228.6
20
-89.6714
11
228.457
21
-89.8143
0
LINE
8
BLACK
6
CONTINUOUS
10
228.457
20
-89.8143
11
228.171
21
-89.9571
0
LINE
8
BLACK
6
CONTINUOUS
10
228.171
20
-89.9571
11
227.743
21
-89.9571
0
LINE
8
BLACK
6
CONTINUOUS
10
230.457
20
-89.9571
11
230.171
21
-89.8143
0
LINE
8
BLACK
6
CONTINUOUS
10
230.171
20
-89.8143
11
230.029
21
-89.5286
0
LINE
8
BLACK
6
CONTINUOUS
10
230.029
20
-89.5286
11
230.029
21
-86.9571
0
LINE
8
BLACK
6
CONTINUOUS
10
232.743
20
-89.8143
11
232.457
21
-89.9571
0
LINE
8
BLACK
6
CONTINUOUS
10
232.457
20
-89.9571
11
231.886
21
-89.9571
0
LINE
8
BLACK
6
CONTINUOUS
10
231.886
20
-89.9571
11
231.6
21
-89.8143
0
LINE
8
BLACK
6
CONTINUOUS
10
231.6
20
-89.8143
11
231.457
21
-89.5286
0
LINE
8
BLACK
6
CONTINUOUS
10
231.457
20
-89.5286
11
231.457
21
-88.3857
0
LINE
8
BLACK
6
CONTINUOUS
10
231.457
20
-88.3857
11
231.6
21
-88.1
0
LINE
8
BLACK
6
CONTINUOUS
10
231.6
20
-88.1
11
231.886
21
-87.9571
0
LINE
8
BLACK
6
CONTINUOUS
10
231.886
20
-87.9571
11
232.457
21
-87.9571
0
LINE
8
BLACK
6
CONTINUOUS
10
232.457
20
-87.9571
11
232.743
21
-88.1
0
LINE
8
BLACK
6
CONTINUOUS
10
232.743
20
-88.1
11
232.886
21
-88.3857
0
LINE
8
BLACK
6
CONTINUOUS
10
232.886
20
-88.3857
11
232.886
21
-88.6714
0
LINE
8
BLACK
6
CONTINUOUS
10
232.886
20
-88.6714
11
231.457
21
-88.9571
0
LINE
8
BLACK
6
CONTINUOUS
10
233.886
20
-91.1
11
234.029
21
-90.9571
0
LINE
8
BLACK
6
CONTINUOUS
10
234.029
20
-90.9571
11
234.314
21
-90.5286
0
LINE
8
BLACK
6
CONTINUOUS
10
234.314
20
-90.5286
11
234.457
21
-90.2429
0
LINE
8
BLACK
6
CONTINUOUS
10
234.457
20
-90.2429
11
234.6
21
-89.8143
0
LINE
8
BLACK
6
CONTINUOUS
10
234.6
20
-89.8143
11
234.743
21
-89.1
0
LINE
8
BLACK
6
CONTINUOUS
10
234.743
20
-89.1
11
234.743
21
-88.5286
0
LINE
8
BLACK
6
CONTINUOUS
10
234.743
20
-88.5286
11
234.6
21
-87.8143
0
LINE
8
BLACK
6
CONTINUOUS
10
234.6
20
-87.8143
11
234.457
21
-87.3857
0
LINE
8
BLACK
6
CONTINUOUS
10
234.457
20
-87.3857
11
234.314
21
-87.1
0
LINE
8
BLACK
6
CONTINUOUS
10
234.314
20
-87.1
11
234.029
21
-86.6714
0
LINE
8
BLACK
6
CONTINUOUS
10
234.029
20
-86.6714
11
233.886
21
-86.5286
0
LINE
8
BLACK
6
CONTINUOUS
10
239.314
20
-91.1
11
239.171
21
-90.9571
0
LINE
8
BLACK
6
CONTINUOUS
10
239.171
20
-90.9571
11
238.886
21
-90.5286
0
LINE
8
BLACK
6
CONTINUOUS
10
238.886
20
-90.5286
11
238.743
21
-90.2429
0
LINE
8
BLACK
6
CONTINUOUS
10
238.743
20
-90.2429
11
238.6
21
-89.8143
0
LINE
8
BLACK
6
CONTINUOUS
10
238.6
20
-89.8143
11
238.457
21
-89.1
0
LINE
8
BLACK
6
CONTINUOUS
10
238.457
20
-89.1
11
238.457
21
-88.5286
0
LINE
8
BLACK
6
CONTINUOUS
10
238.457
20
-88.5286
11
238.6
21
-87.8143
0
LINE
8
BLACK
6
CONTINUOUS
10
238.6
20
-87.8143
11
238.743
21
-87.3857
0
LINE
8
BLACK
6
CONTINUOUS
10
238.743
20
-87.3857
11
238.886
21
-87.1
0
LINE
8
BLACK
6
CONTINUOUS
10
238.886
20
-87.1
11
239.171
21
-86.6714
0
LINE
8
BLACK
6
CONTINUOUS
10
239.171
20
-86.6714
11
239.314
21
-86.5286
0
LINE
8
BLACK
6
CONTINUOUS
10
240.457
20
-87.9571
11
240.457
21
-89.9571
0
LINE
8
BLACK
6
CONTINUOUS
10
240.457
20
-88.2429
11
240.6
21
-88.1
0
LINE
8
BLACK
6
CONTINUOUS
10
240.6
20
-88.1
11
240.886
21
-87.9571
0
LINE
8
BLACK
6
CONTINUOUS
10
240.886
20
-87.9571
11
241.314
21
-87.9571
0
LINE
8
BLACK
6
CONTINUOUS
10
241.314
20
-87.9571
11
241.6
21
-88.1
0
LINE
8
BLACK
6
CONTINUOUS
10
241.6
20
-88.1
11
241.743
21
-88.3857
0
LINE
8
BLACK
6
CONTINUOUS
10
241.743
20
-88.3857
11
241.743
21
-89.9571
0
LINE
8
BLACK
6
CONTINUOUS
10
243.6
20
-89.9571
11
243.314
21
-89.8143
0
LINE
8
BLACK
6
CONTINUOUS
10
243.314
20
-89.8143
11
243.171
21
-89.6714
0
LINE
8
BLACK
6
CONTINUOUS
10
243.171
20
-89.6714
11
243.029
21
-89.3857
0
LINE
8
BLACK
6
CONTINUOUS
10
243.029
20
-89.3857
11
243.029
21
-88.5286
0
LINE
8
BLACK
6
CONTINUOUS
10
243.029
20
-88.5286
11
243.171
21
-88.2429
0
LINE
8
BLACK
6
CONTINUOUS
10
243.171
20
-88.2429
11
243.314
21
-88.1
0
LINE
8
BLACK
6
CONTINUOUS
10
243.314
20
-88.1
11
243.6
21
-87.9571
0
LINE
8
BLACK
6
CONTINUOUS
10
243.6
20
-87.9571
11
244.029
21
-87.9571
0
LINE
8
BLACK
6
CONTINUOUS
10
244.029
20
-87.9571
11
244.314
21
-88.1
0
LINE
8
BLACK
6
CONTINUOUS
10
244.314
20
-88.1
11
244.457
21
-88.2429
0
LINE
8
BLACK
6
CONTINUOUS
10
244.457
20
-88.2429
11
244.6
21
-88.5286
0
LINE
8
BLACK
6
CONTINUOUS
10
244.6
20
-88.5286
11
244.6
21
-89.3857
0
LINE
8
BLACK
6
CONTINUOUS
10
244.6
20
-89.3857
11
244.457
21
-89.6714
0
LINE
8
BLACK
6
CONTINUOUS
10
244.457
20
-89.6714
11
244.314
21
-89.8143
0
LINE
8
BLACK
6
CONTINUOUS
10
244.314
20
-89.8143
11
244.029
21
-89.9571
0
LINE
8
BLACK
6
CONTINUOUS
10
244.029
20
-89.9571
11
243.6
21
-89.9571
0
LINE
8
BLACK
6
CONTINUOUS
10
245.457
20
-87.9571
11
246.6
21
-87.9571
0
LINE
8
BLACK
6
CONTINUOUS
10
245.886
20
-86.9571
11
245.886
21
-89.5286
0
LINE
8
BLACK
6
CONTINUOUS
10
245.886
20
-89.5286
11
246.029
21
-89.8143
0
LINE
8
BLACK
6
CONTINUOUS
10
246.029
20
-89.8143
11
246.314
21
-89.9571
0
LINE
8
BLACK
6
CONTINUOUS
10
246.314
20
-89.9571
11
246.6
21
-89.9571
0
LINE
8
BLACK
6
CONTINUOUS
10
249.886
20
-87.9571
11
249.886
21
-90.9571
0
LINE
8
BLACK
6
CONTINUOUS
10
249.886
20
-88.1
11
250.171
21
-87.9571
0
LINE
8
BLACK
6
CONTINUOUS
10
250.171
20
-87.9571
11
250.743
21
-87.9571
0
LINE
8
BLACK
6
CONTINUOUS
10
250.743
20
-87.9571
11
251.029
21
-88.1
0
LINE
8
BLACK
6
CONTINUOUS
10
251.029
20
-88.1
11
251.171
21
-88.2429
0
LINE
8
BLACK
6
CONTINUOUS
10
251.171
20
-88.2429
11
251.314
21
-88.5286
0
LINE
8
BLACK
6
CONTINUOUS
10
251.314
20
-88.5286
11
251.314
21
-89.3857
0
LINE
8
BLACK
6
CONTINUOUS
10
251.314
20
-89.3857
11
251.171
21
-89.6714
0
LINE
8
BLACK
6
CONTINUOUS
10
251.171
20
-89.6714
11
251.029
21
-89.8143
0
LINE
8
BLACK
6
CONTINUOUS
10
251.029
20
-89.8143
11
250.743
21
-89.9571
0
LINE
8
BLACK
6
CONTINUOUS
10
250.743
20
-89.9571
11
250.171
21
-89.9571
0
LINE
8
BLACK
6
CONTINUOUS
10
250.171
20
-89.9571
11
249.886
21
-89.8143
0
LINE
8
BLACK
6
CONTINUOUS
10
253.029
20
-89.9571
11
252.743
21
-89.8143
0
LINE
8
BLACK
6
CONTINUOUS
10
252.743
20
-89.8143
11
252.6
21
-89.5286
0
LINE
8
BLACK
6
CONTINUOUS
10
252.6
20
-89.5286
11
252.6
21
-86.9571
0
LINE
8
BLACK
6
CONTINUOUS
10
255.457
20
-89.9571
11
255.457
21
-88.3857
0
LINE
8
BLACK
6
CONTINUOUS
10
255.457
20
-88.3857
11
255.314
21
-88.1
0
LINE
8
BLACK
6
CONTINUOUS
10
255.314
20
-88.1
11
255.029
21
-87.9571
0
LINE
8
BLACK
6
CONTINUOUS
10
255.029
20
-87.9571
11
254.457
21
-87.9571
0
LINE
8
BLACK
6
CONTINUOUS
10
254.457
20
-87.9571
11
254.171
21
-88.1
0
LINE
8
BLACK
6
CONTINUOUS
10
255.457
20
-89.8143
11
255.171
21
-89.9571
0
LINE
8
BLACK
6
CONTINUOUS
10
255.171
20
-89.9571
11
254.457
21
-89.9571
0
LINE
8
BLACK
6
CONTINUOUS
10
254.457
20
-89.9571
11
254.171
21
-89.8143
0
LINE
8
BLACK
6
CONTINUOUS
10
254.171
20
-89.8143
11
254.029
21
-89.5286
0
LINE
8
BLACK
6
CONTINUOUS
10
254.029
20
-89.5286
11
254.029
21
-89.2429
0
LINE
8
BLACK
6
CONTINUOUS
10
254.029
20
-89.2429
11
254.171
21
-88.9571
0
LINE
8
BLACK
6
CONTINUOUS
10
254.171
20
-88.9571
11
254.457
21
-88.8143
0
LINE
8
BLACK
6
CONTINUOUS
10
254.457
20
-88.8143
11
255.171
21
-88.8143
0
LINE
8
BLACK
6
CONTINUOUS
10
255.171
20
-88.8143
11
255.457
21
-88.6714
0
LINE
8
BLACK
6
CONTINUOUS
10
256.457
20
-87.9571
11
257.6
21
-87.9571
0
LINE
8
BLACK
6
CONTINUOUS
10
256.886
20
-86.9571
11
256.886
21
-89.5286
0
LINE
8
BLACK
6
CONTINUOUS
10
256.886
20
-89.5286
11
257.029
21
-89.8143
0
LINE
8
BLACK
6
CONTINUOUS
10
257.029
20
-89.8143
11
257.314
21
-89.9571
0
LINE
8
BLACK
6
CONTINUOUS
10
257.314
20
-89.9571
11
257.6
21
-89.9571
0
LINE
8
BLACK
6
CONTINUOUS
10
259.743
20
-89.8143
11
259.457
21
-89.9571
0
LINE
8
BLACK
6
CONTINUOUS
10
259.457
20
-89.9571
11
258.886
21
-89.9571
0
LINE
8
BLACK
6
CONTINUOUS
10
258.886
20
-89.9571
11
258.6
21
-89.8143
0
LINE
8
BLACK
6
CONTINUOUS
10
258.6
20
-89.8143
11
258.457
21
-89.5286
0
LINE
8
BLACK
6
CONTINUOUS
10
258.457
20
-89.5286
11
258.457
21
-88.3857
0
LINE
8
BLACK
6
CONTINUOUS
10
258.457
20
-88.3857
11
258.6
21
-88.1
0
LINE
8
BLACK
6
CONTINUOUS
10
258.6
20
-88.1
11
258.886
21
-87.9571
0
LINE
8
BLACK
6
CONTINUOUS
10
258.886
20
-87.9571
11
259.457
21
-87.9571
0
LINE
8
BLACK
6
CONTINUOUS
10
259.457
20
-87.9571
11
259.743
21
-88.1
0
LINE
8
BLACK
6
CONTINUOUS
10
259.743
20
-88.1
11
259.886
21
-88.3857
0
LINE
8
BLACK
6
CONTINUOUS
10
259.886
20
-88.3857
11
259.886
21
-88.6714
0
LINE
8
BLACK
6
CONTINUOUS
10
259.886
20
-88.6714
11
258.457
21
-88.9571
0
LINE
8
BLACK
6
CONTINUOUS
10
262.457
20
-89.9571
11
262.457
21
-86.9571
0
LINE
8
BLACK
6
CONTINUOUS
10
262.457
20
-89.8143
11
262.171
21
-89.9571
0
LINE
8
BLACK
6
CONTINUOUS
10
262.171
20
-89.9571
11
261.6
21
-89.9571
0
LINE
8
BLACK
6
CONTINUOUS
10
261.6
20
-89.9571
11
261.314
21
-89.8143
0
LINE
8
BLACK
6
CONTINUOUS
10
261.314
20
-89.8143
11
261.171
21
-89.6714
0
LINE
8
BLACK
6
CONTINUOUS
10
261.171
20
-89.6714
11
261.029
21
-89.3857
0
LINE
8
BLACK
6
CONTINUOUS
10
261.029
20
-89.3857
11
261.029
21
-88.5286
0
LINE
8
BLACK
6
CONTINUOUS
10
261.029
20
-88.5286
11
261.171
21
-88.2429
0
LINE
8
BLACK
6
CONTINUOUS
10
261.171
20
-88.2429
11
261.314
21
-88.1
0
LINE
8
BLACK
6
CONTINUOUS
10
261.314
20
-88.1
11
261.6
21
-87.9571
0
LINE
8
BLACK
6
CONTINUOUS
10
261.6
20
-87.9571
11
262.171
21
-87.9571
0
LINE
8
BLACK
6
CONTINUOUS
10
262.171
20
-87.9571
11
262.457
21
-88.1
0
LINE
8
BLACK
6
CONTINUOUS
10
263.6
20
-91.1
11
263.743
21
-90.9571
0
LINE
8
BLACK
6
CONTINUOUS
10
263.743
20
-90.9571
11
264.029
21
-90.5286
0
LINE
8
BLACK
6
CONTINUOUS
10
264.029
20
-90.5286
11
264.171
21
-90.2429
0
LINE
8
BLACK
6
CONTINUOUS
10
264.171
20
-90.2429
11
264.314
21
-89.8143
0
LINE
8
BLACK
6
CONTINUOUS
10
264.314
20
-89.8143
11
264.457
21
-89.1
0
LINE
8
BLACK
6
CONTINUOUS
10
264.457
20
-89.1
11
264.457
21
-88.5286
0
LINE
8
BLACK
6
CONTINUOUS
10
264.457
20
-88.5286
11
264.314
21
-87.8143
0
LINE
8
BLACK
6
CONTINUOUS
10
264.314
20
-87.8143
11
264.171
21
-87.3857
0
LINE
8
BLACK
6
CONTINUOUS
10
264.171
20
-87.3857
11
264.029
21
-87.1
0
LINE
8
BLACK
6
CONTINUOUS
10
264.029
20
-87.1
11
263.743
21
-86.6714
0
LINE
8
BLACK
6
CONTINUOUS
10
263.743
20
-86.6714
11
263.6
21
-86.5286
0
CIRCLE
8
BLACK
10
170.35
20
-92.56
40
1.1
0
LINE
8
BLACK
6
CONTINUOUS
10
174.171
20
-91.2029
11
174.314
21
-91.06
0
LINE
8
BLACK
6
CONTINUOUS
10
174.314
20
-91.06
11
174.6
21
-90.9171
0
LINE
8
BLACK
6
CONTINUOUS
10
174.6
20
-90.9171
11
175.314
21
-90.9171
0
LINE
8
BLACK
6
CONTINUOUS
10
175.314
20
-90.9171
11
175.6
21
-91.06
0
LINE
8
BLACK
6
CONTINUOUS
10
175.6
20
-91.06
11
175.743
21
-91.2029
0
LINE
8
BLACK
6
CONTINUOUS
10
175.743
20
-91.2029
11
175.886
21
-91.4886
0
LINE
8
BLACK
6
CONTINUOUS
10
175.886
20
-91.4886
11
175.886
21
-91.7743
0
LINE
8
BLACK
6
CONTINUOUS
10
175.886
20
-91.7743
11
175.743
21
-92.2029
0
LINE
8
BLACK
6
CONTINUOUS
10
175.743
20
-92.2029
11
174.029
21
-93.9171
0
LINE
8
BLACK
6
CONTINUOUS
10
174.029
20
-93.9171
11
175.886
21
-93.9171
0
LINE
8
BLACK
6
CONTINUOUS
10
177.171
20
-93.6314
11
177.314
21
-93.7743
0
LINE
8
BLACK
6
CONTINUOUS
10
177.314
20
-93.7743
11
177.171
21
-93.9171
0
LINE
8
BLACK
6
CONTINUOUS
10
177.171
20
-93.9171
11
177.029
21
-93.7743
0
LINE
8
BLACK
6
CONTINUOUS
10
177.029
20
-93.7743
11
177.171
21
-93.6314
0
LINE
8
BLACK
6
CONTINUOUS
10
177.171
20
-93.6314
11
177.171
21
-93.9171
0
LINE
8
BLACK
6
CONTINUOUS
10
178.457
20
-91.2029
11
178.6
21
-91.06
0
LINE
8
BLACK
6
CONTINUOUS
10
178.6
20
-91.06
11
178.886
21
-90.9171
0
LINE
8
BLACK
6
CONTINUOUS
10
178.886
20
-90.9171
11
179.6
21
-90.9171
0
LINE
8
BLACK
6
CONTINUOUS
10
179.6
20
-90.9171
11
179.886
21
-91.06
0
LINE
8
BLACK
6
CONTINUOUS
10
179.886
20
-91.06
11
180.029
21
-91.2029
0
LINE
8
BLACK
6
CONTINUOUS
10
180.029
20
-91.2029
11
180.171
21
-91.4886
0
LINE
8
BLACK
6
CONTINUOUS
10
180.171
20
-91.4886
11
180.171
21
-91.7743
0
LINE
8
BLACK
6
CONTINUOUS
10
180.171
20
-91.7743
11
180.029
21
-92.2029
0
LINE
8
BLACK
6
CONTINUOUS
10
180.029
20
-92.2029
11
178.314
21
-93.9171
0
LINE
8
BLACK
6
CONTINUOUS
10
178.314
20
-93.9171
11
180.171
21
-93.9171
0
LINE
8
BLACK
6
CONTINUOUS
10
182.029
20
-90.9171
11
182.314
21
-90.9171
0
LINE
8
BLACK
6
CONTINUOUS
10
182.314
20
-90.9171
11
182.6
21
-91.06
0
LINE
8
BLACK
6
CONTINUOUS
10
182.6
20
-91.06
11
182.743
21
-91.2029
0
LINE
8
BLACK
6
CONTINUOUS
10
182.743
20
-91.2029
11
182.886
21
-91.4886
0
LINE
8
BLACK
6
CONTINUOUS
10
182.886
20
-91.4886
11
183.029
21
-92.06
0
LINE
8
BLACK
6
CONTINUOUS
10
183.029
20
-92.06
11
183.029
21
-92.7743
0
LINE
8
BLACK
6
CONTINUOUS
10
183.029
20
-92.7743
11
182.886
21
-93.3457
0
LINE
8
BLACK
6
CONTINUOUS
10
182.886
20
-93.3457
11
182.743
21
-93.6314
0
LINE
8
BLACK
6
CONTINUOUS
10
182.743
20
-93.6314
11
182.6
21
-93.7743
0
LINE
8
BLACK
6
CONTINUOUS
10
182.6
20
-93.7743
11
182.314
21
-93.9171
0
LINE
8
BLACK
6
CONTINUOUS
10
182.314
20
-93.9171
11
182.029
21
-93.9171
0
LINE
8
BLACK
6
CONTINUOUS
10
182.029
20
-93.9171
11
181.743
21
-93.7743
0
LINE
8
BLACK
6
CONTINUOUS
10
181.743
20
-93.7743
11
181.6
21
-93.6314
0
LINE
8
BLACK
6
CONTINUOUS
10
181.6
20
-93.6314
11
181.457
21
-93.3457
0
LINE
8
BLACK
6
CONTINUOUS
10
181.457
20
-93.3457
11
181.314
21
-92.7743
0
LINE
8
BLACK
6
CONTINUOUS
10
181.314
20
-92.7743
11
181.314
21
-92.06
0
LINE
8
BLACK
6
CONTINUOUS
10
181.314
20
-92.06
11
181.457
21
-91.4886
0
LINE
8
BLACK
6
CONTINUOUS
10
181.457
20
-91.4886
11
181.6
21
-91.2029
0
LINE
8
BLACK
6
CONTINUOUS
10
181.6
20
-91.2029
11
181.743
21
-91.06
0
LINE
8
BLACK
6
CONTINUOUS
10
181.743
20
-91.06
11
182.029
21
-90.9171
0
LINE
8
BLACK
6
CONTINUOUS
10
184.314
20
-93.9171
11
184.314
21
-91.9171
0
LINE
8
BLACK
6
CONTINUOUS
10
184.314
20
-92.2029
11
184.457
21
-92.06
0
LINE
8
BLACK
6
CONTINUOUS
10
184.457
20
-92.06
11
184.743
21
-91.9171
0
LINE
8
BLACK
6
CONTINUOUS
10
184.743
20
-91.9171
11
185.171
21
-91.9171
0
LINE
8
BLACK
6
CONTINUOUS
10
185.171
20
-91.9171
11
185.457
21
-92.06
0
LINE
8
BLACK
6
CONTINUOUS
10
185.457
20
-92.06
11
185.6
21
-92.3457
0
LINE
8
BLACK
6
CONTINUOUS
10
185.6
20
-92.3457
11
185.6
21
-93.9171
0
LINE
8
BLACK
6
CONTINUOUS
10
185.6
20
-92.3457
11
185.743
21
-92.06
0
LINE
8
BLACK
6
CONTINUOUS
10
185.743
20
-92.06
11
186.029
21
-91.9171
0
LINE
8
BLACK
6
CONTINUOUS
10
186.029
20
-91.9171
11
186.457
21
-91.9171
0
LINE
8
BLACK
6
CONTINUOUS
10
186.457
20
-91.9171
11
186.743
21
-92.06
0
LINE
8
BLACK
6
CONTINUOUS
10
186.743
20
-92.06
11
186.886
21
-92.3457
0
LINE
8
BLACK
6
CONTINUOUS
10
186.886
20
-92.3457
11
186.886
21
-93.9171
0
LINE
8
BLACK
6
CONTINUOUS
10
188.314
20
-93.9171
11
188.314
21
-91.9171
0
LINE
8
BLACK
6
CONTINUOUS
10
188.314
20
-92.2029
11
188.457
21
-92.06
0
LINE
8
BLACK
6
CONTINUOUS
10
188.457
20
-92.06
11
188.743
21
-91.9171
0
LINE
8
BLACK
6
CONTINUOUS
10
188.743
20
-91.9171
11
189.171
21
-91.9171
0
LINE
8
BLACK
6
CONTINUOUS
10
189.171
20
-91.9171
11
189.457
21
-92.06
0
LINE
8
BLACK
6
CONTINUOUS
10
189.457
20
-92.06
11
189.6
21
-92.3457
0
LINE
8
BLACK
6
CONTINUOUS
10
189.6
20
-92.3457
11
189.6
21
-93.9171
0
LINE
8
BLACK
6
CONTINUOUS
10
189.6
20
-92.3457
11
189.743
21
-92.06
0
LINE
8
BLACK
6
CONTINUOUS
10
189.743
20
-92.06
11
190.029
21
-91.9171
0
LINE
8
BLACK
6
CONTINUOUS
10
190.029
20
-91.9171
11
190.457
21
-91.9171
0
LINE
8
BLACK
6
CONTINUOUS
10
190.457
20
-91.9171
11
190.743
21
-92.06
0
LINE
8
BLACK
6
CONTINUOUS
10
190.743
20
-92.06
11
190.886
21
-92.3457
0
LINE
8
BLACK
6
CONTINUOUS
10
190.886
20
-92.3457
11
190.886
21
-93.9171
0
LINE
8
BLACK
6
CONTINUOUS
10
196.743
20
-90.7743
11
194.171
21
-94.6314
0
LINE
8
BLACK
6
CONTINUOUS
10
200.6
20
-90.9171
11
200.886
21
-90.9171
0
LINE
8
BLACK
6
CONTINUOUS
10
200.886
20
-90.9171
11
201.171
21
-91.06
0
LINE
8
BLACK
6
CONTINUOUS
10
201.171
20
-91.06
11
201.314
21
-91.2029
0
LINE
8
BLACK
6
CONTINUOUS
10
201.314
20
-91.2029
11
201.457
21
-91.4886
0
LINE
8
BLACK
6
CONTINUOUS
10
201.457
20
-91.4886
11
201.6
21
-92.06
0
LINE
8
BLACK
6
CONTINUOUS
10
201.6
20
-92.06
11
201.6
21
-92.7743
0
LINE
8
BLACK
6
CONTINUOUS
10
201.6
20
-92.7743
11
201.457
21
-93.3457
0
LINE
8
BLACK
6
CONTINUOUS
10
201.457
20
-93.3457
11
201.314
21
-93.6314
0
LINE
8
BLACK
6
CONTINUOUS
10
201.314
20
-93.6314
11
201.171
21
-93.7743
0
LINE
8
BLACK
6
CONTINUOUS
10
201.171
20
-93.7743
11
200.886
21
-93.9171
0
LINE
8
BLACK
6
CONTINUOUS
10
200.886
20
-93.9171
11
200.6
21
-93.9171
0
LINE
8
BLACK
6
CONTINUOUS
10
200.6
20
-93.9171
11
200.314
21
-93.7743
0
LINE
8
BLACK
6
CONTINUOUS
10
200.314
20
-93.7743
11
200.171
21
-93.6314
0
LINE
8
BLACK
6
CONTINUOUS
10
200.171
20
-93.6314
11
200.029
21
-93.3457
0
LINE
8
BLACK
6
CONTINUOUS
10
200.029
20
-93.3457
11
199.886
21
-92.7743
0
LINE
8
BLACK
6
CONTINUOUS
10
199.886
20
-92.7743
11
199.886
21
-92.06
0
LINE
8
BLACK
6
CONTINUOUS
10
199.886
20
-92.06
11
200.029
21
-91.4886
0
LINE
8
BLACK
6
CONTINUOUS
10
200.029
20
-91.4886
11
200.171
21
-91.2029
0
LINE
8
BLACK
6
CONTINUOUS
10
200.171
20
-91.2029
11
200.314
21
-91.06
0
LINE
8
BLACK
6
CONTINUOUS
10
200.314
20
-91.06
11
200.6
21
-90.9171
0
LINE
8
BLACK
6
CONTINUOUS
10
202.886
20
-93.6314
11
203.029
21
-93.7743
0
LINE
8
BLACK
6
CONTINUOUS
10
203.029
20
-93.7743
11
202.886
21
-93.9171
0
LINE
8
BLACK
6
CONTINUOUS
10
202.886
20
-93.9171
11
202.743
21
-93.7743
0
LINE
8
BLACK
6
CONTINUOUS
10
202.743
20
-93.7743
11
202.886
21
-93.6314
0
LINE
8
BLACK
6
CONTINUOUS
10
202.886
20
-93.6314
11
202.886
21
-93.9171
0
LINE
8
BLACK
6
CONTINUOUS
10
204.886
20
-90.9171
11
205.171
21
-90.9171
0
LINE
8
BLACK
6
CONTINUOUS
10
205.171
20
-90.9171
11
205.457
21
-91.06
0
LINE
8
BLACK
6
CONTINUOUS
10
205.457
20
-91.06
11
205.6
21
-91.2029
0
LINE
8
BLACK
6
CONTINUOUS
10
205.6
20
-91.2029
11
205.743
21
-91.4886
0
LINE
8
BLACK
6
CONTINUOUS
10
205.743
20
-91.4886
11
205.886
21
-92.06
0
LINE
8
BLACK
6
CONTINUOUS
10
205.886
20
-92.06
11
205.886
21
-92.7743
0
LINE
8
BLACK
6
CONTINUOUS
10
205.886
20
-92.7743
11
205.743
21
-93.3457
0
LINE
8
BLACK
6
CONTINUOUS
10
205.743
20
-93.3457
11
205.6
21
-93.6314
0
LINE
8
BLACK
6
CONTINUOUS
10
205.6
20
-93.6314
11
205.457
21
-93.7743
0
LINE
8
BLACK
6
CONTINUOUS
10
205.457
20
-93.7743
11
205.171
21
-93.9171
0
LINE
8
BLACK
6
CONTINUOUS
10
205.171
20
-93.9171
11
204.886
21
-93.9171
0
LINE
8
BLACK
6
CONTINUOUS
10
204.886
20
-93.9171
11
204.6
21
-93.7743
0
LINE
8
BLACK
6
CONTINUOUS
10
204.6
20
-93.7743
11
204.457
21
-93.6314
0
LINE
8
BLACK
6
CONTINUOUS
10
204.457
20
-93.6314
11
204.314
21
-93.3457
0
LINE
8
BLACK
6
CONTINUOUS
10
204.314
20
-93.3457
11
204.171
21
-92.7743
0
LINE
8
BLACK
6
CONTINUOUS
10
204.171
20
-92.7743
11
204.171
21
-92.06
0
LINE
8
BLACK
6
CONTINUOUS
10
204.171
20
-92.06
11
204.314
21
-91.4886
0
LINE
8
BLACK
6
CONTINUOUS
10
204.314
20
-91.4886
11
204.457
21
-91.2029
0
LINE
8
BLACK
6
CONTINUOUS
10
204.457
20
-91.2029
11
204.6
21
-91.06
0
LINE
8
BLACK
6
CONTINUOUS
10
204.6
20
-91.06
11
204.886
21
-90.9171
0
LINE
8
BLACK
6
CONTINUOUS
10
207.6
20
-92.2029
11
207.314
21
-92.06
0
LINE
8
BLACK
6
CONTINUOUS
10
207.314
20
-92.06
11
207.171
21
-91.9171
0
LINE
8
BLACK
6
CONTINUOUS
10
207.171
20
-91.9171
11
207.029
21
-91.6314
0
LINE
8
BLACK
6
CONTINUOUS
10
207.029
20
-91.6314
11
207.029
21
-91.4886
0
LINE
8
BLACK
6
CONTINUOUS
10
207.029
20
-91.4886
11
207.171
21
-91.2029
0
LINE
8
BLACK
6
CONTINUOUS
10
207.171
20
-91.2029
11
207.314
21
-91.06
0
LINE
8
BLACK
6
CONTINUOUS
10
207.314
20
-91.06
11
207.6
21
-90.9171
0
LINE
8
BLACK
6
CONTINUOUS
10
207.6
20
-90.9171
11
208.171
21
-90.9171
0
LINE
8
BLACK
6
CONTINUOUS
10
208.171
20
-90.9171
11
208.457
21
-91.06
0
LINE
8
BLACK
6
CONTINUOUS
10
208.457
20
-91.06
11
208.6
21
-91.2029
0
LINE
8
BLACK
6
CONTINUOUS
10
208.6
20
-91.2029
11
208.743
21
-91.4886
0
LINE
8
BLACK
6
CONTINUOUS
10
208.743
20
-91.4886
11
208.743
21
-91.6314
0
LINE
8
BLACK
6
CONTINUOUS
10
208.743
20
-91.6314
11
208.6
21
-91.9171
0
LINE
8
BLACK
6
CONTINUOUS
10
208.6
20
-91.9171
11
208.457
21
-92.06
0
LINE
8
BLACK
6
CONTINUOUS
10
208.457
20
-92.06
11
208.171
21
-92.2029
0
LINE
8
BLACK
6
CONTINUOUS
10
208.171
20
-92.2029
11
207.6
21
-92.2029
0
LINE
8
BLACK
6
CONTINUOUS
10
207.6
20
-92.2029
11
207.314
21
-92.3457
0
LINE
8
BLACK
6
CONTINUOUS
10
207.314
20
-92.3457
11
207.171
21
-92.4886
0
LINE
8
BLACK
6
CONTINUOUS
10
207.171
20
-92.4886
11
207.029
21
-92.7743
0
LINE
8
BLACK
6
CONTINUOUS
10
207.029
20
-92.7743
11
207.029
21
-93.3457
0
LINE
8
BLACK
6
CONTINUOUS
10
207.029
20
-93.3457
11
207.171
21
-93.6314
0
LINE
8
BLACK
6
CONTINUOUS
10
207.171
20
-93.6314
11
207.314
21
-93.7743
0
LINE
8
BLACK
6
CONTINUOUS
10
207.314
20
-93.7743
11
207.6
21
-93.9171
0
LINE
8
BLACK
6
CONTINUOUS
10
207.6
20
-93.9171
11
208.171
21
-93.9171
0
LINE
8
BLACK
6
CONTINUOUS
10
208.171
20
-93.9171
11
208.457
21
-93.7743
0
LINE
8
BLACK
6
CONTINUOUS
10
208.457
20
-93.7743
11
208.6
21
-93.6314
0
LINE
8
BLACK
6
CONTINUOUS
10
208.6
20
-93.6314
11
208.743
21
-93.3457
0
LINE
8
BLACK
6
CONTINUOUS
10
208.743
20
-93.3457
11
208.743
21
-92.7743
0
LINE
8
BLACK
6
CONTINUOUS
10
208.743
20
-92.7743
11
208.6
21
-92.4886
0
LINE
8
BLACK
6
CONTINUOUS
10
208.6
20
-92.4886
11
208.457
21
-92.3457
0
LINE
8
BLACK
6
CONTINUOUS
10
208.457
20
-92.3457
11
208.171
21
-92.2029
0
LINE
8
BLACK
6
CONTINUOUS
10
209.743
20
-90.9171
11
211.743
21
-90.9171
0
LINE
8
BLACK
6
CONTINUOUS
10
211.743
20
-90.9171
11
210.457
21
-93.9171
0
LINE
8
BLACK
6
CONTINUOUS
10
212.743
20
-90.9171
11
212.743
21
-91.4886
0
LINE
8
BLACK
6
CONTINUOUS
10
213.886
20
-90.9171
11
213.886
21
-91.4886
0
LINE
8
BLACK
6
CONTINUOUS
10
218.314
20
-95.06
11
218.171
21
-94.9171
0
LINE
8
BLACK
6
CONTINUOUS
10
218.171
20
-94.9171
11
217.886
21
-94.4886
0
LINE
8
BLACK
6
CONTINUOUS
10
217.886
20
-94.4886
11
217.743
21
-94.2029
0
LINE
8
BLACK
6
CONTINUOUS
10
217.743
20
-94.2029
11
217.6
21
-93.7743
0
LINE
8
BLACK
6
CONTINUOUS
10
217.6
20
-93.7743
11
217.457
21
-93.06
0
LINE
8
BLACK
6
CONTINUOUS
10
217.457
20
-93.06
11
217.457
21
-92.4886
0
LINE
8
BLACK
6
CONTINUOUS
10
217.457
20
-92.4886
11
217.6
21
-91.7743
0
LINE
8
BLACK
6
CONTINUOUS
10
217.6
20
-91.7743
11
217.743
21
-91.3457
0
LINE
8
BLACK
6
CONTINUOUS
10
217.743
20
-91.3457
11
217.886
21
-91.06
0
LINE
8
BLACK
6
CONTINUOUS
10
217.886
20
-91.06
11
218.171
21
-90.6314
0
LINE
8
BLACK
6
CONTINUOUS
10
218.171
20
-90.6314
11
218.314
21
-90.4886
0
LINE
8
BLACK
6
CONTINUOUS
10
220.743
20
-90.9171
11
220.171
21
-90.9171
0
LINE
8
BLACK
6
CONTINUOUS
10
220.171
20
-90.9171
11
219.886
21
-91.06
0
LINE
8
BLACK
6
CONTINUOUS
10
219.886
20
-91.06
11
219.743
21
-91.2029
0
LINE
8
BLACK
6
CONTINUOUS
10
219.743
20
-91.2029
11
219.457
21
-91.6314
0
LINE
8
BLACK
6
CONTINUOUS
10
219.457
20
-91.6314
11
219.314
21
-92.2029
0
LINE
8
BLACK
6
CONTINUOUS
10
219.314
20
-92.2029
11
219.314
21
-93.3457
0
LINE
8
BLACK
6
CONTINUOUS
10
219.314
20
-93.3457
11
219.457
21
-93.6314
0
LINE
8
BLACK
6
CONTINUOUS
10
219.457
20
-93.6314
11
219.6
21
-93.7743
0
LINE
8
BLACK
6
CONTINUOUS
10
219.6
20
-93.7743
11
219.886
21
-93.9171
0
LINE
8
BLACK
6
CONTINUOUS
10
219.886
20
-93.9171
11
220.457
21
-93.9171
0
LINE
8
BLACK
6
CONTINUOUS
10
220.457
20
-93.9171
11
220.743
21
-93.7743
0
LINE
8
BLACK
6
CONTINUOUS
10
220.743
20
-93.7743
11
220.886
21
-93.6314
0
LINE
8
BLACK
6
CONTINUOUS
10
220.886
20
-93.6314
11
221.029
21
-93.3457
0
LINE
8
BLACK
6
CONTINUOUS
10
221.029
20
-93.3457
11
221.029
21
-92.6314
0
LINE
8
BLACK
6
CONTINUOUS
10
221.029
20
-92.6314
11
220.886
21
-92.3457
0
LINE
8
BLACK
6
CONTINUOUS
10
220.886
20
-92.3457
11
220.743
21
-92.2029
0
LINE
8
BLACK
6
CONTINUOUS
10
220.743
20
-92.2029
11
220.457
21
-92.06
0
LINE
8
BLACK
6
CONTINUOUS
10
220.457
20
-92.06
11
219.886
21
-92.06
0
LINE
8
BLACK
6
CONTINUOUS
10
219.886
20
-92.06
11
219.6
21
-92.2029
0
LINE
8
BLACK
6
CONTINUOUS
10
219.6
20
-92.2029
11
219.457
21
-92.3457
0
LINE
8
BLACK
6
CONTINUOUS
10
219.457
20
-92.3457
11
219.314
21
-92.6314
0
LINE
8
BLACK
6
CONTINUOUS
10
224.6
20
-93.9171
11
224.6
21
-90.9171
0
LINE
8
BLACK
6
CONTINUOUS
10
225.886
20
-93.9171
11
225.886
21
-92.3457
0
LINE
8
BLACK
6
CONTINUOUS
10
225.886
20
-92.3457
11
225.743
21
-92.06
0
LINE
8
BLACK
6
CONTINUOUS
10
225.743
20
-92.06
11
225.457
21
-91.9171
0
LINE
8
BLACK
6
CONTINUOUS
10
225.457
20
-91.9171
11
225.029
21
-91.9171
0
LINE
8
BLACK
6
CONTINUOUS
10
225.029
20
-91.9171
11
224.743
21
-92.06
0
LINE
8
BLACK
6
CONTINUOUS
10
224.743
20
-92.06
11
224.6
21
-92.2029
0
LINE
8
BLACK
6
CONTINUOUS
10
227.743
20
-93.9171
11
227.457
21
-93.7743
0
LINE
8
BLACK
6
CONTINUOUS
10
227.457
20
-93.7743
11
227.314
21
-93.6314
0
LINE
8
BLACK
6
CONTINUOUS
10
227.314
20
-93.6314
11
227.171
21
-93.3457
0
LINE
8
BLACK
6
CONTINUOUS
10
227.171
20
-93.3457
11
227.171
21
-92.4886
0
LINE
8
BLACK
6
CONTINUOUS
10
227.171
20
-92.4886
11
227.314
21
-92.2029
0
LINE
8
BLACK
6
CONTINUOUS
10
227.314
20
-92.2029
11
227.457
21
-92.06
0
LINE
8
BLACK
6
CONTINUOUS
10
227.457
20
-92.06
11
227.743
21
-91.9171
0
LINE
8
BLACK
6
CONTINUOUS
10
227.743
20
-91.9171
11
228.171
21
-91.9171
0
LINE
8
BLACK
6
CONTINUOUS
10
228.171
20
-91.9171
11
228.457
21
-92.06
0
LINE
8
BLACK
6
CONTINUOUS
10
228.457
20
-92.06
11
228.6
21
-92.2029
0
LINE
8
BLACK
6
CONTINUOUS
10
228.6
20
-92.2029
11
228.743
21
-92.4886
0
LINE
8
BLACK
6
CONTINUOUS
10
228.743
20
-92.4886
11
228.743
21
-93.3457
0
LINE
8
BLACK
6
CONTINUOUS
10
228.743
20
-93.3457
11
228.6
21
-93.6314
0
LINE
8
BLACK
6
CONTINUOUS
10
228.6
20
-93.6314
11
228.457
21
-93.7743
0
LINE
8
BLACK
6
CONTINUOUS
10
228.457
20
-93.7743
11
228.171
21
-93.9171
0
LINE
8
BLACK
6
CONTINUOUS
10
228.171
20
-93.9171
11
227.743
21
-93.9171
0
LINE
8
BLACK
6
CONTINUOUS
10
230.457
20
-93.9171
11
230.171
21
-93.7743
0
LINE
8
BLACK
6
CONTINUOUS
10
230.171
20
-93.7743
11
230.029
21
-93.4886
0
LINE
8
BLACK
6
CONTINUOUS
10
230.029
20
-93.4886
11
230.029
21
-90.9171
0
LINE
8
BLACK
6
CONTINUOUS
10
232.743
20
-93.7743
11
232.457
21
-93.9171
0
LINE
8
BLACK
6
CONTINUOUS
10
232.457
20
-93.9171
11
231.886
21
-93.9171
0
LINE
8
BLACK
6
CONTINUOUS
10
231.886
20
-93.9171
11
231.6
21
-93.7743
0
LINE
8
BLACK
6
CONTINUOUS
10
231.6
20
-93.7743
11
231.457
21
-93.4886
0
LINE
8
BLACK
6
CONTINUOUS
10
231.457
20
-93.4886
11
231.457
21
-92.3457
0
LINE
8
BLACK
6
CONTINUOUS
10
231.457
20
-92.3457
11
231.6
21
-92.06
0
LINE
8
BLACK
6
CONTINUOUS
10
231.6
20
-92.06
11
231.886
21
-91.9171
0
LINE
8
BLACK
6
CONTINUOUS
10
231.886
20
-91.9171
11
232.457
21
-91.9171
0
LINE
8
BLACK
6
CONTINUOUS
10
232.457
20
-91.9171
11
232.743
21
-92.06
0
LINE
8
BLACK
6
CONTINUOUS
10
232.743
20
-92.06
11
232.886
21
-92.3457
0
LINE
8
BLACK
6
CONTINUOUS
10
232.886
20
-92.3457
11
232.886
21
-92.6314
0
LINE
8
BLACK
6
CONTINUOUS
10
232.886
20
-92.6314
11
231.457
21
-92.9171
0
LINE
8
BLACK
6
CONTINUOUS
10
234.029
20
-93.7743
11
234.314
21
-93.9171
0
LINE
8
BLACK
6
CONTINUOUS
10
234.314
20
-93.9171
11
234.886
21
-93.9171
0
LINE
8
BLACK
6
CONTINUOUS
10
234.886
20
-93.9171
11
235.171
21
-93.7743
0
LINE
8
BLACK
6
CONTINUOUS
10
235.171
20
-93.7743
11
235.314
21
-93.4886
0
LINE
8
BLACK
6
CONTINUOUS
10
235.314
20
-93.4886
11
235.314
21
-93.3457
0
LINE
8
BLACK
6
CONTINUOUS
10
235.314
20
-93.3457
11
235.171
21
-93.06
0
LINE
8
BLACK
6
CONTINUOUS
10
235.171
20
-93.06
11
234.886
21
-92.9171
0
LINE
8
BLACK
6
CONTINUOUS
10
234.886
20
-92.9171
11
234.457
21
-92.9171
0
LINE
8
BLACK
6
CONTINUOUS
10
234.457
20
-92.9171
11
234.171
21
-92.7743
0
LINE
8
BLACK
6
CONTINUOUS
10
234.171
20
-92.7743
11
234.029
21
-92.4886
0
LINE
8
BLACK
6
CONTINUOUS
10
234.029
20
-92.4886
11
234.029
21
-92.3457
0
LINE
8
BLACK
6
CONTINUOUS
10
234.029
20
-92.3457
11
234.171
21
-92.06
0
LINE
8
BLACK
6
CONTINUOUS
10
234.171
20
-92.06
11
234.457
21
-91.9171
0
LINE
8
BLACK
6
CONTINUOUS
10
234.457
20
-91.9171
11
234.886
21
-91.9171
0
LINE
8
BLACK
6
CONTINUOUS
10
234.886
20
-91.9171
11
235.171
21
-92.06
0
LINE
8
BLACK
6
CONTINUOUS
10
236.314
20
-95.06
11
236.457
21
-94.9171
0
LINE
8
BLACK
6
CONTINUOUS
10
236.457
20
-94.9171
11
236.743
21
-94.4886
0
LINE
8
BLACK
6
CONTINUOUS
10
236.743
20
-94.4886
11
236.886
21
-94.2029
0
LINE
8
BLACK
6
CONTINUOUS
10
236.886
20
-94.2029
11
237.029
21
-93.7743
0
LINE
8
BLACK
6
CONTINUOUS
10
237.029
20
-93.7743
11
237.171
21
-93.06
0
LINE
8
BLACK
6
CONTINUOUS
10
237.171
20
-93.06
11
237.171
21
-92.4886
0
LINE
8
BLACK
6
CONTINUOUS
10
237.171
20
-92.4886
11
237.029
21
-91.7743
0
LINE
8
BLACK
6
CONTINUOUS
10
237.029
20
-91.7743
11
236.886
21
-91.3457
0
LINE
8
BLACK
6
CONTINUOUS
10
236.886
20
-91.3457
11
236.743
21
-91.06
0
LINE
8
BLACK
6
CONTINUOUS
10
236.743
20
-91.06
11
236.457
21
-90.6314
0
LINE
8
BLACK
6
CONTINUOUS
10
236.457
20
-90.6314
11
236.314
21
-90.4886
0
LINE
8
BLACK
6
CONTINUOUS
10
241.743
20
-95.06
11
241.6
21
-94.9171
0
LINE
8
BLACK
6
CONTINUOUS
10
241.6
20
-94.9171
11
241.314
21
-94.4886
0
LINE
8
BLACK
6
CONTINUOUS
10
241.314
20
-94.4886
11
241.171
21
-94.2029
0
LINE
8
BLACK
6
CONTINUOUS
10
241.171
20
-94.2029
11
241.029
21
-93.7743
0
LINE
8
BLACK
6
CONTINUOUS
10
241.029
20
-93.7743
11
240.886
21
-93.06
0
LINE
8
BLACK
6
CONTINUOUS
10
240.886
20
-93.06
11
240.886
21
-92.4886
0
LINE
8
BLACK
6
CONTINUOUS
10
240.886
20
-92.4886
11
241.029
21
-91.7743
0
LINE
8
BLACK
6
CONTINUOUS
10
241.029
20
-91.7743
11
241.171
21
-91.3457
0
LINE
8
BLACK
6
CONTINUOUS
10
241.171
20
-91.3457
11
241.314
21
-91.06
0
LINE
8
BLACK
6
CONTINUOUS
10
241.314
20
-91.06
11
241.6
21
-90.6314
0
LINE
8
BLACK
6
CONTINUOUS
10
241.6
20
-90.6314
11
241.743
21
-90.4886
0
LINE
8
BLACK
6
CONTINUOUS
10
242.886
20
-91.9171
11
242.886
21
-93.9171
0
LINE
8
BLACK
6
CONTINUOUS
10
242.886
20
-92.2029
11
243.029
21
-92.06
0
LINE
8
BLACK
6
CONTINUOUS
10
243.029
20
-92.06
11
243.314
21
-91.9171
0
LINE
8
BLACK
6
CONTINUOUS
10
243.314
20
-91.9171
11
243.743
21
-91.9171
0
LINE
8
BLACK
6
CONTINUOUS
10
243.743
20
-91.9171
11
244.029
21
-92.06
0
LINE
8
BLACK
6
CONTINUOUS
10
244.029
20
-92.06
11
244.171
21
-92.3457
0
LINE
8
BLACK
6
CONTINUOUS
10
244.171
20
-92.3457
11
244.171
21
-93.9171
0
LINE
8
BLACK
6
CONTINUOUS
10
246.029
20
-93.9171
11
245.743
21
-93.7743
0
LINE
8
BLACK
6
CONTINUOUS
10
245.743
20
-93.7743
11
245.6
21
-93.6314
0
LINE
8
BLACK
6
CONTINUOUS
10
245.6
20
-93.6314
11
245.457
21
-93.3457
0
LINE
8
BLACK
6
CONTINUOUS
10
245.457
20
-93.3457
11
245.457
21
-92.4886
0
LINE
8
BLACK
6
CONTINUOUS
10
245.457
20
-92.4886
11
245.6
21
-92.2029
0
LINE
8
BLACK
6
CONTINUOUS
10
245.6
20
-92.2029
11
245.743
21
-92.06
0
LINE
8
BLACK
6
CONTINUOUS
10
245.743
20
-92.06
11
246.029
21
-91.9171
0
LINE
8
BLACK
6
CONTINUOUS
10
246.029
20
-91.9171
11
246.457
21
-91.9171
0
LINE
8
BLACK
6
CONTINUOUS
10
246.457
20
-91.9171
11
246.743
21
-92.06
0
LINE
8
BLACK
6
CONTINUOUS
10
246.743
20
-92.06
11
246.886
21
-92.2029
0
LINE
8
BLACK
6
CONTINUOUS
10
246.886
20
-92.2029
11
247.029
21
-92.4886
0
LINE
8
BLACK
6
CONTINUOUS
10
247.029
20
-92.4886
11
247.029
21
-93.3457
0
LINE
8
BLACK
6
CONTINUOUS
10
247.029
20
-93.3457
11
246.886
21
-93.6314
0
LINE
8
BLACK
6
CONTINUOUS
10
246.886
20
-93.6314
11
246.743
21
-93.7743
0
LINE
8
BLACK
6
CONTINUOUS
10
246.743
20
-93.7743
11
246.457
21
-93.9171
0
LINE
8
BLACK
6
CONTINUOUS
10
246.457
20
-93.9171
11
246.029
21
-93.9171
0
LINE
8
BLACK
6
CONTINUOUS
10
247.886
20
-91.9171
11
249.029
21
-91.9171
0
LINE
8
BLACK
6
CONTINUOUS
10
248.314
20
-90.9171
11
248.314
21
-93.4886
0
LINE
8
BLACK
6
CONTINUOUS
10
248.314
20
-93.4886
11
248.457
21
-93.7743
0
LINE
8
BLACK
6
CONTINUOUS
10
248.457
20
-93.7743
11
248.743
21
-93.9171
0
LINE
8
BLACK
6
CONTINUOUS
10
248.743
20
-93.9171
11
249.029
21
-93.9171
0
LINE
8
BLACK
6
CONTINUOUS
10
252.314
20
-91.9171
11
252.314
21
-94.9171
0
LINE
8
BLACK
6
CONTINUOUS
10
252.314
20
-92.06
11
252.6
21
-91.9171
0
LINE
8
BLACK
6
CONTINUOUS
10
252.6
20
-91.9171
11
253.171
21
-91.9171
0
LINE
8
BLACK
6
CONTINUOUS
10
253.171
20
-91.9171
11
253.457
21
-92.06
0
LINE
8
BLACK
6
CONTINUOUS
10
253.457
20
-92.06
11
253.6
21
-92.2029
0
LINE
8
BLACK
6
CONTINUOUS
10
253.6
20
-92.2029
11
253.743
21
-92.4886
0
LINE
8
BLACK
6
CONTINUOUS
10
253.743
20
-92.4886
11
253.743
21
-93.3457
0
LINE
8
BLACK
6
CONTINUOUS
10
253.743
20
-93.3457
11
253.6
21
-93.6314
0
LINE
8
BLACK
6
CONTINUOUS
10
253.6
20
-93.6314
11
253.457
21
-93.7743
0
LINE
8
BLACK
6
CONTINUOUS
10
253.457
20
-93.7743
11
253.171
21
-93.9171
0
LINE
8
BLACK
6
CONTINUOUS
10
253.171
20
-93.9171
11
252.6
21
-93.9171
0
LINE
8
BLACK
6
CONTINUOUS
10
252.6
20
-93.9171
11
252.314
21
-93.7743
0
LINE
8
BLACK
6
CONTINUOUS
10
255.457
20
-93.9171
11
255.171
21
-93.7743
0
LINE
8
BLACK
6
CONTINUOUS
10
255.171
20
-93.7743
11
255.029
21
-93.4886
0
LINE
8
BLACK
6
CONTINUOUS
10
255.029
20
-93.4886
11
255.029
21
-90.9171
0
LINE
8
BLACK
6
CONTINUOUS
10
257.886
20
-93.9171
11
257.886
21
-92.3457
0
LINE
8
BLACK
6
CONTINUOUS
10
257.886
20
-92.3457
11
257.743
21
-92.06
0
LINE
8
BLACK
6
CONTINUOUS
10
257.743
20
-92.06
11
257.457
21
-91.9171
0
LINE
8
BLACK
6
CONTINUOUS
10
257.457
20
-91.9171
11
256.886
21
-91.9171
0
LINE
8
BLACK
6
CONTINUOUS
10
256.886
20
-91.9171
11
256.6
21
-92.06
0
LINE
8
BLACK
6
CONTINUOUS
10
257.886
20
-93.7743
11
257.6
21
-93.9171
0
LINE
8
BLACK
6
CONTINUOUS
10
257.6
20
-93.9171
11
256.886
21
-93.9171
0
LINE
8
BLACK
6
CONTINUOUS
10
256.886
20
-93.9171
11
256.6
21
-93.7743
0
LINE
8
BLACK
6
CONTINUOUS
10
256.6
20
-93.7743
11
256.457
21
-93.4886
0
LINE
8
BLACK
6
CONTINUOUS
10
256.457
20
-93.4886
11
256.457
21
-93.2029
0
LINE
8
BLACK
6
CONTINUOUS
10
256.457
20
-93.2029
11
256.6
21
-92.9171
0
LINE
8
BLACK
6
CONTINUOUS
10
256.6
20
-92.9171
11
256.886
21
-92.7743
0
LINE
8
BLACK
6
CONTINUOUS
10
256.886
20
-92.7743
11
257.6
21
-92.7743
0
LINE
8
BLACK
6
CONTINUOUS
10
257.6
20
-92.7743
11
257.886
21
-92.6314
0
LINE
8
BLACK
6
CONTINUOUS
10
258.886
20
-91.9171
11
260.029
21
-91.9171
0
LINE
8
BLACK
6
CONTINUOUS
10
259.314
20
-90.9171
11
259.314
21
-93.4886
0
LINE
8
BLACK
6
CONTINUOUS
10
259.314
20
-93.4886
11
259.457
21
-93.7743
0
LINE
8
BLACK
6
CONTINUOUS
10
259.457
20
-93.7743
11
259.743
21
-93.9171
0
LINE
8
BLACK
6
CONTINUOUS
10
259.743
20
-93.9171
11
260.029
21
-93.9171
0
LINE
8
BLACK
6
CONTINUOUS
10
262.171
20
-93.7743
11
261.886
21
-93.9171
0
LINE
8
BLACK
6
CONTINUOUS
10
261.886
20
-93.9171
11
261.314
21
-93.9171
0
LINE
8
BLACK
6
CONTINUOUS
10
261.314
20
-93.9171
11
261.029
21
-93.7743
0
LINE
8
BLACK
6
CONTINUOUS
10
261.029
20
-93.7743
11
260.886
21
-93.4886
0
LINE
8
BLACK
6
CONTINUOUS
10
260.886
20
-93.4886
11
260.886
21
-92.3457
0
LINE
8
BLACK
6
CONTINUOUS
10
260.886
20
-92.3457
11
261.029
21
-92.06
0
LINE
8
BLACK
6
CONTINUOUS
10
261.029
20
-92.06
11
261.314
21
-91.9171
0
LINE
8
BLACK
6
CONTINUOUS
10
261.314
20
-91.9171
11
261.886
21
-91.9171
0
LINE
8
BLACK
6
CONTINUOUS
10
261.886
20
-91.9171
11
262.171
21
-92.06
0
LINE
8
BLACK
6
CONTINUOUS
10
262.171
20
-92.06
11
262.314
21
-92.3457
0
LINE
8
BLACK
6
CONTINUOUS
10
262.314
20
-92.3457
11
262.314
21
-92.6314
0
LINE
8
BLACK
6
CONTINUOUS
10
262.314
20
-92.6314
11
260.886
21
-92.9171
0
LINE
8
BLACK
6
CONTINUOUS
10
264.886
20
-93.9171
11
264.886
21
-90.9171
0
LINE
8
BLACK
6
CONTINUOUS
10
264.886
20
-93.7743
11
264.6
21
-93.9171
0
LINE
8
BLACK
6
CONTINUOUS
10
264.6
20
-93.9171
11
264.029
21
-93.9171
0
LINE
8
BLACK
6
CONTINUOUS
10
264.029
20
-93.9171
11
263.743
21
-93.7743
0
LINE
8
BLACK
6
CONTINUOUS
10
263.743
20
-93.7743
11
263.6
21
-93.6314
0
LINE
8
BLACK
6
CONTINUOUS
10
263.6
20
-93.6314
11
263.457
21
-93.3457
0
LINE
8
BLACK
6
CONTINUOUS
10
263.457
20
-93.3457
11
263.457
21
-92.4886
0
LINE
8
BLACK
6
CONTINUOUS
10
263.457
20
-92.4886
11
263.6
21
-92.2029
0
LINE
8
BLACK
6
CONTINUOUS
10
263.6
20
-92.2029
11
263.743
21
-92.06
0
LINE
8
BLACK
6
CONTINUOUS
10
263.743
20
-92.06
11
264.029
21
-91.9171
0
LINE
8
BLACK
6
CONTINUOUS
10
264.029
20
-91.9171
11
264.6
21
-91.9171
0
LINE
8
BLACK
6
CONTINUOUS
10
264.6
20
-91.9171
11
264.886
21
-92.06
0
LINE
8
BLACK
6
CONTINUOUS
10
266.029
20
-95.06
11
266.171
21
-94.9171
0
LINE
8
BLACK
6
CONTINUOUS
10
266.171
20
-94.9171
11
266.457
21
-94.4886
0
LINE
8
BLACK
6
CONTINUOUS
10
266.457
20
-94.4886
11
266.6
21
-94.2029
0
LINE
8
BLACK
6
CONTINUOUS
10
266.6
20
-94.2029
11
266.743
21
-93.7743
0
LINE
8
BLACK
6
CONTINUOUS
10
266.743
20
-93.7743
11
266.886
21
-93.06
0
LINE
8
BLACK
6
CONTINUOUS
10
266.886
20
-93.06
11
266.886
21
-92.4886
0
LINE
8
BLACK
6
CONTINUOUS
10
266.886
20
-92.4886
11
266.743
21
-91.7743
0
LINE
8
BLACK
6
CONTINUOUS
10
266.743
20
-91.7743
11
266.6
21
-91.3457
0
LINE
8
BLACK
6
CONTINUOUS
10
266.6
20
-91.3457
11
266.457
21
-91.06
0
LINE
8
BLACK
6
CONTINUOUS
10
266.457
20
-91.06
11
266.171
21
-90.6314
0
LINE
8
BLACK
6
CONTINUOUS
10
266.171
20
-90.6314
11
266.029
21
-90.4886
  0
ENDSEC
  0
EOF
